{
.appVersion = "3151";
.formatVersion = 3;
DisplayStrings = (
"Ǉ",
"éA/acutecomb.case ÁĂẮẶẰẲẴÂẤẬẦẨẪȀÄẠÀẢȂĀĄÅǺÃÆǼBCĆČÇĈĊDǱǄÐĎĐḌǲǅEÉĔĚÊẾỆỀỂỄ/dblgravecomb.case Ȅ/dieresiscomb.case/dieresiscomb.case Ë/dotaccentcomb.case ĖẸÈ̉Ẻ/breveinvertedcomb.case ȆĒĘ/tildecomb.case ẼƏFGǴĞĜĢĠHĦĤḤIĲÍĬÎȈÏİỊÌỈȊĪĮĨJĴKĶLǇĹĽĻĿǈŁMNǊŃŇŅṄǋÑŊOÓŎÔỐỘỒỔỖȌÖỌÒỎƠỚỢỜỞỠŐȎŌǪØǾÕŒPÞQRŔ/caroncomb.case ŘŖȐṚȒSŚŠŞŜȘṢTŦŤŢȚṬUÚŬÛȔÜỤÙỦƯỨỰỪỬỮ/hungarumlautcomb.case ŐŰŰȖŪŲŮŨVWẂŴẄẀXYÝŶŸỴỲỶỸZŹŽŻẒááăắặằẳẵâấậầẩẫȁäạ̀àảȃ̄āąåǻãæǽbcćčçĉċdðďđḍǳǆeéĕěêếệềểễȅë̇ėẹèẻȇēęẽəfgǵğĝģġhħĥḥiıíĭî̏ȉï/idotaccent ịìỉȋiĳīįĩjȷĵkķĸlĺľļŀǉłmnńŉňņṅǌñŋoóŏôốộồổỗȍöọòỏơớợờởỡőȏōǫøǿõœpþqrŕ̌řŗȑṛ̑ȓsśšşŝșṣßtŧťţțṭuúŭûȕüụùủưứựừửữűȗūųůũvwẃŵẅẁxyýŷÿỵỳỷỹzźžżẓọ/odotbelow.001"
);
axes = (
{
name = Weight;
tag = wght;
}
);
classes = (
{
automatic = 1;

glyphs = (
{
glyphname = A;
kernLeft = A;
kernRight = A;
lastChange = "2023-02-02 17:07:23 +0000";
layers = (
{
anchors = (
{
name = bottom;
pos = (343,0);
},
{
name = ogonek;
pos = (590,44);
},
{
name = top;
pos = (343,754);
}
);
background = {
anchors = (
{
name = bottom;
pos = (343,0);
},
{
name = ogonek;
pos = (590,44);
},
{
name = top;
pos = (343,754);
}
);
shapes = (
{
closed = 1;
nodes = (
(612,15,l),
(361,766,l),
(331,766,l),
(283,594,l),
(290,565,l),
(294,565,l),
(478,15,l)
);
},
{
closed = 1;
nodes = (
(224,0,l),
(224,25,l),
(-16,25,l),
(-16,0,l)
);
},
{
closed = 1;
nodes = (
(503,236,l),
(503,261,l),
(179,261,l),
(179,236,l)
);
},
{
closed = 1;
nodes = (
(701,0,l),
(701,25,l),
(358,25,l),
(358,0,l)
);
},
{
closed = 1;
nodes = (
(103,15,l),
(300,594,l),
(361,766,l),
(331,766,l),
(70,15,l)
);
}
);
};
layerId = UUID0;
shapes = (
{
closed = 1;
nodes = (
(612,15,l),
(361,766,l),
(331,766,l),
(283,594,l),
(290,565,l),
(294,565,l),
(478,15,l)
);
},
{
closed = 1;
nodes = (
(224,0,l),
(224,25,l),
(-16,25,l),
(-16,0,l)
);
},
{
closed = 1;
nodes = (
(503,236,l),
(503,261,l),
(179,261,l),
(179,236,l)
);
},
{
closed = 1;
nodes = (
(701,0,l),
(701,25,l),
(358,25,l),
(358,0,l)
);
},
{
closed = 1;
nodes = (
(103,15,l),
(300,594,l),
(361,766,l),
(331,766,l),
(70,15,l)
);
}
);
width = 686;
},
{
anchors = (
{
name = bottom;
pos = (358,0);
},
{
name = ogonek;
pos = (643,10);
},
{
name = top;
pos = (383,754);
}
);
background = {
anchors = (
{
name = bottom;
pos = (358,0);
},
{
name = ogonek;
pos = (643,10);
},
{
name = top;
pos = (383,754);
}
);
shapes = (
{
closed = 1;
nodes = (
(666,15,l),
(394,763,l),
(368,763,l),
(300,553,l),
(306,516,l),
(310,516,l),
(493,15,l)
);
},
{
closed = 1;
nodes = (
(229,0,l),
(229,30,l),
(-15,30,l),
(-15,0,l)
);
},
{
closed = 1;
nodes = (
(508,204,l),
(508,233,l),
(164,233,l),
(164,204,l)
);
},
{
closed = 1;
nodes = (
(730,0,l),
(730,30,l),
(383,30,l),
(383,0,l)
);
},
{
closed = 1;
nodes = (
(106,15,l),
(342,604,l),
(394,763,l),
(368,763,l),
(73,15,l)
);
}
);
};
layerId = "3AE1663F-34E8-4710-91A2-69F84C961E5F";
shapes = (
{
closed = 1;
nodes = (
(666,15,l),
(394,763,l),
(368,763,l),
(300,553,l),
(306,516,l),
(310,516,l),
(493,15,l)
);
},
{
closed = 1;
nodes = (
(229,0,l),
(229,30,l),
(-15,30,l),
(-15,0,l)
);
},
{
closed = 1;
nodes = (
(508,204,l),
(508,233,l),
(164,233,l),
(164,204,l)
);
},
{
closed = 1;
nodes = (
(730,0,l),
(730,30,l),
(383,30,l),
(383,0,l)
);
},
{
closed = 1;
nodes = (
(106,15,l),
(342,604,l),
(394,763,l),
(368,763,l),
(73,15,l)
);
}
);
width = 715;
}
);
unicode = 65;
},
{
glyphname = Aacute;
kernLeft = A;
kernRight = A;
lastChange = "2023-02-02 17:07:23 +0000";
layers = (
{
background = {
anchors = (
{
name = bottom;
pos = (343,0);
},
{
name = ogonek;
pos = (590,44);
},
{
name = top;
pos = (343,959);
}
);
shapes = (
{
closed = 1;
nodes = (
(612,15,l),
(361,766,l),
(331,766,l),
(283,594,l),
(290,565,l),
(294,565,l),
(478,15,l)
);
},
{
closed = 1;
nodes = (
(224,0,l),
(224,25,l),
(-16,25,l),
(-16,0,l)
);
},
{
closed = 1;
nodes = (
(503,236,l),
(503,261,l),
(179,261,l),
(179,236,l)
);
},
{
closed = 1;
nodes = (
(701,0,l),
(701,25,l),
(358,25,l),
(358,0,l)
);
},
{
closed = 1;
nodes = (
(103,15,l),
(300,594,l),
(361,766,l),
(331,766,l),
(70,15,l)
);
},
{
closed = 1;
nodes = (
(252,827,l),
(427,863,ls),
(460,870,o),
(477,890,o),
(477,916,cs),
(477,942,o),
(461,959,o),
(433,959,cs),
(419,959,o),
(407,953,o),
(360,923,cs),
(209,827,l)
);
}
);
};
layerId = UUID0;
shapes = (
{
ref = A;
},
{
pos = (199,35);
ref = acutecomb.case;
}
);
width = 686;
},
{
background = {
anchors = (
{
name = bottom;
pos = (358,0);
},
{
name = ogonek;
pos = (643,10);
},
{
name = top;
pos = (383,960);
}
);
shapes = (
{
closed = 1;
nodes = (
(666,15,l),
(394,763,l),
(368,763,l),
(300,553,l),
(306,516,l),
(310,516,l),
(493,15,l)
);
},
{
closed = 1;
nodes = (
(229,0,l),
(229,30,l),
(-15,30,l),
(-15,0,l)
);
},
{
closed = 1;
nodes = (
(508,204,l),
(508,233,l),
(164,233,l),
(164,204,l)
);
},
{
closed = 1;
nodes = (
(730,0,l),
(730,30,l),
(383,30,l),
(383,0,l)
);
},
{
closed = 1;
nodes = (
(106,15,l),
(342,604,l),
(394,763,l),
(368,763,l),
(73,15,l)
);
},
{
closed = 1;
nodes = (
(299,823,l),
(476,858,ls),
(520,867,o),
(529,891,o),
(529,914,cs),
(529,938,o),
(512,960,o),
(479,960,cs),
(450,960,o),
(432,950,o),
(397,927,cs),
(236,823,l)
);
}
);
};
layerId = "3AE1663F-34E8-4710-91A2-69F84C961E5F";
shapes = (
{
ref = A;
},
{
pos = (226,37);
ref = acutecomb.case;
}
);
width = 715;
}
);
unicode = 193;
},
{
glyphname = Abreve;
kernLeft = A;
kernRight = A;
lastChange = "2023-02-02 17:07:23 +0000";
layers = (
{
background = {
anchors = (
{
name = bottom;
pos = (343,0);
},
{
name = ogonek;
pos = (590,44);
},
{
name = top;
pos = (343,952);
}
);
shapes = (
{
closed = 1;
nodes = (
(612,15,l),
(361,766,l),
(331,766,l),
(283,594,l),
(290,565,l),
(294,565,l),
(478,15,l)
);
},
{
closed = 1;
nodes = (
(224,0,l),
(224,25,l),
(-16,25,l),
(-16,0,l)
);
},
{
closed = 1;
nodes = (
(503,236,l),
(503,261,l),
(179,261,l),
(179,236,l)
);
},
{
closed = 1;
nodes = (
(701,0,l),
(701,25,l),
(358,25,l),
(358,0,l)
);
},
{
closed = 1;
nodes = (
(103,15,l),
(300,594,l),
(361,766,l),
(331,766,l),
(70,15,l)
);
},
{
closed = 1;
nodes = (
(449,820,o),
(479,875,o),
(479,952,c),
(445,952,l),
(442,908,o),
(412,888,o),
(341,888,cs),
(271,888,o),
(243,906,o),
(240,952,c),
(206,952,l),
(206,871,o),
(240,820,o),
(343,820,cs)
);
}
);
};
layerId = UUID0;
shapes = (
{
ref = A;
},
{
pos = (176,61);
ref = brevecomb.case;
}
);
width = 686;
},
{
background = {
anchors = (
{
name = bottom;
pos = (358,0);
},
{
name = ogonek;
pos = (643,10);
},
{
name = top;
pos = (383,962);
}
);
shapes = (
{
closed = 1;
nodes = (
(666,15,l),
(394,763,l),
(368,763,l),
(300,553,l),
(306,516,l),
(310,516,l),
(493,15,l)
);
},
{
closed = 1;
nodes = (
(229,0,l),
(229,30,l),
(-15,30,l),
(-15,0,l)
);
},
{
closed = 1;
nodes = (
(508,204,l),
(508,233,l),
(164,233,l),
(164,204,l)
);
},
{
closed = 1;
nodes = (
(730,0,l),
(730,30,l),
(383,30,l),
(383,0,l)
);
},
{
closed = 1;
nodes = (
(106,15,l),
(342,604,l),
(394,763,l),
(368,763,l),
(73,15,l)
);
},
{
closed = 1;
nodes = (
(476,825,o),
(529,885,o),
(529,962,c),
(485,962,l),
(482,932,o),
(432,918,o),
(381,918,cs),
(331,918,o),
(283,930,o),
(280,962,c),
(236,962,l),
(236,881,o),
(293,825,o),
(383,825,cs)
);
}
);
};
guides = (
{
pos = (383,518);
}
);
layerId = "3AE1663F-34E8-4710-91A2-69F84C961E5F";
shapes = (
{
ref = A;
},
{
pos = (206,41);
ref = brevecomb.case;
}
);
width = 715;
}
);
unicode = 258;
},
{
glyphname = Abreveacute;
kernLeft = A;
kernRight = A;
lastChange = "2023-02-02 17:07:23 +0000";
layers = (
{
background = {
anchors = (
{
name = bottom;
pos = (343,0);
},
{
name = ogonek;
pos = (590,44);
},
{
name = top;
pos = (343,1157);
}
);
shapes = (
{
closed = 1;
nodes = (
(612,15,l),
(361,766,l),
(331,766,l),
(283,594,l),
(290,565,l),
(294,565,l),
(478,15,l)
);
},
{
closed = 1;
nodes = (
(224,0,l),
(224,25,l),
(-16,25,l),
(-16,0,l)
);
},
{
closed = 1;
nodes = (
(503,236,l),
(503,261,l),
(179,261,l),
(179,236,l)
);
},
{
closed = 1;
nodes = (
(701,0,l),
(701,25,l),
(358,25,l),
(358,0,l)
);
},
{
closed = 1;
nodes = (
(103,15,l),
(300,594,l),
(361,766,l),
(331,766,l),
(70,15,l)
);
},
{
closed = 1;
nodes = (
(449,820,o),
(479,875,o),
(479,952,c),
(445,952,l),
(442,908,o),
(412,888,o),
(341,888,cs),
(271,888,o),
(243,906,o),
(240,952,c),
(206,952,l),
(206,871,o),
(240,820,o),
(343,820,cs)
);
},
{
closed = 1;
nodes = (
(252,1025,l),
(427,1061,ls),
(460,1068,o),
(477,1088,o),
(477,1114,cs),
(477,1140,o),
(461,1157,o),
(433,1157,cs),
(419,1157,o),
(407,1151,o),
(360,1121,cs),
(209,1025,l)
);
}
);
};
layerId = UUID0;
shapes = (
{
ref = A;
},
{
pos = (176,304);
ref = brevecomb_acutecomb;
}
);
width = 686;
},
{
background = {
anchors = (
{
name = bottom;
pos = (358,0);
},
{
name = ogonek;
pos = (643,10);
},
{
name = top;
pos = (383,1168);
}
);
shapes = (
{
closed = 1;
nodes = (
(666,15,l),
(394,763,l),
(368,763,l),
(300,553,l),
(306,516,l),
(310,516,l),
(493,15,l)
);
},
{
closed = 1;
nodes = (
(229,0,l),
(229,30,l),
(-15,30,l),
(-15,0,l)
);
},
{
closed = 1;
nodes = (
(508,204,l),
(508,233,l),
(164,233,l),
(164,204,l)
);
},
{
closed = 1;
nodes = (
(730,0,l),
(730,30,l),
(383,30,l),
(383,0,l)
);
},
{
closed = 1;
nodes = (
(106,15,l),
(342,604,l),
(394,763,l),
(368,763,l),
(73,15,l)
);
},
{
closed = 1;
nodes = (
(476,825,o),
(529,885,o),
(529,962,c),
(485,962,l),
(482,932,o),
(432,918,o),
(381,918,cs),
(331,918,o),
(283,930,o),
(280,962,c),
(236,962,l),
(236,881,o),
(293,825,o),
(383,825,cs)
);
},
{
closed = 1;
nodes = (
(299,1031,l),
(476,1066,ls),
(520,1075,o),
(529,1099,o),
(529,1122,cs),
(529,1146,o),
(512,1168,o),
(479,1168,cs),
(450,1168,o),
(432,1158,o),
(397,1135,cs),
(236,1031,l)
);
}
);
};
layerId = "3AE1663F-34E8-4710-91A2-69F84C961E5F";
shapes = (
{
ref = A;
},
{
pos = (85,304);
ref = brevecomb_acutecomb;
}
);
width = 715;
}
);
unicode = 7854;
},
{
glyphname = Abrevedotbelow;
kernLeft = A;
kernRight = A;
lastChange = "2023-02-02 17:07:23 +0000";
layers = (
{
background = {
anchors = (
{
name = bottom;
pos = (343,-231);
},
{
name = ogonek;
pos = (590,44);
},
{
name = top;
pos = (343,952);
}
);
shapes = (
{
closed = 1;
nodes = (
(612,15,l),
(361,766,l),
(331,766,l),
(283,594,l),
(290,565,l),
(294,565,l),
(478,15,l)
);
},
{
closed = 1;
nodes = (
(224,0,l),
(224,25,l),
(-16,25,l),
(-16,0,l)
);
},
{
closed = 1;
nodes = (
(503,236,l),
(503,261,l),
(179,261,l),
(179,236,l)
);
},
{
closed = 1;
nodes = (
(701,0,l),
(701,25,l),
(358,25,l),
(358,0,l)
);
},
{
closed = 1;
nodes = (
(103,15,l),
(300,594,l),
(361,766,l),
(331,766,l),
(70,15,l)
);
},
{
closed = 1;
nodes = (
(379,-231,o),
(409,-201,o),
(409,-165,cs),
(409,-129,o),
(379,-99,o),
(343,-99,cs),
(307,-99,o),
(277,-129,o),
(277,-165,cs),
(277,-201,o),
(307,-231,o),
(343,-231,cs)
);
},
{
closed = 1;
nodes = (
(449,820,o),
(479,875,o),
(479,952,c),
(445,952,l),
(442,908,o),
(412,888,o),
(341,888,cs),
(271,888,o),
(243,906,o),
(240,952,c),
(206,952,l),
(206,871,o),
(240,820,o),
(343,820,cs)
);
}
);
};
layerId = UUID0;
shapes = (
{
ref = A;
},
{
pos = (59,0);
ref = dotbelowcomb;
},
{
pos = (176,61);
ref = brevecomb.case;
}
);
width = 686;
},
{
background = {
anchors = (
{
name = bottom;
pos = (358,-260);
},
{
name = ogonek;
pos = (643,10);
},
{
name = top;
pos = (383,962);
}
);
shapes = (
{
closed = 1;
nodes = (
(666,15,l),
(394,763,l),
(368,763,l),
(300,553,l),
(306,516,l),
(310,516,l),
(493,15,l)
);
},
{
closed = 1;
nodes = (
(229,0,l),
(229,30,l),
(-15,30,l),
(-15,0,l)
);
},
{
closed = 1;
nodes = (
(508,204,l),
(508,233,l),
(164,233,l),
(164,204,l)
);
},
{
closed = 1;
nodes = (
(730,0,l),
(730,30,l),
(383,30,l),
(383,0,l)
);
},
{
closed = 1;
nodes = (
(106,15,l),
(342,604,l),
(394,763,l),
(368,763,l),
(73,15,l)
);
},
{
closed = 1;
nodes = (
(401,-260,o),
(438,-223,o),
(438,-180,cs),
(438,-136,o),
(401,-99,o),
(357,-99,cs),
(314,-99,o),
(277,-136,o),
(277,-180,cs),
(277,-223,o),
(314,-260,o),
(357,-260,cs)
);
},
{
closed = 1;
nodes = (
(476,825,o),
(529,885,o),
(529,962,c),
(485,962,l),
(482,932,o),
(432,918,o),
(381,918,cs),
(331,918,o),
(283,930,o),
(280,962,c),
(236,962,l),
(236,881,o),
(293,825,o),
(383,825,cs)
);
}
);
};
layerId = "3AE1663F-34E8-4710-91A2-69F84C961E5F";
shapes = (
{
ref = A;
},
{
pos = (65,0);
ref = dotbelowcomb;
},
{
pos = (206,41);
ref = brevecomb.case;
}
);
width = 715;
}
);
unicode = 7862;
},
{
glyphname = Abrevegrave;
kernLeft = A;
kernRight = A;
lastChange = "2023-02-02 17:07:23 +0000";
layers = (
{
background = {
anchors = (
{
name = bottom;
pos = (343,0);
},
{
name = ogonek;
pos = (590,44);
},
{
name = top;
pos = (343,1152);
}
);
shapes = (
{
closed = 1;
nodes = (
(612,15,l),
(361,766,l),
(331,766,l),
(283,594,l),
(290,565,l),
(294,565,l),
(478,15,l)
);
},
{
closed = 1;
nodes = (
(224,0,l),
(224,25,l),
(-16,25,l),
(-16,0,l)
);
},
{
closed = 1;
nodes = (
(503,236,l),
(503,261,l),
(179,261,l),
(179,236,l)
);
},
{
closed = 1;
nodes = (
(701,0,l),
(701,25,l),
(358,25,l),
(358,0,l)
);
},
{
closed = 1;
nodes = (
(103,15,l),
(300,594,l),
(361,766,l),
(331,766,l),
(70,15,l)
);
},
{
closed = 1;
nodes = (
(449,820,o),
(479,875,o),
(479,952,c),
(445,952,l),
(442,908,o),
(412,888,o),
(341,888,cs),
(271,888,o),
(243,906,o),
(240,952,c),
(206,952,l),
(206,871,o),
(240,820,o),
(343,820,cs)
);
},
{
closed = 1;
nodes = (
(477,1020,l),
(326,1116,ls),
(279,1146,o),
(267,1152,o),
(253,1152,cs),
(225,1152,o),
(209,1135,o),
(209,1109,cs),
(209,1083,o),
(226,1063,o),
(259,1056,cs),
(434,1020,l)
);
}
);
};
layerId = UUID0;
shapes = (
{
ref = A;
},
{
pos = (176,304);
ref = brevecomb_gravecomb;
}
);
width = 686;
},
{
background = {
anchors = (
{
name = bottom;
pos = (358,0);
},
{
name = ogonek;
pos = (643,10);
},
{
name = top;
pos = (383,1192);
}
);
shapes = (
{
closed = 1;
nodes = (
(666,15,l),
(394,763,l),
(368,763,l),
(300,553,l),
(306,516,l),
(310,516,l),
(493,15,l)
);
},
{
closed = 1;
nodes = (
(229,0,l),
(229,30,l),
(-15,30,l),
(-15,0,l)
);
},
{
closed = 1;
nodes = (
(508,204,l),
(508,233,l),
(164,233,l),
(164,204,l)
);
},
{
closed = 1;
nodes = (
(730,0,l),
(730,30,l),
(383,30,l),
(383,0,l)
);
},
{
closed = 1;
nodes = (
(106,15,l),
(342,604,l),
(394,763,l),
(368,763,l),
(73,15,l)
);
},
{
closed = 1;
nodes = (
(476,825,o),
(529,885,o),
(529,962,c),
(485,962,l),
(482,932,o),
(432,918,o),
(381,918,cs),
(331,918,o),
(283,930,o),
(280,962,c),
(236,962,l),
(236,881,o),
(293,825,o),
(383,825,cs)
);
},
{
closed = 1;
nodes = (
(529,1038,l),
(368,1142,ls),
(333,1165,o),
(315,1175,o),
(286,1175,cs),
(253,1175,o),
(236,1153,o),
(236,1129,cs),
(236,1106,o),
(245,1082,o),
(289,1073,cs),
(466,1038,l)
);
}
);
};
layerId = "3AE1663F-34E8-4710-91A2-69F84C961E5F";
shapes = (
{
ref = A;
},
{
pos = (85,304);
ref = brevecomb_gravecomb;
}
);
width = 715;
}
);
unicode = 7856;
},
{
glyphname = Abrevehookabove;
kernLeft = A;
kernRight = A;
lastChange = "2023-02-02 17:07:23 +0000";
layers = (
{
background = {
anchors = (
{
name = bottom;
pos = (343,0);
},
{
name = ogonek;
pos = (590,44);
},
{
name = top;
pos = (343,1172);
}
);
shapes = (
{
closed = 1;
nodes = (
(612,15,l),
(361,766,l),
(331,766,l),
(283,594,l),
(290,565,l),
(294,565,l),
(478,15,l)
);
},
{
closed = 1;
nodes = (
(224,0,l),
(224,25,l),
(-16,25,l),
(-16,0,l)
);
},
{
closed = 1;
nodes = (
(503,236,l),
(503,261,l),
(179,261,l),
(179,236,l)
);
},
{
closed = 1;
nodes = (
(701,0,l),
(701,25,l),
(358,25,l),
(358,0,l)
);
},
{
closed = 1;
nodes = (
(103,15,l),
(300,594,l),
(361,766,l),
(331,766,l),
(70,15,l)
);
},
{
closed = 1;
nodes = (
(449,820,o),
(479,875,o),
(479,952,c),
(445,952,l),
(442,908,o),
(412,888,o),
(341,888,cs),
(271,888,o),
(243,906,o),
(240,952,c),
(206,952,l),
(206,871,o),
(240,820,o),
(343,820,cs)
);
},
{
closed = 1;
nodes = (
(363,956,l),
(375,982,o),
(432,992,o),
(432,1032,cs),
(432,1089,o),
(392,1115,o),
(332,1115,cs),
(288,1115,o),
(239,1094,o),
(239,1035,cs),
(239,1015,o),
(255,1000,o),
(278,1000,cs),
(299,1000,o),
(310,1008,o),
(310,1022,cs),
(310,1040,o),
(297,1038,o),
(297,1050,cs),
(297,1065,o),
(313,1075,o),
(334,1075,cs),
(354,1075,o),
(373,1068,o),
(373,1030,cs),
(373,1006,o),
(336,992,o),
(336,956,c)
);
}
);
};
layerId = UUID0;
shapes = (
{
ref = A;
},
{
pos = (176,304);
ref = brevecomb_hookabovecomb;
}
);
width = 686;
},
{
background = {
anchors = (
{
name = bottom;
pos = (358,0);
},
{
name = ogonek;
pos = (643,10);
},
{
name = top;
pos = (383,1202);
}
);
shapes = (
{
closed = 1;
nodes = (
(666,15,l),
(394,763,l),
(368,763,l),
(300,553,l),
(306,516,l),
(310,516,l),
(493,15,l)
);
},
{
closed = 1;
nodes = (
(229,0,l),
(229,30,l),
(-15,30,l),
(-15,0,l)
);
},
{
closed = 1;
nodes = (
(508,204,l),
(508,233,l),
(164,233,l),
(164,204,l)
);
},
{
closed = 1;
nodes = (
(730,0,l),
(730,30,l),
(383,30,l),
(383,0,l)
);
},
{
closed = 1;
nodes = (
(106,15,l),
(342,604,l),
(394,763,l),
(368,763,l),
(73,15,l)
);
},
{
closed = 1;
nodes = (
(476,825,o),
(529,885,o),
(529,962,c),
(485,962,l),
(482,932,o),
(432,918,o),
(381,918,cs),
(331,918,o),
(283,930,o),
(280,962,c),
(236,962,l),
(236,881,o),
(293,825,o),
(383,825,cs)
);
},
{
closed = 1;
nodes = (
(396,964,l),
(396,1014,o),
(470,995,o),
(470,1057,cs),
(470,1128,o),
(435,1157,o),
(362,1157,cs),
(302,1157,o),
(255,1130,o),
(255,1065,cs),
(255,1035,o),
(275,1016,o),
(299,1016,cs),
(316,1016,o),
(338,1023,o),
(338,1042,cs),
(338,1070,o),
(317,1058,o),
(317,1082,cs),
(317,1096,o),
(334,1114,o),
(362,1114,cs),
(391,1114,o),
(408,1098,o),
(408,1066,cs),
(408,1042,o),
(357,1034,o),
(357,964,c)
);
}
);
};
layerId = "3AE1663F-34E8-4710-91A2-69F84C961E5F";
shapes = (
{
ref = A;
},
{
pos = (85,304);
ref = brevecomb_hookabovecomb;
}
);
width = 715;
}
);
unicode = 7858;
},
{
glyphname = Abrevetilde;
kernLeft = A;
kernRight = A;
lastChange = "2023-02-02 17:07:23 +0000";
layers = (
{
background = {
anchors = (
{
name = bottom;
pos = (343,0);
},
{
name = ogonek;
pos = (590,44);
},
{
name = top;
pos = (343,1155);
}
);
shapes = (
{
closed = 1;
nodes = (
(612,15,l),
(361,766,l),
(331,766,l),
(283,594,l),
(290,565,l),
(294,565,l),
(478,15,l)
);
},
{
closed = 1;
nodes = (
(224,0,l),
(224,25,l),
(-16,25,l),
(-16,0,l)
);
},
{
closed = 1;
nodes = (
(503,236,l),
(503,261,l),
(179,261,l),
(179,236,l)
);
},
{
closed = 1;
nodes = (
(701,0,l),
(701,25,l),
(358,25,l),
(358,0,l)
);
},
{
closed = 1;
nodes = (
(103,15,l),
(300,594,l),
(361,766,l),
(331,766,l),
(70,15,l)
);
},
{
closed = 1;
nodes = (
(449,820,o),
(479,875,o),
(479,952,c),
(445,952,l),
(442,908,o),
(412,888,o),
(341,888,cs),
(271,888,o),
(243,906,o),
(240,952,c),
(206,952,l),
(206,871,o),
(240,820,o),
(343,820,cs)
);
},
{
closed = 1;
nodes = (
(200,990,l),
(207,1018,o),
(230,1039,o),
(263,1039,cs),
(310,1039,o),
(344,991,o),
(400,991,cs),
(469,991,o),
(505,1055,o),
(519,1118,c),
(485,1118,l),
(478,1097,o),
(460,1067,o),
(422,1067,cs),
(376,1067,o),
(339,1115,o),
(285,1115,cs),
(219,1115,o),
(177,1052,o),
(167,990,c)
);
}
);
};
layerId = UUID0;
shapes = (
{
ref = A;
},
{
pos = (137,304);
ref = brevecomb_tildecomb;
}
);
width = 686;
},
{
background = {
anchors = (
{
name = bottom;
pos = (358,0);
},
{
name = ogonek;
pos = (643,10);
},
{
name = top;
pos = (383,1165);
}
);
shapes = (
{
closed = 1;
nodes = (
(666,15,l),
(394,763,l),
(368,763,l),
(300,553,l),
(306,516,l),
(310,516,l),
(493,15,l)
);
},
{
closed = 1;
nodes = (
(229,0,l),
(229,30,l),
(-15,30,l),
(-15,0,l)
);
},
{
closed = 1;
nodes = (
(508,204,l),
(508,233,l),
(164,233,l),
(164,204,l)
);
},
{
closed = 1;
nodes = (
(730,0,l),
(730,30,l),
(383,30,l),
(383,0,l)
);
},
{
closed = 1;
nodes = (
(106,15,l),
(342,604,l),
(394,763,l),
(368,763,l),
(73,15,l)
);
},
{
closed = 1;
nodes = (
(476,825,o),
(529,885,o),
(529,962,c),
(485,962,l),
(482,932,o),
(432,918,o),
(381,918,cs),
(331,918,o),
(283,930,o),
(280,962,c),
(236,962,l),
(236,881,o),
(293,825,o),
(383,825,cs)
);
},
{
closed = 1;
nodes = (
(220,1008,l),
(229,1032,o),
(260,1049,o),
(303,1049,cs),
(350,1049,o),
(384,1009,o),
(440,1009,cs),
(521,1009,o),
(563,1077,o),
(579,1145,c),
(545,1145,l),
(536,1128,o),
(512,1105,o),
(462,1105,cs),
(416,1105,o),
(379,1145,o),
(325,1145,cs),
(247,1145,o),
(199,1075,o),
(187,1008,c)
);
}
);
};
layerId = "3AE1663F-34E8-4710-91A2-69F84C961E5F";
shapes = (
{
ref = A;
},
{
pos = (85,304);
ref = brevecomb_tildecomb;
}
);
width = 715;
}
);
unicode = 7860;
},
{
glyphname = Acircumflex;
kernLeft = A;
kernRight = A;
lastChange = "2023-02-02 17:07:23 +0000";
layers = (
{
background = {
anchors = (
{
name = bottom;
pos = (343,0);
},
{
name = ogonek;
pos = (590,44);
},
{
name = top;
pos = (343,881);
}
);
shapes = (
{
closed = 1;
nodes = (
(612,15,l),
(361,766,l),
(331,766,l),
(283,594,l),
(290,565,l),
(294,565,l),
(478,15,l)
);
},
{
closed = 1;
nodes = (
(224,0,l),
(224,25,l),
(-16,25,l),
(-16,0,l)
);
},
{
closed = 1;
nodes = (
(503,236,l),
(503,261,l),
(179,261,l),
(179,236,l)
);
},
{
closed = 1;
nodes = (
(701,0,l),
(701,25,l),
(358,25,l),
(358,0,l)
);
},
{
closed = 1;
nodes = (
(103,15,l),
(300,594,l),
(361,766,l),
(331,766,l),
(70,15,l)
);
},
{
closed = 1;
nodes = (
(234,824,l),
(343,875,l),
(452,824,l),
(495,824,l),
(374,936,l),
(312,936,l),
(191,824,l)
);
}
);
};
layerId = UUID0;
shapes = (
{
ref = A;
},
{
pos = (171,11);
ref = circumflexcomb.case;
}
);
width = 686;
},
{
background = {
anchors = (
{
name = bottom;
pos = (358,0);
},
{
name = ogonek;
pos = (643,10);
},
{
name = top;
pos = (383,893);
}
);
shapes = (
{
closed = 1;
nodes = (
(666,15,l),
(394,763,l),
(368,763,l),
(300,553,l),
(306,516,l),
(310,516,l),
(493,15,l)
);
},
{
closed = 1;
nodes = (
(229,0,l),
(229,30,l),
(-15,30,l),
(-15,0,l)
);
},
{
closed = 1;
nodes = (
(508,204,l),
(508,233,l),
(164,233,l),
(164,204,l)
);
},
{
closed = 1;
nodes = (
(730,0,l),
(730,30,l),
(383,30,l),
(383,0,l)
);
},
{
closed = 1;
nodes = (
(106,15,l),
(342,604,l),
(394,763,l),
(368,763,l),
(73,15,l)
);
},
{
closed = 1;
nodes = (
(264,827,l),
(383,869,l),
(502,827,l),
(555,827,l),
(414,943,l),
(352,943,l),
(211,827,l)
);
}
);
};
layerId = "3AE1663F-34E8-4710-91A2-69F84C961E5F";
shapes = (
{
ref = A;
},
{
pos = (171,20);
ref = circumflexcomb.case;
}
);
width = 715;
}
);
unicode = 194;
},
{
glyphname = Acircumflexacute;
kernLeft = A;
kernRight = A;
lastChange = "2023-02-02 17:07:23 +0000";
layers = (
{
background = {
anchors = (
{
name = bottom;
pos = (343,0);
},
{
name = ogonek;
pos = (590,44);
},
{
name = top;
pos = (343,1161);
}
);
shapes = (
{
closed = 1;
nodes = (
(612,15,l),
(361,766,l),
(331,766,l),
(283,594,l),
(290,565,l),
(294,565,l),
(478,15,l)
);
},
{
closed = 1;
nodes = (
(224,0,l),
(224,25,l),
(-16,25,l),
(-16,0,l)
);
},
{
closed = 1;
nodes = (
(503,236,l),
(503,261,l),
(179,261,l),
(179,236,l)
);
},
{
closed = 1;
nodes = (
(701,0,l),
(701,25,l),
(358,25,l),
(358,0,l)
);
},
{
closed = 1;
nodes = (
(103,15,l),
(300,594,l),
(361,766,l),
(331,766,l),
(70,15,l)
);
},
{
closed = 1;
nodes = (
(234,824,l),
(343,875,l),
(452,824,l),
(495,824,l),
(374,936,l),
(312,936,l),
(191,824,l)
);
},
{
closed = 1;
nodes = (
(252,954,l),
(427,990,ls),
(460,997,o),
(477,1017,o),
(477,1043,cs),
(477,1069,o),
(461,1086,o),
(433,1086,cs),
(419,1086,o),
(407,1080,o),
(360,1050,cs),
(209,954,l)
);
}
);
};
layerId = UUID0;
shapes = (
{
ref = A;
},
{
pos = (53,304);
ref = circumflexcomb_acutecomb;
}
);
width = 686;
},
{
background = {
anchors = (
{
name = bottom;
pos = (358,0);
},
{
name = ogonek;
pos = (643,10);
},
{
name = top;
pos = (383,1169);
}
);
shapes = (
{
closed = 1;
nodes = (
(666,15,l),
(394,763,l),
(368,763,l),
(300,553,l),
(306,516,l),
(310,516,l),
(493,15,l)
);
},
{
closed = 1;
nodes = (
(229,0,l),
(229,30,l),
(-15,30,l),
(-15,0,l)
);
},
{
closed = 1;
nodes = (
(508,204,l),
(508,233,l),
(164,233,l),
(164,204,l)
);
},
{
closed = 1;
nodes = (
(730,0,l),
(730,30,l),
(383,30,l),
(383,0,l)
);
},
{
closed = 1;
nodes = (
(106,15,l),
(342,604,l),
(394,763,l),
(368,763,l),
(73,15,l)
);
},
{
closed = 1;
nodes = (
(264,827,l),
(383,869,l),
(502,827,l),
(555,827,l),
(414,943,l),
(352,943,l),
(211,827,l)
);
},
{
closed = 1;
nodes = (
(299,979,l),
(476,1014,ls),
(520,1023,o),
(529,1047,o),
(529,1070,cs),
(529,1094,o),
(512,1116,o),
(479,1116,cs),
(450,1116,o),
(432,1106,o),
(397,1083,cs),
(236,979,l)
);
}
);
};
layerId = "3AE1663F-34E8-4710-91A2-69F84C961E5F";
shapes = (
{
ref = A;
},
{
pos = (87,304);
ref = circumflexcomb_acutecomb;
}
);
width = 715;
}
);
unicode = 7844;
},
{
glyphname = Acircumflexdotbelow;
kernLeft = A;
kernRight = A;
lastChange = "2023-02-02 17:07:23 +0000";
layers = (
{
background = {
anchors = (
{
name = bottom;
pos = (343,-231);
},
{
name = ogonek;
pos = (590,44);
},
{
name = top;
pos = (343,881);
}
);
shapes = (
{
closed = 1;
nodes = (
(612,15,l),
(361,766,l),
(331,766,l),
(283,594,l),
(290,565,l),
(294,565,l),
(478,15,l)
);
},
{
closed = 1;
nodes = (
(224,0,l),
(224,25,l),
(-16,25,l),
(-16,0,l)
);
},
{
closed = 1;
nodes = (
(503,236,l),
(503,261,l),
(179,261,l),
(179,236,l)
);
},
{
closed = 1;
nodes = (
(701,0,l),
(701,25,l),
(358,25,l),
(358,0,l)
);
},
{
closed = 1;
nodes = (
(103,15,l),
(300,594,l),
(361,766,l),
(331,766,l),
(70,15,l)
);
},
{
closed = 1;
nodes = (
(379,-231,o),
(409,-201,o),
(409,-165,cs),
(409,-129,o),
(379,-99,o),
(343,-99,cs),
(307,-99,o),
(277,-129,o),
(277,-165,cs),
(277,-201,o),
(307,-231,o),
(343,-231,cs)
);
},
{
closed = 1;
nodes = (
(234,824,l),
(343,875,l),
(452,824,l),
(495,824,l),
(374,936,l),
(312,936,l),
(191,824,l)
);
}
);
};
layerId = UUID0;
shapes = (
{
ref = A;
},
{
pos = (59,0);
ref = dotbelowcomb;
},
{
pos = (171,11);
ref = circumflexcomb.case;
}
);
width = 686;
},
{
background = {
anchors = (
{
name = bottom;
pos = (358,-260);
},
{
name = ogonek;
pos = (643,10);
},
{
name = top;
pos = (383,893);
}
);
shapes = (
{
closed = 1;
nodes = (
(666,15,l),
(394,763,l),
(368,763,l),
(300,553,l),
(306,516,l),
(310,516,l),
(493,15,l)
);
},
{
closed = 1;
nodes = (
(229,0,l),
(229,30,l),
(-15,30,l),
(-15,0,l)
);
},
{
closed = 1;
nodes = (
(508,204,l),
(508,233,l),
(164,233,l),
(164,204,l)
);
},
{
closed = 1;
nodes = (
(730,0,l),
(730,30,l),
(383,30,l),
(383,0,l)
);
},
{
closed = 1;
nodes = (
(106,15,l),
(342,604,l),
(394,763,l),
(368,763,l),
(73,15,l)
);
},
{
closed = 1;
nodes = (
(401,-260,o),
(438,-223,o),
(438,-180,cs),
(438,-136,o),
(401,-99,o),
(357,-99,cs),
(314,-99,o),
(277,-136,o),
(277,-180,cs),
(277,-223,o),
(314,-260,o),
(357,-260,cs)
);
},
{
closed = 1;
nodes = (
(264,827,l),
(383,869,l),
(502,827,l),
(555,827,l),
(414,943,l),
(352,943,l),
(211,827,l)
);
}
);
};
layerId = "3AE1663F-34E8-4710-91A2-69F84C961E5F";
shapes = (
{
ref = A;
},
{
pos = (65,0);
ref = dotbelowcomb;
},
{
pos = (171,20);
ref = circumflexcomb.case;
}
);
width = 715;
}
);
unicode = 7852;
},
{
glyphname = Acircumflexgrave;
kernLeft = A;
kernRight = A;
lastChange = "2023-02-02 17:07:23 +0000";
layers = (
{
background = {
anchors = (
{
name = bottom;
pos = (343,0);
},
{
name = ogonek;
pos = (590,44);
},
{
name = top;
pos = (343,1156);
}
);
shapes = (
{
closed = 1;
nodes = (
(612,15,l),
(361,766,l),
(331,766,l),
(283,594,l),
(290,565,l),
(294,565,l),
(478,15,l)
);
},
{
closed = 1;
nodes = (
(224,0,l),
(224,25,l),
(-16,25,l),
(-16,0,l)
);
},
{
closed = 1;
nodes = (
(503,236,l),
(503,261,l),
(179,261,l),
(179,236,l)
);
},
{
closed = 1;
nodes = (
(701,0,l),
(701,25,l),
(358,25,l),
(358,0,l)
);
},
{
closed = 1;
nodes = (
(103,15,l),
(300,594,l),
(361,766,l),
(331,766,l),
(70,15,l)
);
},
{
closed = 1;
nodes = (
(234,824,l),
(343,875,l),
(452,824,l),
(495,824,l),
(374,936,l),
(312,936,l),
(191,824,l)
);
},
{
closed = 1;
nodes = (
(477,949,l),
(326,1045,ls),
(279,1075,o),
(267,1081,o),
(253,1081,cs),
(225,1081,o),
(209,1064,o),
(209,1038,cs),
(209,1012,o),
(226,992,o),
(259,985,cs),
(434,949,l)
);
}
);
};
layerId = UUID0;
shapes = (
{
ref = A;
},
{
pos = (53,304);
ref = circumflexcomb_gravecomb;
}
);
width = 686;
},
{
background = {
anchors = (
{
name = bottom;
pos = (358,0);
},
{
name = ogonek;
pos = (643,10);
},
{
name = top;
pos = (383,1193);
}
);
shapes = (
{
closed = 1;
nodes = (
(666,15,l),
(394,763,l),
(368,763,l),
(300,553,l),
(306,516,l),
(310,516,l),
(493,15,l)
);
},
{
closed = 1;
nodes = (
(229,0,l),
(229,30,l),
(-15,30,l),
(-15,0,l)
);
},
{
closed = 1;
nodes = (
(508,204,l),
(508,233,l),
(164,233,l),
(164,204,l)
);
},
{
closed = 1;
nodes = (
(730,0,l),
(730,30,l),
(383,30,l),
(383,0,l)
);
},
{
closed = 1;
nodes = (
(106,15,l),
(342,604,l),
(394,763,l),
(368,763,l),
(73,15,l)
);
},
{
closed = 1;
nodes = (
(264,827,l),
(383,869,l),
(502,827,l),
(555,827,l),
(414,943,l),
(352,943,l),
(211,827,l)
);
},
{
closed = 1;
nodes = (
(529,986,l),
(368,1090,ls),
(333,1113,o),
(315,1123,o),
(286,1123,cs),
(253,1123,o),
(236,1101,o),
(236,1077,cs),
(236,1054,o),
(245,1030,o),
(289,1021,cs),
(466,986,l)
);
}
);
};
layerId = "3AE1663F-34E8-4710-91A2-69F84C961E5F";
shapes = (
{
ref = A;
},
{
pos = (87,304);
ref = circumflexcomb_gravecomb;
}
);
width = 715;
}
);
unicode = 7846;
},
{
glyphname = Acircumflexhookabove;
kernLeft = A;
kernRight = A;
lastChange = "2023-02-02 17:07:23 +0000";
layers = (
{
background = {
anchors = (
{
name = bottom;
pos = (343,0);
},
{
name = ogonek;
pos = (590,44);
},
{
name = top;
pos = (343,1176);
}
);
shapes = (
{
closed = 1;
nodes = (
(612,15,l),
(361,766,l),
(331,766,l),
(283,594,l),
(290,565,l),
(294,565,l),
(478,15,l)
);
},
{
closed = 1;
nodes = (
(224,0,l),
(224,25,l),
(-16,25,l),
(-16,0,l)
);
},
{
closed = 1;
nodes = (
(503,236,l),
(503,261,l),
(179,261,l),
(179,236,l)
);
},
{
closed = 1;
nodes = (
(701,0,l),
(701,25,l),
(358,25,l),
(358,0,l)
);
},
{
closed = 1;
nodes = (
(103,15,l),
(300,594,l),
(361,766,l),
(331,766,l),
(70,15,l)
);
},
{
closed = 1;
nodes = (
(234,824,l),
(343,875,l),
(452,824,l),
(495,824,l),
(374,936,l),
(312,936,l),
(191,824,l)
);
},
{
closed = 1;
nodes = (
(488,933,l),
(500,959,o),
(557,969,o),
(557,1009,cs),
(557,1066,o),
(517,1092,o),
(457,1092,cs),
(413,1092,o),
(364,1071,o),
(364,1012,cs),
(364,992,o),
(380,977,o),
(403,977,cs),
(424,977,o),
(435,985,o),
(435,999,cs),
(435,1017,o),
(422,1015,o),
(422,1027,cs),
(422,1042,o),
(438,1052,o),
(459,1052,cs),
(479,1052,o),
(498,1045,o),
(498,1007,cs),
(498,983,o),
(461,969,o),
(461,933,c)
);
}
);
};
layerId = UUID0;
shapes = (
{
ref = A;
},
{
pos = (53,304);
ref = circumflexcomb_hookabovecomb;
}
);
width = 686;
},
{
background = {
anchors = (
{
name = bottom;
pos = (358,0);
},
{
name = ogonek;
pos = (643,10);
},
{
name = top;
pos = (383,1203);
}
);
shapes = (
{
closed = 1;
nodes = (
(666,15,l),
(394,763,l),
(368,763,l),
(300,553,l),
(306,516,l),
(310,516,l),
(493,15,l)
);
},
{
closed = 1;
nodes = (
(229,0,l),
(229,30,l),
(-15,30,l),
(-15,0,l)
);
},
{
closed = 1;
nodes = (
(508,204,l),
(508,233,l),
(164,233,l),
(164,204,l)
);
},
{
closed = 1;
nodes = (
(730,0,l),
(730,30,l),
(383,30,l),
(383,0,l)
);
},
{
closed = 1;
nodes = (
(106,15,l),
(342,604,l),
(394,763,l),
(368,763,l),
(73,15,l)
);
},
{
closed = 1;
nodes = (
(264,827,l),
(383,869,l),
(502,827,l),
(555,827,l),
(414,943,l),
(352,943,l),
(211,827,l)
);
},
{
closed = 1;
nodes = (
(553,945,l),
(553,995,o),
(627,976,o),
(627,1038,cs),
(627,1109,o),
(592,1138,o),
(519,1138,cs),
(459,1138,o),
(412,1111,o),
(412,1046,cs),
(412,1016,o),
(432,997,o),
(456,997,cs),
(473,997,o),
(495,1004,o),
(495,1023,cs),
(495,1051,o),
(474,1039,o),
(474,1063,cs),
(474,1077,o),
(491,1095,o),
(519,1095,cs),
(548,1095,o),
(565,1079,o),
(565,1047,cs),
(565,1023,o),
(514,1015,o),
(514,945,c)
);
}
);
};
layerId = "3AE1663F-34E8-4710-91A2-69F84C961E5F";
shapes = (
{
ref = A;
},
{
pos = (87,304);
ref = circumflexcomb_hookabovecomb;
}
);
width = 715;
}
);
unicode = 7848;
},
{
glyphname = Acircumflextilde;
kernLeft = A;
kernRight = A;
lastChange = "2023-02-02 17:07:23 +0000";
layers = (
{
background = {
anchors = (
{
name = bottom;
pos = (343,0);
},
{
name = ogonek;
pos = (590,44);
},
{
name = top;
pos = (343,1159);
}
);
shapes = (
{
closed = 1;
nodes = (
(612,15,l),
(361,766,l),
(331,766,l),
(283,594,l),
(290,565,l),
(294,565,l),
(478,15,l)
);
},
{
closed = 1;
nodes = (
(224,0,l),
(224,25,l),
(-16,25,l),
(-16,0,l)
);
},
{
closed = 1;
nodes = (
(503,236,l),
(503,261,l),
(179,261,l),
(179,236,l)
);
},
{
closed = 1;
nodes = (
(701,0,l),
(701,25,l),
(358,25,l),
(358,0,l)
);
},
{
closed = 1;
nodes = (
(103,15,l),
(300,594,l),
(361,766,l),
(331,766,l),
(70,15,l)
);
},
{
closed = 1;
nodes = (
(234,824,l),
(343,875,l),
(452,824,l),
(495,824,l),
(374,936,l),
(312,936,l),
(191,824,l)
);
},
{
closed = 1;
nodes = (
(200,989,l),
(207,1017,o),
(230,1038,o),
(263,1038,cs),
(310,1038,o),
(344,990,o),
(400,990,cs),
(469,990,o),
(505,1054,o),
(519,1117,c),
(485,1117,l),
(478,1096,o),
(460,1066,o),
(422,1066,cs),
(376,1066,o),
(339,1114,o),
(285,1114,cs),
(219,1114,o),
(177,1051,o),
(167,989,c)
);
}
);
};
layerId = UUID0;
shapes = (
{
ref = A;
},
{
pos = (53,304);
ref = circumflexcomb_tildecomb;
}
);
width = 686;
},
{
background = {
anchors = (
{
name = bottom;
pos = (358,0);
},
{
name = ogonek;
pos = (643,10);
},
{
name = top;
pos = (383,1166);
}
);
shapes = (
{
closed = 1;
nodes = (
(666,15,l),
(394,763,l),
(368,763,l),
(300,553,l),
(306,516,l),
(310,516,l),
(493,15,l)
);
},
{
closed = 1;
nodes = (
(229,0,l),
(229,30,l),
(-15,30,l),
(-15,0,l)
);
},
{
closed = 1;
nodes = (
(508,204,l),
(508,233,l),
(164,233,l),
(164,204,l)
);
},
{
closed = 1;
nodes = (
(730,0,l),
(730,30,l),
(383,30,l),
(383,0,l)
);
},
{
closed = 1;
nodes = (
(106,15,l),
(342,604,l),
(394,763,l),
(368,763,l),
(73,15,l)
);
},
{
closed = 1;
nodes = (
(264,827,l),
(383,869,l),
(502,827,l),
(555,827,l),
(414,943,l),
(352,943,l),
(211,827,l)
);
},
{
closed = 1;
nodes = (
(220,1003,l),
(229,1027,o),
(260,1044,o),
(303,1044,cs),
(350,1044,o),
(384,1004,o),
(440,1004,cs),
(521,1004,o),
(563,1072,o),
(579,1140,c),
(545,1140,l),
(536,1123,o),
(512,1100,o),
(462,1100,cs),
(416,1100,o),
(379,1140,o),
(325,1140,cs),
(247,1140,o),
(199,1070,o),
(187,1003,c)
);
}
);
};
layerId = "3AE1663F-34E8-4710-91A2-69F84C961E5F";
shapes = (
{
ref = A;
},
{
pos = (87,304);
ref = circumflexcomb_tildecomb;
}
);
width = 715;
}
);
unicode = 7850;
},
{
glyphname = Adblgrave;
kernLeft = A;
kernRight = A;
lastChange = "2023-02-02 17:07:23 +0000";
layers = (
{
background = {
anchors = (
{
name = bottom;
pos = (343,0);
},
{
name = ogonek;
pos = (590,44);
},
{
name = top;
pos = (343,924);
}
);
shapes = (
{
closed = 1;
nodes = (
(612,15,l),
(361,766,l),
(331,766,l),
(283,594,l),
(290,565,l),
(294,565,l),
(478,15,l)
);
},
{
closed = 1;
nodes = (
(224,0,l),
(224,25,l),
(-16,25,l),
(-16,0,l)
);
},
{
closed = 1;
nodes = (
(503,236,l),
(503,261,l),
(179,261,l),
(179,236,l)
);
},
{
closed = 1;
nodes = (
(701,0,l),
(701,25,l),
(358,25,l),
(358,0,l)
);
},
{
closed = 1;
nodes = (
(103,15,l),
(300,594,l),
(361,766,l),
(331,766,l),
(70,15,l)
);
},
{
closed = 1;
nodes = (
(546,792,l),
(428,884,ls),
(384,918,o),
(376,924,o),
(362,924,cs),
(334,924,o),
(318,907,o),
(318,881,cs),
(318,855,o),
(335,837,o),
(368,828,cs),
(503,792,l)
);
},
{
closed = 1;
nodes = (
(368,792,l),
(250,884,ls),
(206,918,o),
(198,924,o),
(184,924,cs),
(156,924,o),
(140,907,o),
(140,881,cs),
(140,855,o),
(157,837,o),
(190,828,cs),
(325,792,l)
);
}
);
};
layerId = UUID0;
shapes = (
{
ref = A;
},
{
pos = (130,0);
ref = dblgravecomb.case;
}
);
width = 686;
},
{
background = {
anchors = (
{
name = bottom;
pos = (358,0);
},
{
name = ogonek;
pos = (643,10);
},
{
name = top;
pos = (383,924);
}
);
shapes = (
{
closed = 1;
nodes = (
(666,15,l),
(394,763,l),
(368,763,l),
(300,553,l),
(306,516,l),
(310,516,l),
(493,15,l)
);
},
{
closed = 1;
nodes = (
(229,0,l),
(229,30,l),
(-15,30,l),
(-15,0,l)
);
},
{
closed = 1;
nodes = (
(508,204,l),
(508,233,l),
(164,233,l),
(164,204,l)
);
},
{
closed = 1;
nodes = (
(730,0,l),
(730,30,l),
(383,30,l),
(383,0,l)
);
},
{
closed = 1;
nodes = (
(106,15,l),
(342,604,l),
(394,763,l),
(368,763,l),
(73,15,l)
);
},
{
closed = 1;
nodes = (
(640,787,l),
(479,891,ls),
(444,914,o),
(426,924,o),
(397,924,cs),
(364,924,o),
(347,902,o),
(347,878,cs),
(347,855,o),
(356,831,o),
(400,822,cs),
(577,787,l)
);
},
{
closed = 1;
nodes = (
(418,787,l),
(257,891,ls),
(222,914,o),
(204,924,o),
(175,924,cs),
(142,924,o),
(125,902,o),
(125,878,cs),
(125,855,o),
(134,831,o),
(178,822,cs),
(355,787,l)
);
}
);
};
layerId = "3AE1663F-34E8-4710-91A2-69F84C961E5F";
shapes = (
{
ref = A;
},
{
pos = (115,0);
ref = dblgravecomb.case;
}
);
width = 715;
}
);
unicode = 512;
},
{
glyphname = Adieresis;
kernLeft = A;
kernRight = A;
lastChange = "2023-02-02 17:07:23 +0000";
layers = (
{
background = {
anchors = (
{
name = bottom;
pos = (343,0);
},
{
name = ogonek;
pos = (590,44);
},
{
name = top;
pos = (343,754);
}
);
shapes = (
{
closed = 1;
nodes = (
(612,15,l),
(361,766,l),
(331,766,l),
(283,594,l),
(290,565,l),
(294,565,l),
(478,15,l)
);
},
{
closed = 1;
nodes = (
(224,0,l),
(224,25,l),
(-16,25,l),
(-16,0,l)
);
},
{
closed = 1;
nodes = (
(503,236,l),
(503,261,l),
(179,261,l),
(179,236,l)
);
},
{
closed = 1;
nodes = (
(701,0,l),
(701,25,l),
(358,25,l),
(358,0,l)
);
},
{
closed = 1;
nodes = (
(103,15,l),
(300,594,l),
(361,766,l),
(331,766,l),
(70,15,l)
);
},
{
closed = 1;
nodes = (
(464,800,o),
(489,825,o),
(489,855,cs),
(489,885,o),
(464,910,o),
(434,910,cs),
(404,910,o),
(379,885,o),
(379,855,cs),
(379,825,o),
(404,800,o),
(434,800,cs)
);
},
{
closed = 1;
nodes = (
(274,800,o),
(299,825,o),
(299,855,cs),
(299,885,o),
(274,910,o),
(244,910,cs),
(214,910,o),
(189,885,o),
(189,855,cs),
(189,825,o),
(214,800,o),
(244,800,cs)
);
}
);
};
layerId = UUID0;
shapes = (
{
ref = A;
},
{
pos = (183,0);
ref = dieresiscomb.case;
}
);
width = 686;
},
{
background = {
anchors = (
{
name = bottom;
pos = (358,0);
},
{
name = ogonek;
pos = (643,10);
},
{
name = top;
pos = (383,754);
}
);
shapes = (
{
closed = 1;
nodes = (
(666,15,l),
(394,763,l),
(368,763,l),
(300,553,l),
(306,516,l),
(310,516,l),
(493,15,l)
);
},
{
closed = 1;
nodes = (
(229,0,l),
(229,30,l),
(-15,30,l),
(-15,0,l)
);
},
{
closed = 1;
nodes = (
(508,204,l),
(508,233,l),
(164,233,l),
(164,204,l)
);
},
{
closed = 1;
nodes = (
(730,0,l),
(730,30,l),
(383,30,l),
(383,0,l)
);
},
{
closed = 1;
nodes = (
(106,15,l),
(342,604,l),
(394,763,l),
(368,763,l),
(73,15,l)
);
},
{
closed = 1;
nodes = (
(515,792,o),
(545,822,o),
(545,858,cs),
(545,894,o),
(515,924,o),
(479,924,cs),
(443,924,o),
(413,894,o),
(413,858,cs),
(413,822,o),
(443,792,o),
(479,792,cs)
);
},
{
closed = 1;
nodes = (
(325,792,o),
(355,822,o),
(355,858,cs),
(355,894,o),
(325,924,o),
(289,924,cs),
(253,924,o),
(223,894,o),
(223,858,cs),
(223,822,o),
(253,792,o),
(289,792,cs)
);
}
);
};
layerId = "3AE1663F-34E8-4710-91A2-69F84C961E5F";
shapes = (
{
ref = A;
},
{
pos = (212,0);
ref = dieresiscomb.case;
}
);
width = 715;
}
);
unicode = 196;
},
{
glyphname = Adotbelow;
kernLeft = A;
kernRight = A;
lastChange = "2023-02-02 17:07:23 +0000";
layers = (
{
background = {
anchors = (
{
name = bottom;
pos = (343,-231);
},
{
name = ogonek;
pos = (590,44);
},
{
name = top;
pos = (343,754);
}
);
shapes = (
{
closed = 1;
nodes = (
(612,15,l),
(361,766,l),
(331,766,l),
(283,594,l),
(290,565,l),
(294,565,l),
(478,15,l)
);
},
{
closed = 1;
nodes = (
(224,0,l),
(224,25,l),
(-16,25,l),
(-16,0,l)
);
},
{
closed = 1;
nodes = (
(503,236,l),
(503,261,l),
(179,261,l),
(179,236,l)
);
},
{
closed = 1;
nodes = (
(701,0,l),
(701,25,l),
(358,25,l),
(358,0,l)
);
},
{
closed = 1;
nodes = (
(103,15,l),
(300,594,l),
(361,766,l),
(331,766,l),
(70,15,l)
);
},
{
closed = 1;
nodes = (
(379,-231,o),
(409,-201,o),
(409,-165,cs),
(409,-129,o),
(379,-99,o),
(343,-99,cs),
(307,-99,o),
(277,-129,o),
(277,-165,cs),
(277,-201,o),
(307,-231,o),
(343,-231,cs)
);
}
);
};
layerId = UUID0;
shapes = (
{
ref = A;
},
{
pos = (59,0);
ref = dotbelowcomb;
}
);
width = 686;
},
{
background = {
anchors = (
{
name = bottom;
pos = (358,-260);
},
{
name = ogonek;
pos = (643,10);
},
{
name = top;
pos = (383,754);
}
);
shapes = (
{
closed = 1;
nodes = (
(666,15,l),
(394,763,l),
(368,763,l),
(300,553,l),
(306,516,l),
(310,516,l),
(493,15,l)
);
},
{
closed = 1;
nodes = (
(229,0,l),
(229,30,l),
(-15,30,l),
(-15,0,l)
);
},
{
closed = 1;
nodes = (
(508,204,l),
(508,233,l),
(164,233,l),
(164,204,l)
);
},
{
closed = 1;
nodes = (
(730,0,l),
(730,30,l),
(383,30,l),
(383,0,l)
);
},
{
closed = 1;
nodes = (
(106,15,l),
(342,604,l),
(394,763,l),
(368,763,l),
(73,15,l)
);
},
{
closed = 1;
nodes = (
(401,-260,o),
(438,-223,o),
(438,-180,cs),
(438,-136,o),
(401,-99,o),
(357,-99,cs),
(314,-99,o),
(277,-136,o),
(277,-180,cs),
(277,-223,o),
(314,-260,o),
(357,-260,cs)
);
}
);
};
layerId = "3AE1663F-34E8-4710-91A2-69F84C961E5F";
shapes = (
{
ref = A;
},
{
pos = (65,0);
ref = dotbelowcomb;
}
);
width = 715;
}
);
unicode = 7840;
},
{
glyphname = Agrave;
kernLeft = A;
kernRight = A;
lastChange = "2023-02-02 17:07:23 +0000";
layers = (
{
background = {
anchors = (
{
name = bottom;
pos = (343,0);
},
{
name = ogonek;
pos = (590,44);
},
{
name = top;
pos = (343,954);
}
);
shapes = (
{
closed = 1;
nodes = (
(612,15,l),
(361,766,l),
(331,766,l),
(283,594,l),
(290,565,l),
(294,565,l),
(478,15,l)
);
},
{
closed = 1;
nodes = (
(224,0,l),
(224,25,l),
(-16,25,l),
(-16,0,l)
);
},
{
closed = 1;
nodes = (
(503,236,l),
(503,261,l),
(179,261,l),
(179,236,l)
);
},
{
closed = 1;
nodes = (
(701,0,l),
(701,25,l),
(358,25,l),
(358,0,l)
);
},
{
closed = 1;
nodes = (
(103,15,l),
(300,594,l),
(361,766,l),
(331,766,l),
(70,15,l)
);
},
{
closed = 1;
nodes = (
(477,822,l),
(326,918,ls),
(279,948,o),
(267,954,o),
(253,954,cs),
(225,954,o),
(209,937,o),
(209,911,cs),
(209,885,o),
(226,865,o),
(259,858,cs),
(434,822,l)
);
}
);
};
layerId = UUID0;
shapes = (
{
ref = A;
},
{
pos = (199,30);
ref = gravecomb.case;
}
);
width = 686;
},
{
background = {
anchors = (
{
name = bottom;
pos = (358,0);
},
{
name = ogonek;
pos = (643,10);
},
{
name = top;
pos = (383,984);
}
);
shapes = (
{
closed = 1;
nodes = (
(666,15,l),
(394,763,l),
(368,763,l),
(300,553,l),
(306,516,l),
(310,516,l),
(493,15,l)
);
},
{
closed = 1;
nodes = (
(229,0,l),
(229,30,l),
(-15,30,l),
(-15,0,l)
);
},
{
closed = 1;
nodes = (
(508,204,l),
(508,233,l),
(164,233,l),
(164,204,l)
);
},
{
closed = 1;
nodes = (
(730,0,l),
(730,30,l),
(383,30,l),
(383,0,l)
);
},
{
closed = 1;
nodes = (
(106,15,l),
(342,604,l),
(394,763,l),
(368,763,l),
(73,15,l)
);
},
{
closed = 1;
nodes = (
(529,847,l),
(368,951,ls),
(333,974,o),
(315,984,o),
(286,984,cs),
(253,984,o),
(236,962,o),
(236,938,cs),
(236,915,o),
(245,891,o),
(289,882,cs),
(466,847,l)
);
}
);
};
layerId = "3AE1663F-34E8-4710-91A2-69F84C961E5F";
shapes = (
{
ref = A;
},
{
pos = (226,60);
ref = gravecomb.case;
}
);
width = 715;
}
);
unicode = 192;
},
{
glyphname = Ahookabove;
kernLeft = A;
kernRight = A;
lastChange = "2023-02-02 17:07:23 +0000";
layers = (
{
background = {
anchors = (
{
name = bottom;
pos = (343,0);
},
{
name = ogonek;
pos = (590,44);
},
{
name = top;
pos = (343,963);
}
);
shapes = (
{
closed = 1;
nodes = (
(612,15,l),
(361,766,l),
(331,766,l),
(283,594,l),
(290,565,l),
(294,565,l),
(478,15,l)
);
},
{
closed = 1;
nodes = (
(224,0,l),
(224,25,l),
(-16,25,l),
(-16,0,l)
);
},
{
closed = 1;
nodes = (
(503,236,l),
(503,261,l),
(179,261,l),
(179,236,l)
);
},
{
closed = 1;
nodes = (
(701,0,l),
(701,25,l),
(358,25,l),
(358,0,l)
);
},
{
closed = 1;
nodes = (
(103,15,l),
(300,594,l),
(361,766,l),
(331,766,l),
(70,15,l)
);
},
{
closed = 1;
nodes = (
(370,828,l),
(382,854,o),
(439,864,o),
(439,904,cs),
(439,961,o),
(399,987,o),
(339,987,cs),
(295,987,o),
(246,966,o),
(246,907,cs),
(246,887,o),
(262,872,o),
(285,872,cs),
(306,872,o),
(317,880,o),
(317,894,cs),
(317,912,o),
(304,910,o),
(304,922,cs),
(304,937,o),
(320,947,o),
(341,947,cs),
(361,947,o),
(380,940,o),
(380,902,cs),
(380,878,o),
(343,864,o),
(343,828,c)
);
}
);
};
layerId = UUID0;
shapes = (
{
ref = A;
},
{
pos = (58,284);
ref = hookabovecomb;
}
);
width = 686;
},
{
background = {
anchors = (
{
name = bottom;
pos = (358,0);
},
{
name = ogonek;
pos = (643,10);
},
{
name = top;
pos = (380,992);
}
);
shapes = (
{
closed = 1;
nodes = (
(666,15,l),
(394,763,l),
(368,763,l),
(300,553,l),
(306,516,l),
(310,516,l),
(493,15,l)
);
},
{
closed = 1;
nodes = (
(229,0,l),
(229,30,l),
(-15,30,l),
(-15,0,l)
);
},
{
closed = 1;
nodes = (
(508,204,l),
(508,233,l),
(164,233,l),
(164,204,l)
);
},
{
closed = 1;
nodes = (
(730,0,l),
(730,30,l),
(383,30,l),
(383,0,l)
);
},
{
closed = 1;
nodes = (
(106,15,l),
(342,604,l),
(394,763,l),
(368,763,l),
(73,15,l)
);
},
{
closed = 1;
nodes = (
(414,811,l),
(414,861,o),
(488,842,o),
(488,904,cs),
(488,975,o),
(453,1004,o),
(380,1004,cs),
(320,1004,o),
(273,977,o),
(273,912,cs),
(273,882,o),
(293,863,o),
(317,863,cs),
(334,863,o),
(356,870,o),
(356,889,cs),
(356,917,o),
(335,905,o),
(335,929,cs),
(335,943,o),
(352,961,o),
(380,961,cs),
(409,961,o),
(426,945,o),
(426,913,cs),
(426,889,o),
(375,881,o),
(375,811,c)
);
}
);
};
layerId = "3AE1663F-34E8-4710-91A2-69F84C961E5F";
shapes = (
{
ref = A;
},
{
pos = (101,304);
ref = hookabovecomb;
}
);
width = 715;
}
);
unicode = 7842;
},
{
glyphname = Ainvertedbreve;
kernLeft = A;
kernRight = A;
lastChange = "2023-02-02 17:07:23 +0000";
layers = (
{
background = {
anchors = (
{
name = bottom;
pos = (343,0);
},
{
name = ogonek;
pos = (590,44);
},
{
name = top;
pos = (343,924);
}
);
shapes = (
{
closed = 1;
nodes = (
(612,15,l),
(361,766,l),
(331,766,l),
(283,594,l),
(290,565,l),
(294,565,l),
(478,15,l)
);
},
{
closed = 1;
nodes = (
(224,0,l),
(224,25,l),
(-16,25,l),
(-16,0,l)
);
},
{
closed = 1;
nodes = (
(503,236,l),
(503,261,l),
(179,261,l),
(179,236,l)
);
},
{
closed = 1;
nodes = (
(701,0,l),
(701,25,l),
(358,25,l),
(358,0,l)
);
},
{
closed = 1;
nodes = (
(103,15,l),
(300,594,l),
(361,766,l),
(331,766,l),
(70,15,l)
);
},
{
closed = 1;
nodes = (
(220,792,l),
(223,838,o),
(271,856,o),
(341,856,cs),
(412,856,o),
(462,836,o),
(465,792,c),
(499,792,l),
(499,869,o),
(449,924,o),
(343,924,cs),
(240,924,o),
(186,873,o),
(186,792,c)
);
}
);
};
layerId = UUID0;
shapes = (
{
ref = A;
},
{
pos = (176,0);
ref = breveinvertedcomb.case;
}
);
width = 686;
},
{
background = {
anchors = (
{
name = bottom;
pos = (358,0);
},
{
name = ogonek;
pos = (643,10);
},
{
name = top;
pos = (383,924);
}
);
shapes = (
{
closed = 1;
nodes = (
(666,15,l),
(394,763,l),
(368,763,l),
(300,553,l),
(306,516,l),
(310,516,l),
(493,15,l)
);
},
{
closed = 1;
nodes = (
(229,0,l),
(229,30,l),
(-15,30,l),
(-15,0,l)
);
},
{
closed = 1;
nodes = (
(508,204,l),
(508,233,l),
(164,233,l),
(164,204,l)
);
},
{
closed = 1;
nodes = (
(730,0,l),
(730,30,l),
(383,30,l),
(383,0,l)
);
},
{
closed = 1;
nodes = (
(106,15,l),
(342,604,l),
(394,763,l),
(368,763,l),
(73,15,l)
);
},
{
closed = 1;
nodes = (
(260,787,l),
(263,819,o),
(311,831,o),
(381,831,cs),
(452,831,o),
(502,817,o),
(505,787,c),
(549,787,l),
(549,864,o),
(496,924,o),
(383,924,cs),
(273,924,o),
(216,868,o),
(216,787,c)
);
}
);
};
layerId = "3AE1663F-34E8-4710-91A2-69F84C961E5F";
shapes = (
{
ref = A;
},
{
pos = (206,0);
ref = breveinvertedcomb.case;
}
);
width = 715;
}
);
unicode = 514;
},
{
glyphname = Amacron;
kernLeft = A;
kernRight = A;
lastChange = "2023-02-02 17:07:23 +0000";
layers = (
{
background = {
anchors = (
{
name = bottom;
pos = (343,0);
},
{
name = ogonek;
pos = (590,44);
},
{
name = top;
pos = (343,754);
}
);
shapes = (
{
closed = 1;
nodes = (
(612,15,l),
(361,766,l),
(331,766,l),
(283,594,l),
(290,565,l),
(294,565,l),
(478,15,l)
);
},
{
closed = 1;
nodes = (
(224,0,l),
(224,25,l),
(-16,25,l),
(-16,0,l)
);
},
{
closed = 1;
nodes = (
(503,236,l),
(503,261,l),
(179,261,l),
(179,236,l)
);
},
{
closed = 1;
nodes = (
(701,0,l),
(701,25,l),
(358,25,l),
(358,0,l)
);
},
{
closed = 1;
nodes = (
(103,15,l),
(300,594,l),
(361,766,l),
(331,766,l),
(70,15,l)
);
},
{
closed = 1;
nodes = (
(505,851,l),
(505,917,l),
(185,917,l),
(185,851,l)
);
}
);
};
layerId = UUID0;
shapes = (
{
ref = A;
},
{
pos = (173,0);
ref = macroncomb.case;
}
);
width = 686;
},
{
background = {
anchors = (
{
name = bottom;
pos = (358,0);
},
{
name = ogonek;
pos = (643,10);
},
{
name = top;
pos = (383,754);
}
);
shapes = (
{
closed = 1;
nodes = (
(666,15,l),
(394,763,l),
(368,763,l),
(300,553,l),
(306,516,l),
(310,516,l),
(493,15,l)
);
},
{
closed = 1;
nodes = (
(229,0,l),
(229,30,l),
(-15,30,l),
(-15,0,l)
);
},
{
closed = 1;
nodes = (
(508,204,l),
(508,233,l),
(164,233,l),
(164,204,l)
);
},
{
closed = 1;
nodes = (
(730,0,l),
(730,30,l),
(383,30,l),
(383,0,l)
);
},
{
closed = 1;
nodes = (
(106,15,l),
(342,604,l),
(394,763,l),
(368,763,l),
(73,15,l)
);
},
{
closed = 1;
nodes = (
(561,812,l),
(561,898,l),
(221,898,l),
(221,812,l)
);
}
);
};
layerId = "3AE1663F-34E8-4710-91A2-69F84C961E5F";
shapes = (
{
ref = A;
},
{
pos = (210,23);
ref = macroncomb.case;
}
);
width = 715;
}
);
unicode = 256;
},
{
glyphname = Aogonek;
kernLeft = A;
kernRight = A;
lastChange = "2023-02-02 17:07:23 +0000";
layers = (
{
background = {
anchors = (
{
name = bottom;
pos = (343,0);
},
{
name = ogonek;
pos = (590,44);
},
{
name = top;
pos = (343,754);
}
);
shapes = (
{
closed = 1;
nodes = (
(612,15,l),
(361,766,l),
(331,766,l),
(283,594,l),
(290,565,l),
(294,565,l),
(478,15,l)
);
},
{
closed = 1;
nodes = (
(224,0,l),
(224,25,l),
(-16,25,l),
(-16,0,l)
);
},
{
closed = 1;
nodes = (
(503,236,l),
(503,261,l),
(179,261,l),
(179,236,l)
);
},
{
closed = 1;
nodes = (
(701,0,l),
(701,25,l),
(358,25,l),
(358,0,l)
);
},
{
closed = 1;
nodes = (
(103,15,l),
(300,594,l),
(361,766,l),
(331,766,l),
(70,15,l)
);
},
{
closed = 1;
nodes = (
(824,-231,o),
(862,-214,o),
(883,-188,c),
(883,-161,l),
(879,-161,l),
(850,-182,o),
(830,-190,o),
(812,-190,cs),
(783,-190,o),
(766,-171,o),
(766,-137,cs),
(766,-87,o),
(804,-34,o),
(880,22,c),
(844,22,l),
(733,-51,o),
(696,-94,o),
(696,-147,cs),
(696,-198,o),
(732,-231,o),
(786,-231,c)
);
}
);
};
layerId = UUID0;
shapes = (
{
ref = A;
},
{
pos = (393,22);
ref = ogonekcomb;
}
);
width = 686;
},
{
background = {
anchors = (
{
name = bottom;
pos = (358,0);
},
{
name = ogonek;
pos = (643,10);
},
{
name = top;
pos = (383,754);
}
);
shapes = (
{
closed = 1;
nodes = (
(666,15,l),
(394,763,l),
(368,763,l),
(300,553,l),
(306,516,l),
(310,516,l),
(493,15,l)
);
},
{
closed = 1;
nodes = (
(229,0,l),
(229,30,l),
(-15,30,l),
(-15,0,l)
);
},
{
closed = 1;
nodes = (
(508,204,l),
(508,233,l),
(164,233,l),
(164,204,l)
);
},
{
closed = 1;
nodes = (
(730,0,l),
(730,30,l),
(383,30,l),
(383,0,l)
);
},
{
closed = 1;
nodes = (
(106,15,l),
(342,604,l),
(394,763,l),
(368,763,l),
(73,15,l)
);
},
{
closed = 1;
nodes = (
(853,-231,o),
(889,-215,o),
(912,-188,c),
(912,-153,l),
(908,-153,l),
(887,-171,o),
(870,-178,o),
(851,-178,cs),
(827,-178,o),
(815,-166,o),
(815,-140,cs),
(815,-94,o),
(852,-33,o),
(912,22,c),
(866,22,l),
(762,-53,o),
(725,-97,o),
(725,-149,cs),
(725,-199,o),
(760,-231,o),
(814,-231,cs)
);
}
);
};
layerId = "3AE1663F-34E8-4710-91A2-69F84C961E5F";
shapes = (
{
ref = A;
},
{
pos = (446,-12);
ref = ogonekcomb;
}
);
width = 715;
}
);
unicode = 260;
},
{
glyphname = Aring;
kernLeft = A;
kernRight = A;
lastChange = "2023-02-02 17:07:23 +0000";
layers = (
{
background = {
anchors = (
{
name = bottom;
pos = (343,0);
},
{
name = ogonek;
pos = (590,44);
},
{
name = top;
pos = (343,964);
}
);
shapes = (
{
closed = 1;
nodes = (
(612,15,l),
(361,766,l),
(331,766,l),
(283,594,l),
(290,565,l),
(294,565,l),
(478,15,l)
);
},
{
closed = 1;
nodes = (
(224,0,l),
(224,25,l),
(-16,25,l),
(-16,0,l)
);
},
{
closed = 1;
nodes = (
(503,236,l),
(503,261,l),
(179,261,l),
(179,236,l)
);
},
{
closed = 1;
nodes = (
(701,0,l),
(701,25,l),
(358,25,l),
(358,0,l)
);
},
{
closed = 1;
nodes = (
(103,15,l),
(300,594,l),
(361,766,l),
(331,766,l),
(70,15,l)
);
},
{
closed = 1;
nodes = (
(384,817,o),
(416,851,o),
(416,892,cs),
(416,933,o),
(383,964,o),
(343,964,cs),
(303,964,o),
(269,932,o),
(269,892,cs),
(269,851,o),
(303,817,o),
(343,817,cs)
);
},
{
closed = 1;
nodes = (
(321,850,o),
(302,870,o),
(302,892,cs),
(302,913,o),
(322,931,o),
(343,931,cs),
(364,931,o),
(383,913,o),
(383,892,cs),
(383,870,o),
(365,850,o),
(343,850,cs)
);
}
);
};
layerId = UUID0;
shapes = (
{
ref = A;
},
{
pos = (242,40);
ref = ringcomb.case;
}
);
width = 686;
},
{
background = {
anchors = (
{
name = bottom;
pos = (358,0);
},
{
name = ogonek;
pos = (643,10);
},
{
name = top;
pos = (381,1004);
}
);
shapes = (
{
closed = 1;
nodes = (
(666,15,l),
(394,763,l),
(368,763,l),
(300,553,l),
(306,516,l),
(310,516,l),
(493,15,l)
);
},
{
closed = 1;
nodes = (
(229,0,l),
(229,30,l),
(-15,30,l),
(-15,0,l)
);
},
{
closed = 1;
nodes = (
(508,204,l),
(508,233,l),
(164,233,l),
(164,204,l)
);
},
{
closed = 1;
nodes = (
(730,0,l),
(730,30,l),
(383,30,l),
(383,0,l)
);
},
{
closed = 1;
nodes = (
(106,15,l),
(342,604,l),
(394,763,l),
(368,763,l),
(73,15,l)
);
},
{
closed = 1;
nodes = (
(434,812,o),
(478,856,o),
(478,908,cs),
(478,961,o),
(434,1004,o),
(381,1004,cs),
(329,1004,o),
(285,961,o),
(285,908,cs),
(285,856,o),
(329,812,o),
(381,812,cs)
);
},
{
closed = 1;
nodes = (
(358,865,o),
(339,886,o),
(339,908,cs),
(339,931,o),
(359,950,o),
(381,950,cs),
(404,950,o),
(424,931,o),
(424,908,cs),
(424,885,o),
(405,865,o),
(381,865,cs)
);
}
);
};
layerId = "3AE1663F-34E8-4710-91A2-69F84C961E5F";
shapes = (
{
ref = A;
},
{
pos = (276,80);
ref = ringcomb.case;
}
);
width = 715;
}
);
unicode = 197;
},
{
glyphname = Aringacute;
kernLeft = A;
kernRight = A;
lastChange = "2023-02-03 09:57:10 +0000";
layers = (
{
background = {
anchors = (
{
name = bottom;
pos = (343,0);
},
{
name = ogonek;
pos = (590,44);
},
{
name = top;
pos = (343,1169);
}
);
shapes = (
{
closed = 1;
nodes = (
(612,15,l),
(361,766,l),
(331,766,l),
(283,594,l),
(290,565,l),
(294,565,l),
(478,15,l)
);
},
{
closed = 1;
nodes = (
(224,0,l),
(224,25,l),
(-16,25,l),
(-16,0,l)
);
},
{
closed = 1;
nodes = (
(503,236,l),
(503,261,l),
(179,261,l),
(179,236,l)
);
},
{
closed = 1;
nodes = (
(701,0,l),
(701,25,l),
(358,25,l),
(358,0,l)
);
},
{
closed = 1;
nodes = (
(103,15,l),
(300,594,l),
(361,766,l),
(331,766,l),
(70,15,l)
);
},
{
closed = 1;
nodes = (
(384,817,o),
(416,851,o),
(416,892,cs),
(416,933,o),
(383,964,o),
(343,964,cs),
(303,964,o),
(269,932,o),
(269,892,cs),
(269,851,o),
(303,817,o),
(343,817,cs)
);
},
{
closed = 1;
nodes = (
(321,850,o),
(302,870,o),
(302,892,cs),
(302,913,o),
(322,931,o),
(343,931,cs),
(364,931,o),
(383,913,o),
(383,892,cs),
(383,870,o),
(365,850,o),
(343,850,cs)
);
},
{
closed = 1;
nodes = (
(252,1037,l),
(427,1073,ls),
(460,1080,o),
(477,1100,o),
(477,1126,cs),
(477,1152,o),
(461,1169,o),
(433,1169,cs),
(419,1169,o),
(407,1163,o),
(360,1133,cs),
(209,1037,l)
);
}
);
};
layerId = UUID0;
shapes = (
{
ref = A;
},
{
pos = (242,40);
ref = ringcomb.case;
},
{
pos = (199,207);
ref = acutecomb.case;
}
);
width = 686;
},
{
background = {
anchors = (
{
name = bottom;
pos = (358,0);
},
{
name = ogonek;
pos = (643,10);
},
{
name = top;
pos = (381,1210);
}
);
shapes = (
{
closed = 1;
nodes = (
(666,15,l),
(394,763,l),
(368,763,l),
(300,553,l),
(306,516,l),
(310,516,l),
(493,15,l)
);
},
{
closed = 1;
nodes = (
(229,0,l),
(229,30,l),
(-15,30,l),
(-15,0,l)
);
},
{
closed = 1;
nodes = (
(508,204,l),
(508,233,l),
(164,233,l),
(164,204,l)
);
},
{
closed = 1;
nodes = (
(730,0,l),
(730,30,l),
(383,30,l),
(383,0,l)
);
},
{
closed = 1;
nodes = (
(106,15,l),
(342,604,l),
(394,763,l),
(368,763,l),
(73,15,l)
);
},
{
closed = 1;
nodes = (
(434,812,o),
(478,856,o),
(478,908,cs),
(478,961,o),
(434,1004,o),
(381,1004,cs),
(329,1004,o),
(285,961,o),
(285,908,cs),
(285,856,o),
(329,812,o),
(381,812,cs)
);
},
{
closed = 1;
nodes = (
(358,865,o),
(339,886,o),
(339,908,cs),
(339,931,o),
(359,950,o),
(381,950,cs),
(404,950,o),
(424,931,o),
(424,908,cs),
(424,885,o),
(405,865,o),
(381,865,cs)
);
},
{
closed = 1;
nodes = (
(297,1073,l),
(474,1108,ls),
(518,1117,o),
(527,1141,o),
(527,1164,cs),
(527,1188,o),
(510,1210,o),
(477,1210,cs),
(448,1210,o),
(430,1200,o),
(395,1177,cs),
(234,1073,l)
);
}
);
};
layerId = "3AE1663F-34E8-4710-91A2-69F84C961E5F";
shapes = (
{
ref = A;
},
{
pos = (276,80);
ref = ringcomb.case;
},
{
pos = (226,254);
ref = acutecomb.case;
}
);
width = 715;
}
);
unicode = 506;
},
{
glyphname = Atilde;
kernLeft = A;
kernRight = A;
lastChange = "2023-02-02 17:07:23 +0000";
layers = (
{
background = {
anchors = (
{
name = bottom;
pos = (343,0);
},
{
name = ogonek;
pos = (590,44);
},
{
name = top;
pos = (343,1004);
}
);
shapes = (
{
closed = 1;
nodes = (
(612,15,l),
(361,766,l),
(331,766,l),
(283,594,l),
(290,565,l),
(294,565,l),
(478,15,l)
);
},
{
closed = 1;
nodes = (
(224,0,l),
(224,25,l),
(-16,25,l),
(-16,0,l)
);
},
{
closed = 1;
nodes = (
(503,236,l),
(503,261,l),
(179,261,l),
(179,236,l)
);
},
{
closed = 1;
nodes = (
(701,0,l),
(701,25,l),
(358,25,l),
(358,0,l)
);
},
{
closed = 1;
nodes = (
(103,15,l),
(300,594,l),
(361,766,l),
(331,766,l),
(70,15,l)
);
},
{
closed = 1;
nodes = (
(200,862,l),
(207,890,o),
(230,911,o),
(263,911,cs),
(310,911,o),
(344,863,o),
(400,863,cs),
(469,863,o),
(505,927,o),
(519,990,c),
(485,990,l),
(478,969,o),
(460,939,o),
(422,939,cs),
(376,939,o),
(339,987,o),
(285,987,cs),
(219,987,o),
(177,924,o),
(167,862,c)
);
}
);
};
layerId = UUID0;
shapes = (
{
ref = A;
},
{
pos = (157,70);
ref = tildecomb.case;
}
);
width = 686;
},
{
background = {
anchors = (
{
name = bottom;
pos = (358,0);
},
{
name = ogonek;
pos = (643,10);
},
{
name = top;
pos = (383,1001);
}
);
shapes = (
{
closed = 1;
nodes = (
(666,15,l),
(394,763,l),
(368,763,l),
(300,553,l),
(306,516,l),
(310,516,l),
(493,15,l)
);
},
{
closed = 1;
nodes = (
(229,0,l),
(229,30,l),
(-15,30,l),
(-15,0,l)
);
},
{
closed = 1;
nodes = (
(508,204,l),
(508,233,l),
(164,233,l),
(164,204,l)
);
},
{
closed = 1;
nodes = (
(730,0,l),
(730,30,l),
(383,30,l),
(383,0,l)
);
},
{
closed = 1;
nodes = (
(106,15,l),
(342,604,l),
(394,763,l),
(368,763,l),
(73,15,l)
);
},
{
closed = 1;
nodes = (
(220,864,l),
(229,888,o),
(260,905,o),
(303,905,cs),
(350,905,o),
(384,865,o),
(440,865,cs),
(521,865,o),
(563,933,o),
(579,1001,c),
(545,1001,l),
(536,984,o),
(512,961,o),
(462,961,cs),
(416,961,o),
(379,1001,o),
(325,1001,cs),
(247,1001,o),
(199,931,o),
(187,864,c)
);
}
);
};
layerId = "3AE1663F-34E8-4710-91A2-69F84C961E5F";
shapes = (
{
ref = A;
},
{
pos = (177,77);
ref = tildecomb.case;
}
);
width = 715;
}
);
unicode = 195;
},
{
glyphname = AE;
kernLeft = AE;
kernRight = E;
lastChange = "2023-02-02 17:07:23 +0000";
layers = (
{
anchors = (
{
name = bottom;
pos = (524,0);
},
{
name = top;
pos = (644,754);
}
);
background = {
anchors = (
{
name = bottom;
pos = (524,0);
},
{
name = top;
pos = (524,754);
}
);
shapes = (
{
closed = 1;
nodes = (
(254,0,l),
(254,25,l),
(138,25,l),
(238,236,l),
(497,236,l),
(497,25,l),
(379,25,l),
(379,0,l),
(1010,0,l),
(1010,235,l),
(975,235,l),
(973,123,o),
(916,25,o),
(817,25,cs),
(631,25,l),
(631,363,l),
(752,362,o),
(783,327,o),
(786,216,c),
(821,216,l),
(821,526,l),
(786,526,l),
(786,419,o),
(752,388,o),
(631,388,c),
(631,729,l),
(787,729,ls),
(886,729,o),
(943,646,o),
(945,549,c),
(980,549,l),
(980,754,l),
(339,754,l),
(339,729,l),
(442,729,l),
(108,25,l),
(10,25,l),
(10,0,l)
);
},
{
closed = 1;
nodes = (
(473,729,l),
(497,729,l),
(497,261,l),
(250,261,l)
);
}
);
};
layerId = UUID0;
shapes = (
{
closed = 1;
nodes = (
(254,0,l),
(254,25,l),
(138,25,l),
(238,236,l),
(497,236,l),
(497,25,l),
(379,25,l),
(379,0,l),
(1010,0,l),
(1010,235,l),
(975,235,l),
(973,123,o),
(916,25,o),
(817,25,cs),
(631,25,l),
(631,363,l),
(752,362,o),
(783,327,o),
(786,216,c),
(821,216,l),
(821,526,l),
(786,526,l),
(786,419,o),
(752,388,o),
(631,388,c),
(631,729,l),
(787,729,ls),
(886,729,o),
(943,646,o),
(945,549,c),
(980,549,l),
(980,754,l),
(339,754,l),
(339,729,l),
(442,729,l),
(108,25,l),
(10,25,l),
(10,0,l)
);
},
{
closed = 1;
nodes = (
(473,729,l),
(497,729,l),
(497,261,l),
(250,261,l)
);
}
);
width = 1047;
},
{
anchors = (
{
name = bottom;
pos = (566,0);
},
{
name = top;
pos = (726,754);
}
);
background = {
anchors = (
{
name = bottom;
pos = (566,0);
},
{
name = top;
pos = (566,754);
}
);
shapes = (
{
closed = 1;
nodes = (
(254,0,l),
(254,30,l),
(150,30,l),
(257,231,l),
(550,231,l),
(550,30,l),
(455,30,l),
(455,0,l),
(1096,0,l),
(1096,245,l),
(1056,245,l),
(1054,131,o),
(989,30,o),
(878,30,cs),
(708,30,l),
(708,356,l),
(837,355,o),
(885,311,o),
(887,216,c),
(927,216,l),
(927,516,l),
(887,516,l),
(885,428,o),
(837,387,o),
(708,386,c),
(708,724,l),
(878,724,ls),
(980,724,o),
(1039,646,o),
(1041,554,c),
(1081,554,l),
(1081,754,l),
(385,754,l),
(385,724,l),
(470,724,l),
(102,30,l),
(10,30,l),
(10,0,l)
);
},
{
closed = 1;
nodes = (
(520,724,l),
(550,724,l),
(550,263,l),
(274,263,l)
);
}
);
};
layerId = "3AE1663F-34E8-4710-91A2-69F84C961E5F";
shapes = (
{
closed = 1;
nodes = (
(254,0,l),
(254,30,l),
(150,30,l),
(257,231,l),
(550,231,l),
(550,30,l),
(455,30,l),
(455,0,l),
(1096,0,l),
(1096,245,l),
(1056,245,l),
(1054,131,o),
(989,30,o),
(878,30,cs),
(708,30,l),
(708,356,l),
(837,355,o),
(885,311,o),
(887,216,c),
(927,216,l),
(927,516,l),
(887,516,l),
(885,428,o),
(837,387,o),
(708,386,c),
(708,724,l),
(878,724,ls),
(980,724,o),
(1039,646,o),
(1041,554,c),
(1081,554,l),
(1081,754,l),
(385,754,l),
(385,724,l),
(470,724,l),
(102,30,l),
(10,30,l),
(10,0,l)
);
},
{
closed = 1;
nodes = (
(520,724,l),
(550,724,l),
(550,263,l),
(274,263,l)
);
}
);
width = 1131;
}
);
unicode = 198;
},
{
glyphname = AEacute;
kernLeft = AE;
kernRight = E;
lastChange = "2023-02-02 17:07:23 +0000";
layers = (
{
background = {
anchors = (
{
name = bottom;
pos = (524,0);
},
{
name = top;
pos = (524,959);
}
);
shapes = (
{
closed = 1;
nodes = (
(254,0,l),
(254,25,l),
(138,25,l),
(238,236,l),
(497,236,l),
(497,25,l),
(379,25,l),
(379,0,l),
(1010,0,l),
(1010,235,l),
(975,235,l),
(973,123,o),
(916,25,o),
(817,25,cs),
(631,25,l),
(631,363,l),
(752,362,o),
(783,327,o),
(786,216,c),
(821,216,l),
(821,526,l),
(786,526,l),
(786,419,o),
(752,388,o),
(631,388,c),
(631,729,l),
(787,729,ls),
(886,729,o),
(943,646,o),
(945,549,c),
(980,549,l),
(980,754,l),
(339,754,l),
(339,729,l),
(442,729,l),
(108,25,l),
(10,25,l),
(10,0,l)
);
},
{
closed = 1;
nodes = (
(473,729,l),
(497,729,l),
(497,261,l),
(250,261,l)
);
},
{
closed = 1;
nodes = (
(433,827,l),
(608,863,ls),
(641,870,o),
(658,890,o),
(658,916,cs),
(658,942,o),
(642,959,o),
(614,959,cs),
(600,959,o),
(588,953,o),
(541,923,cs),
(390,827,l)
);
}
);
};
layerId = UUID0;
shapes = (
{
ref = AE;
},
{
pos = (500,35);
ref = acutecomb.case;
}
);
width = 1047;
},
{
background = {
anchors = (
{
name = bottom;
pos = (566,0);
},
{
name = top;
pos = (566,960);
}
);
shapes = (
{
closed = 1;
nodes = (
(254,0,l),
(254,30,l),
(150,30,l),
(257,231,l),
(550,231,l),
(550,30,l),
(455,30,l),
(455,0,l),
(1096,0,l),
(1096,245,l),
(1056,245,l),
(1054,131,o),
(989,30,o),
(878,30,cs),
(708,30,l),
(708,356,l),
(837,355,o),
(885,311,o),
(887,216,c),
(927,216,l),
(927,516,l),
(887,516,l),
(885,428,o),
(837,387,o),
(708,386,c),
(708,724,l),
(878,724,ls),
(980,724,o),
(1039,646,o),
(1041,554,c),
(1081,554,l),
(1081,754,l),
(385,754,l),
(385,724,l),
(470,724,l),
(102,30,l),
(10,30,l),
(10,0,l)
);
},
{
closed = 1;
nodes = (
(520,724,l),
(550,724,l),
(550,263,l),
(274,263,l)
);
},
{
closed = 1;
nodes = (
(482,823,l),
(659,858,ls),
(703,867,o),
(712,891,o),
(712,914,cs),
(712,938,o),
(695,960,o),
(662,960,cs),
(633,960,o),
(615,950,o),
(580,927,cs),
(419,823,l)
);
}
);
};
layerId = "3AE1663F-34E8-4710-91A2-69F84C961E5F";
shapes = (
{
ref = AE;
},
{
pos = (569,37);
ref = acutecomb.case;
}
);
width = 1131;
}
);
unicode = 508;
},
{
glyphname = B;
lastChange = "2023-02-02 17:07:23 +0000";
layers = (
{
anchors = (
{
name = bottom;
pos = (352,0);
},
{
name = top;
pos = (352,754);
}
);
background = {
anchors = (
{
name = bottom;
pos = (352,0);
},
{
name = top;
pos = (352,754);
}
);
shapes = (
{
closed = 1;
nodes = (
(380,0,ls),
(529,0,o),
(643,83,o),
(643,204,cs),
(643,345,o),
(487,412,o),
(280,412,c),
(310,382,l),
(445,382,o),
(490,344,o),
(490,209,cs),
(490,59,o),
(434,25,o),
(340,25,cs),
(-6,25,l),
(-6,0,l)
);
},
{
closed = 1;
nodes = (
(238,15,l),
(238,754,l),
(104,754,l),
(104,15,l)
);
},
{
closed = 1;
nodes = (
(340,382,ls),
(493,382,o),
(615,459,o),
(615,572,cs),
(615,677,o),
(511,754,o),
(380,754,cs),
(-6,754,l),
(-6,729,l),
(340,729,ls),
(428,729,o),
(470,703,o),
(470,568,cs),
(470,440,o),
(432,412,o),
(340,412,cs),
(207,412,l),
(207,382,l)
);
}
);
};
layerId = UUID0;
shapes = (
{
closed = 1;
nodes = (
(380,0,ls),
(529,0,o),
(643,83,o),
(643,204,cs),
(643,345,o),
(487,412,o),
(280,412,c),
(310,382,l),
(445,382,o),
(490,344,o),
(490,209,cs),
(490,59,o),
(434,25,o),
(340,25,cs),
(-6,25,l),
(-6,0,l)
);
},
{
closed = 1;
nodes = (
(238,15,l),
(238,754,l),
(104,754,l),
(104,15,l)
);
},
{
closed = 1;
nodes = (
(340,382,ls),
(493,382,o),
(615,459,o),
(615,572,cs),
(615,677,o),
(511,754,o),
(380,754,cs),
(-6,754,l),
(-6,729,l),
(340,729,ls),
(428,729,o),
(470,703,o),
(470,568,cs),
(470,440,o),
(432,412,o),
(340,412,cs),
(207,412,l),
(207,382,l)
);
}
);
width = 703;
},
{
anchors = (
{
name = bottom;
pos = (376,0);
},
{
name = top;
pos = (376,754);
}
);
background = {
anchors = (
{
name = bottom;
pos = (376,0);
},
{
name = top;
pos = (376,754);
}
);
shapes = (
{
closed = 1;
nodes = (
(428,0,ls),
(586,0,o),
(706,60,o),
(706,194,cs),
(706,345,o),
(558,402,o),
(341,402,c),
(371,367,l),
(489,367,o),
(528,332,o),
(528,206,cs),
(528,63,o),
(475,30,o),
(388,30,cs),
(25,30,l),
(25,0,l)
);
},
{
closed = 1;
nodes = (
(283,15,l),
(283,754,l),
(125,754,l),
(125,15,l)
);
},
{
closed = 1;
nodes = (
(388,367,ls),
(559,367,o),
(678,434,o),
(678,565,cs),
(678,691,o),
(568,754,o),
(428,754,cs),
(25,754,l),
(25,724,l),
(388,724,ls),
(471,724,o),
(508,698,o),
(508,564,cs),
(508,432,o),
(472,402,o),
(388,402,cs),
(228,402,l),
(228,367,l)
);
}
);
};
layerId = "3AE1663F-34E8-4710-91A2-69F84C961E5F";
shapes = (
{
closed = 1;
nodes = (
(428,0,ls),
(586,0,o),
(706,60,o),
(706,194,cs),
(706,345,o),
(558,402,o),
(341,402,c),
(371,367,l),
(489,367,o),
(528,332,o),
(528,206,cs),
(528,63,o),
(475,30,o),
(388,30,cs),
(25,30,l),
(25,0,l)
);
},
{
closed = 1;
nodes = (
(283,15,l),
(283,754,l),
(125,754,l),
(125,15,l)
);
},
{
closed = 1;
nodes = (
(388,367,ls),
(559,367,o),
(678,434,o),
(678,565,cs),
(678,691,o),
(568,754,o),
(428,754,cs),
(25,754,l),
(25,724,l),
(388,724,ls),
(471,724,o),
(508,698,o),
(508,564,cs),
(508,432,o),
(472,402,o),
(388,402,cs),
(228,402,l),
(228,367,l)
);
}
);
width = 751;
}
);
unicode = 66;
},
{
glyphname = C;
kernLeft = C;
kernRight = C;
lastChange = "2023-02-02 17:07:23 +0000";
layers = (
{
anchors = (
{
name = bottom;
pos = (393,0);
},
{
name = top;
pos = (397,754);
}
);
background = {
anchors = (
{
name = bottom;
pos = (393,0);
},
{
name = top;
pos = (397,754);
}
);
shapes = (
{
closed = 1;
nodes = (
(458,-12,o),
(525,6,o),
(578,46,c),
(612,0,l),
(637,0,l),
(637,212,l),
(612,212,l),
(588,103,o),
(531,18,o),
(393,18,cs),
(279,18,o),
(206,87,o),
(206,377,cs),
(206,667,o),
(281,736,o),
(395,736,cs),
(526,736,o),
(581,640,o),
(603,528,c),
(628,528,l),
(628,754,l),
(603,754,l),
(564,704,l),
(513,747,o),
(459,766,o),
(396,766,cs),
(200,766,o),
(46,583,o),
(46,377,cs),
(46,171,o),
(197,-12,o),
(393,-12,cs)
);
}
);
};
layerId = UUID0;
shapes = (
{
closed = 1;
nodes = (
(458,-12,o),
(525,6,o),
(578,46,c),
(612,0,l),
(637,0,l),
(637,212,l),
(612,212,l),
(588,103,o),
(531,18,o),
(393,18,cs),
(279,18,o),
(206,87,o),
(206,377,cs),
(206,667,o),
(281,736,o),
(395,736,cs),
(526,736,o),
(581,640,o),
(603,528,c),
(628,528,l),
(628,754,l),
(603,754,l),
(564,704,l),
(513,747,o),
(459,766,o),
(396,766,cs),
(200,766,o),
(46,583,o),
(46,377,cs),
(46,171,o),
(197,-12,o),
(393,-12,cs)
);
}
);
width = 687;
},
{
anchors = (
{
name = bottom;
pos = (412,-3);
},
{
name = top;
pos = (410,754);
}
);
background = {
anchors = (
{
name = bottom;
pos = (412,-3);
},
{
name = top;
pos = (410,754);
}
);
shapes = (
{
closed = 1;
nodes = (
(476,-13,o),
(534,4,o),
(592,46,c),
(636,0,l),
(666,0,l),
(666,217,l),
(636,217,l),
(613,112,o),
(549,22,o),
(413,22,cs),
(297,22,o),
(240,86,o),
(240,361,cs),
(240,672,o),
(313,728,o),
(412,728,cs),
(537,728,o),
(600,639,o),
(622,523,c),
(652,523,l),
(652,754,l),
(627,754,l),
(583,704,l),
(530,744,o),
(485,763,o),
(416,763,cs),
(201,763,o),
(50,577,o),
(50,372,cs),
(50,167,o),
(202,-13,o),
(412,-13,cs)
);
}
);
};
layerId = "3AE1663F-34E8-4710-91A2-69F84C961E5F";
shapes = (
{
closed = 1;
nodes = (
(476,-13,o),
(534,4,o),
(592,46,c),
(636,0,l),
(666,0,l),
(666,217,l),
(636,217,l),
(613,112,o),
(549,22,o),
(413,22,cs),
(297,22,o),
(240,86,o),
(240,361,cs),
(240,672,o),
(313,728,o),
(412,728,cs),
(537,728,o),
(600,639,o),
(622,523,c),
(652,523,l),
(652,754,l),
(627,754,l),
(583,704,l),
(530,744,o),
(485,763,o),
(416,763,cs),
(201,763,o),
(50,577,o),
(50,372,cs),
(50,167,o),
(202,-13,o),
(412,-13,cs)
);
}
);
width = 711;
}
);
unicode = 67;
},
{
glyphname = Cacute;
kernLeft = C;
kernRight = C;
lastChange = "2023-02-02 17:07:23 +0000";
layers = (
{
background = {
anchors = (
{
name = bottom;
pos = (393,0);
},
{
name = top;
pos = (397,959);
}
);
shapes = (
{
closed = 1;
nodes = (
(458,-12,o),
(525,6,o),
(578,46,c),
(612,0,l),
(637,0,l),
(637,212,l),
(612,212,l),
(588,103,o),
(531,18,o),
(393,18,cs),
(279,18,o),
(206,87,o),
(206,377,cs),
(206,667,o),
(281,736,o),
(395,736,cs),
(526,736,o),
(581,640,o),
(603,528,c),
(628,528,l),
(628,754,l),
(603,754,l),
(564,704,l),
(513,747,o),
(459,766,o),
(396,766,cs),
(200,766,o),
(46,583,o),
(46,377,cs),
(46,171,o),
(197,-12,o),
(393,-12,cs)
);
},
{
closed = 1;
nodes = (
(306,827,l),
(481,863,ls),
(514,870,o),
(531,890,o),
(531,916,cs),
(531,942,o),
(515,959,o),
(487,959,cs),
(473,959,o),
(461,953,o),
(414,923,cs),
(263,827,l)
);
}
);
};
layerId = UUID0;
shapes = (
{
ref = C;
},
{
pos = (253,35);
ref = acutecomb.case;
}
);
width = 687;
},
{
background = {
anchors = (
{
name = bottom;
pos = (412,-3);
},
{
name = top;
pos = (410,960);
}
);
shapes = (
{
closed = 1;
nodes = (
(476,-13,o),
(534,4,o),
(592,46,c),
(636,0,l),
(666,0,l),
(666,217,l),
(636,217,l),
(613,112,o),
(549,22,o),
(413,22,cs),
(297,22,o),
(240,86,o),
(240,361,cs),
(240,672,o),
(313,728,o),
(412,728,cs),
(537,728,o),
(600,639,o),
(622,523,c),
(652,523,l),
(652,754,l),
(627,754,l),
(583,704,l),
(530,744,o),
(485,763,o),
(416,763,cs),
(201,763,o),
(50,577,o),
(50,372,cs),
(50,167,o),
(202,-13,o),
(412,-13,cs)
);
},
{
closed = 1;
nodes = (
(326,823,l),
(503,858,ls),
(547,867,o),
(556,891,o),
(556,914,cs),
(556,938,o),
(539,960,o),
(506,960,cs),
(477,960,o),
(459,950,o),
(424,927,cs),
(263,823,l)
);
}
);
};
layerId = "3AE1663F-34E8-4710-91A2-69F84C961E5F";
shapes = (
{
ref = C;
},
{
pos = (253,37);
ref = acutecomb.case;
}
);
width = 711;
}
);
unicode = 262;
},
{
glyphname = Ccaron;
kernLeft = C;
kernRight = C;
lastChange = "2023-02-02 17:07:23 +0000";
layers = (
{
background = {
anchors = (
{
name = bottom;
pos = (393,0);
},
{
name = top;
pos = (397,754);
}
);
shapes = (
{
closed = 1;
nodes = (
(458,-12,o),
(525,6,o),
(578,46,c),
(612,0,l),
(637,0,l),
(637,212,l),
(612,212,l),
(588,103,o),
(531,18,o),
(393,18,cs),
(279,18,o),
(206,87,o),
(206,377,cs),
(206,667,o),
(281,736,o),
(395,736,cs),
(526,736,o),
(581,640,o),
(603,528,c),
(628,528,l),
(628,754,l),
(603,754,l),
(564,704,l),
(513,747,o),
(459,766,o),
(396,766,cs),
(200,766,o),
(46,583,o),
(46,377,cs),
(46,171,o),
(197,-12,o),
(393,-12,cs)
);
},
{
closed = 1;
nodes = (
(430,793,l),
(561,925,l),
(518,925,l),
(399,864,l),
(280,925,l),
(237,925,l),
(368,793,l)
);
}
);
};
layerId = UUID0;
shapes = (
{
ref = C;
},
{
pos = (225,0);
ref = caroncomb.case;
}
);
width = 687;
},
{
background = {
anchors = (
{
name = bottom;
pos = (412,-3);
},
{
name = top;
pos = (410,754);
}
);
shapes = (
{
closed = 1;
nodes = (
(476,-13,o),
(534,4,o),
(592,46,c),
(636,0,l),
(666,0,l),
(666,217,l),
(636,217,l),
(613,112,o),
(549,22,o),
(413,22,cs),
(297,22,o),
(240,86,o),
(240,361,cs),
(240,672,o),
(313,728,o),
(412,728,cs),
(537,728,o),
(600,639,o),
(622,523,c),
(652,523,l),
(652,754,l),
(627,754,l),
(583,704,l),
(530,744,o),
(485,763,o),
(416,763,cs),
(201,763,o),
(50,577,o),
(50,372,cs),
(50,167,o),
(202,-13,o),
(412,-13,cs)
);
},
{
closed = 1;
nodes = (
(439,790,l),
(610,926,l),
(557,926,l),
(408,884,l),
(259,926,l),
(206,926,l),
(377,790,l)
);
}
);
};
layerId = "3AE1663F-34E8-4710-91A2-69F84C961E5F";
shapes = (
{
ref = C;
},
{
pos = (198,0);
ref = caroncomb.case;
}
);
width = 711;
}
);
unicode = 268;
},
{
glyphname = Ccedilla;
kernLeft = C;
kernRight = C;
lastChange = "2023-02-02 17:07:23 +0000";
layers = (
{
background = {
anchors = (
{
name = bottom;
pos = (393,0);
},
{
name = top;
pos = (397,754);
}
);
shapes = (
{
closed = 1;
nodes = (
(458,-12,o),
(525,6,o),
(578,46,c),
(612,0,l),
(637,0,l),
(637,212,l),
(612,212,l),
(588,103,o),
(531,18,o),
(393,18,cs),
(279,18,o),
(206,87,o),
(206,377,cs),
(206,667,o),
(281,736,o),
(395,736,cs),
(526,736,o),
(581,640,o),
(603,528,c),
(628,528,l),
(628,754,l),
(603,754,l),
(564,704,l),
(513,747,o),
(459,766,o),
(396,766,cs),
(200,766,o),
(46,583,o),
(46,377,cs),
(46,171,o),
(197,-12,o),
(393,-12,cs)
);
},
{
closed = 1;
nodes = (
(453,-220,o),
(505,-185,o),
(505,-132,cs),
(505,-86,o),
(466,-60,o),
(409,-60,cs),
(390,-60,l),
(414,16,l),
(384,16,l),
(350,-84,l),
(402,-85,o),
(425,-104,o),
(425,-139,cs),
(425,-173,o),
(402,-189,o),
(365,-189,cs),
(345,-189,o),
(319,-184,o),
(309,-178,c),
(298,-203,l),
(309,-210,o),
(338,-220,o),
(378,-220,cs)
);
}
);
};
layerId = UUID0;
shapes = (
{
ref = C;
},
{
pos = (279,0);
ref = cedillacomb;
}
);
width = 687;
},
{
background = {
anchors = (
{
name = bottom;
pos = (412,-3);
},
{
name = top;
pos = (410,754);
}
);
shapes = (
{
closed = 1;
nodes = (
(476,-13,o),
(534,4,o),
(592,46,c),
(636,0,l),
(666,0,l),
(666,217,l),
(636,217,l),
(613,112,o),
(549,22,o),
(413,22,cs),
(297,22,o),
(240,86,o),
(240,361,cs),
(240,672,o),
(313,728,o),
(412,728,cs),
(537,728,o),
(600,639,o),
(622,523,c),
(652,523,l),
(652,754,l),
(627,754,l),
(583,704,l),
(530,744,o),
(485,763,o),
(416,763,cs),
(201,763,o),
(50,577,o),
(50,372,cs),
(50,167,o),
(202,-13,o),
(412,-13,cs)
);
},
{
closed = 1;
nodes = (
(475,-225,o),
(535,-190,o),
(535,-128,cs),
(535,-82,o),
(494,-56,o),
(431,-56,cs),
(412,-56,l),
(436,20,l),
(391,20,l),
(352,-90,l),
(407,-91,o),
(432,-108,o),
(432,-140,cs),
(432,-171,o),
(409,-185,o),
(372,-185,cs),
(352,-185,o),
(326,-180,o),
(316,-174,c),
(305,-208,l),
(316,-215,o),
(345,-225,o),
(385,-225,cs)
);
}
);
};
layerId = "3AE1663F-34E8-4710-91A2-69F84C961E5F";
shapes = (
{
ref = C;
},
{
pos = (287,-3);
ref = cedillacomb;
}
);
width = 711;
}
);
unicode = 199;
},
{
glyphname = Ccircumflex;
kernLeft = C;
kernRight = C;
lastChange = "2023-02-02 17:07:23 +0000";
layers = (
{
background = {
anchors = (
{
name = bottom;
pos = (393,0);
},
{
name = top;
pos = (397,881);
}
);
shapes = (
{
closed = 1;
nodes = (
(458,-12,o),
(525,6,o),
(578,46,c),
(612,0,l),
(637,0,l),
(637,212,l),
(612,212,l),
(588,103,o),
(531,18,o),
(393,18,cs),
(279,18,o),
(206,87,o),
(206,377,cs),
(206,667,o),
(281,736,o),
(395,736,cs),
(526,736,o),
(581,640,o),
(603,528,c),
(628,528,l),
(628,754,l),
(603,754,l),
(564,704,l),
(513,747,o),
(459,766,o),
(396,766,cs),
(200,766,o),
(46,583,o),
(46,377,cs),
(46,171,o),
(197,-12,o),
(393,-12,cs)
);
},
{
closed = 1;
nodes = (
(288,824,l),
(397,875,l),
(506,824,l),
(549,824,l),
(428,936,l),
(366,936,l),
(245,824,l)
);
}
);
};
layerId = UUID0;
shapes = (
{
ref = C;
},
{
pos = (225,11);
ref = circumflexcomb.case;
}
);
width = 687;
},
{
background = {
anchors = (
{
name = bottom;
pos = (412,-3);
},
{
name = top;
pos = (410,893);
}
);
shapes = (
{
closed = 1;
nodes = (
(476,-13,o),
(534,4,o),
(592,46,c),
(636,0,l),
(666,0,l),
(666,217,l),
(636,217,l),
(613,112,o),
(549,22,o),
(413,22,cs),
(297,22,o),
(240,86,o),
(240,361,cs),
(240,672,o),
(313,728,o),
(412,728,cs),
(537,728,o),
(600,639,o),
(622,523,c),
(652,523,l),
(652,754,l),
(627,754,l),
(583,704,l),
(530,744,o),
(485,763,o),
(416,763,cs),
(201,763,o),
(50,577,o),
(50,372,cs),
(50,167,o),
(202,-13,o),
(412,-13,cs)
);
},
{
closed = 1;
nodes = (
(291,827,l),
(410,869,l),
(529,827,l),
(582,827,l),
(441,943,l),
(379,943,l),
(238,827,l)
);
}
);
};
layerId = "3AE1663F-34E8-4710-91A2-69F84C961E5F";
shapes = (
{
ref = C;
},
{
pos = (198,20);
ref = circumflexcomb.case;
}
);
width = 711;
}
);
unicode = 264;
},
{
glyphname = Cdotaccent;
kernLeft = C;
kernRight = C;
lastChange = "2023-02-02 17:07:23 +0000";
layers = (
{
background = {
anchors = (
{
name = bottom;
pos = (393,0);
},
{
name = top;
pos = (397,754);
}
);
shapes = (
{
closed = 1;
nodes = (
(458,-12,o),
(525,6,o),
(578,46,c),
(612,0,l),
(637,0,l),
(637,212,l),
(612,212,l),
(588,103,o),
(531,18,o),
(393,18,cs),
(279,18,o),
(206,87,o),
(206,377,cs),
(206,667,o),
(281,736,o),
(395,736,cs),
(526,736,o),
(581,640,o),
(603,528,c),
(628,528,l),
(628,754,l),
(603,754,l),
(564,704,l),
(513,747,o),
(459,766,o),
(396,766,cs),
(200,766,o),
(46,583,o),
(46,377,cs),
(46,171,o),
(197,-12,o),
(393,-12,cs)
);
},
{
closed = 1;
nodes = (
(434,797,o),
(464,827,o),
(464,863,cs),
(464,899,o),
(434,929,o),
(398,929,cs),
(362,929,o),
(332,899,o),
(332,863,cs),
(332,827,o),
(362,797,o),
(398,797,cs)
);
}
);
};
layerId = UUID0;
shapes = (
{
ref = C;
},
{
pos = (321,0);
ref = dotaccentcomb.case;
}
);
width = 687;
},
{
background = {
anchors = (
{
name = bottom;
pos = (412,-3);
},
{
name = top;
pos = (410,754);
}
);
shapes = (
{
closed = 1;
nodes = (
(476,-13,o),
(534,4,o),
(592,46,c),
(636,0,l),
(666,0,l),
(666,217,l),
(636,217,l),
(613,112,o),
(549,22,o),
(413,22,cs),
(297,22,o),
(240,86,o),
(240,361,cs),
(240,672,o),
(313,728,o),
(412,728,cs),
(537,728,o),
(600,639,o),
(622,523,c),
(652,523,l),
(652,754,l),
(627,754,l),
(583,704,l),
(530,744,o),
(485,763,o),
(416,763,cs),
(201,763,o),
(50,577,o),
(50,372,cs),
(50,167,o),
(202,-13,o),
(412,-13,cs)
);
},
{
closed = 1;
nodes = (
(447,789,o),
(478,820,o),
(478,857,cs),
(478,895,o),
(447,926,o),
(409,926,cs),
(372,926,o),
(341,895,o),
(341,857,cs),
(341,820,o),
(372,789,o),
(409,789,cs)
);
}
);
};
layerId = "3AE1663F-34E8-4710-91A2-69F84C961E5F";
shapes = (
{
ref = C;
},
{
pos = (331,0);
ref = dotaccentcomb.case;
}
);
width = 711;
}
);
unicode = 266;
},
{
glyphname = D;
kernLeft = D;
kernRight = D;
lastChange = "2023-02-02 17:07:23 +0000";
layers = (
{
anchors = (
{
name = bottom;
pos = (389,0);
},
{
name = center;
pos = (184,389);
},
{
name = top;
pos = (389,754);
}
);
background = {
anchors = (
{
name = bottom;
pos = (389,0);
},
{
name = center;
pos = (389,377);
},
{
name = top;
pos = (389,754);
}
);
shapes = (
{
closed = 1;
nodes = (
(376,0,ls),
(576,0,o),
(733,179,o),
(733,377,cs),
(733,575,o),
(577,754,o),
(377,754,cs),
(11,754,l),
(11,729,l),
(345,729,ls),
(509,729,o),
(573,663,o),
(573,377,cs),
(573,91,o),
(510,25,o),
(346,25,cs),
(11,25,l),
(11,0,l)
);
},
{
closed = 1;
nodes = (
(255,15,l),
(255,754,l),
(121,754,l),
(121,15,l)
);
}
);
};
layerId = UUID0;
shapes = (
{
closed = 1;
nodes = (
(376,0,ls),
(576,0,o),
(733,179,o),
(733,377,cs),
(733,575,o),
(577,754,o),
(377,754,cs),
(11,754,l),
(11,729,l),
(345,729,ls),
(509,729,o),
(573,663,o),
(573,377,cs),
(573,91,o),
(510,25,o),
(346,25,cs),
(11,25,l),
(11,0,l)
);
},
{
closed = 1;
nodes = (
(255,15,l),
(255,754,l),
(121,754,l),
(121,15,l)
);
}
);
width = 777;
},
{
anchors = (
{
name = bottom;
pos = (399,0);
},
{
name = center;
pos = (183,397);
},
{
name = top;
pos = (399,754);
}
);
background = {
anchors = (
{
name = bottom;
pos = (399,0);
},
{
name = center;
pos = (399,377);
},
{
name = top;
pos = (399,754);
}
);
shapes = (
{
closed = 1;
nodes = (
(411,0,ls),
(611,0,o),
(768,180,o),
(768,380,cs),
(768,578,o),
(615,754,o),
(421,754,cs),
(20,754,l),
(20,724,l),
(390,724,ls),
(527,724,o),
(578,657,o),
(578,379,cs),
(578,95,o),
(525,30,o),
(381,30,cs),
(20,30,l),
(20,0,l)
);
},
{
closed = 1;
nodes = (
(273,15,l),
(273,754,l),
(115,754,l),
(115,15,l)
);
}
);
};
layerId = "3AE1663F-34E8-4710-91A2-69F84C961E5F";
shapes = (
{
closed = 1;
nodes = (
(411,0,ls),
(611,0,o),
(768,180,o),
(768,380,cs),
(768,578,o),
(615,754,o),
(421,754,cs),
(20,754,l),
(20,724,l),
(390,724,ls),
(527,724,o),
(578,657,o),
(578,379,cs),
(578,95,o),
(525,30,o),
(381,30,cs),
(20,30,l),
(20,0,l)
);
},
{
closed = 1;
nodes = (
(273,15,l),
(273,754,l),
(115,754,l),
(115,15,l)
);
}
);
width = 798;
}
);
unicode = 68;
},
{
glyphname = DZ;
kernLeft = D;
kernRight = Z;
lastChange = "2023-02-02 17:07:23 +0000";
layers = (
{
background = {
anchors = (
{
name = bottom;
pos = (1103,0);
},
{
name = center;
pos = (389,377);
},
{
name = top;
pos = (1103,754);
}
);
shapes = (
{
closed = 1;
nodes = (
(376,0,ls),
(576,0,o),
(733,179,o),
(733,377,cs),
(733,575,o),
(577,754,o),
(377,754,cs),
(11,754,l),
(11,729,l),
(345,729,ls),
(509,729,o),
(573,663,o),
(573,377,cs),
(573,91,o),
(510,25,o),
(346,25,cs),
(11,25,l),
(11,0,l)
);
},
{
closed = 1;
nodes = (
(255,15,l),
(255,754,l),
(121,754,l),
(121,15,l)
);
},
{
closed = 1;
nodes = (
(970,18,l),
(970,29,l),
(1385,719,l),
(1385,737,l),
(1223,731,l),
(1223,725,l),
(805,32,l),
(805,7,l)
);
},
{
closed = 1;
nodes = (
(1385,0,l),
(1385,245,l),
(1350,245,l),
(1348,128,o),
(1291,25,o),
(1192,25,cs),
(805,25,l),
(805,0,l)
);
},
{
closed = 1;
nodes = (
(880,549,l),
(882,646,o),
(939,729,o),
(1038,729,cs),
(1385,729,l),
(1385,754,l),
(845,754,l),
(845,549,l)
);
}
);
};
layerId = UUID0;
shapes = (
{
ref = D;
},
{
pos = (777,0);
ref = Z;
}
);
width = 1428;
},
{
background = {
anchors = (
{
name = bottom;
pos = (1109,0);
},
{
name = center;
pos = (399,377);
},
{
name = top;
pos = (1109,754);
}
);
shapes = (
{
closed = 1;
nodes = (
(411,0,ls),
(611,0,o),
(768,180,o),
(768,380,cs),
(768,578,o),
(615,754,o),
(421,754,cs),
(20,754,l),
(20,724,l),
(390,724,ls),
(527,724,o),
(578,657,o),
(578,379,cs),
(578,95,o),
(525,30,o),
(381,30,cs),
(20,30,l),
(20,0,l)
);
},
{
closed = 1;
nodes = (
(273,15,l),
(273,754,l),
(115,754,l),
(115,15,l)
);
},
{
closed = 1;
nodes = (
(993,23,l),
(993,36,l),
(1414,714,l),
(1414,732,l),
(1222,726,l),
(1222,720,l),
(808,39,l),
(808,7,l)
);
},
{
closed = 1;
nodes = (
(1404,0,l),
(1404,245,l),
(1364,245,l),
(1362,133,o),
(1289,32,o),
(1166,32,cs),
(808,32,l),
(808,0,l)
);
},
{
closed = 1;
nodes = (
(898,549,l),
(900,643,o),
(969,724,o),
(1086,724,cs),
(1414,724,l),
(1414,754,l),
(858,754,l),
(858,549,l)
);
}
);
};
layerId = "3AE1663F-34E8-4710-91A2-69F84C961E5F";
shapes = (
{
ref = D;
},
{
pos = (798,0);
ref = Z;
}
);
width = 1419;
}
);
unicode = 497;
},
{
glyphname = DZcaron;
kernLeft = D;
kernRight = Z;
lastChange = "2023-02-02 17:07:23 +0000";
layers = (
{
background = {
anchors = (
{
name = bottom;
pos = (1103,0);
},
{
name = center;
pos = (389,377);
},
{
name = top;
pos = (1103,754);
}
);
shapes = (
{
closed = 1;
nodes = (
(376,0,ls),
(576,0,o),
(733,179,o),
(733,377,cs),
(733,575,o),
(577,754,o),
(377,754,cs),
(11,754,l),
(11,729,l),
(345,729,ls),
(509,729,o),
(573,663,o),
(573,377,cs),
(573,91,o),
(510,25,o),
(346,25,cs),
(11,25,l),
(11,0,l)
);
},
{
closed = 1;
nodes = (
(255,15,l),
(255,754,l),
(121,754,l),
(121,15,l)
);
},
{
closed = 1;
nodes = (
(970,18,l),
(970,29,l),
(1385,719,l),
(1385,737,l),
(1223,731,l),
(1223,725,l),
(805,32,l),
(805,7,l)
);
},
{
closed = 1;
nodes = (
(1385,0,l),
(1385,245,l),
(1350,245,l),
(1348,128,o),
(1291,25,o),
(1192,25,cs),
(805,25,l),
(805,0,l)
);
},
{
closed = 1;
nodes = (
(880,549,l),
(882,646,o),
(939,729,o),
(1038,729,cs),
(1385,729,l),
(1385,754,l),
(845,754,l),
(845,549,l)
);
},
{
closed = 1;
nodes = (
(1136,793,l),
(1267,925,l),
(1224,925,l),
(1105,864,l),
(986,925,l),
(943,925,l),
(1074,793,l)
);
}
);
};
layerId = UUID0;
shapes = (
{
ref = DZ;
},
{
pos = (931,0);
ref = caroncomb.case;
}
);
width = 1428;
},
{
background = {
anchors = (
{
name = bottom;
pos = (1109,0);
},
{
name = center;
pos = (399,377);
},
{
name = top;
pos = (1109,754);
}
);
shapes = (
{
closed = 1;
nodes = (
(411,0,ls),
(611,0,o),
(768,180,o),
(768,380,cs),
(768,578,o),
(615,754,o),
(421,754,cs),
(20,754,l),
(20,724,l),
(390,724,ls),
(527,724,o),
(578,657,o),
(578,379,cs),
(578,95,o),
(525,30,o),
(381,30,cs),
(20,30,l),
(20,0,l)
);
},
{
closed = 1;
nodes = (
(273,15,l),
(273,754,l),
(115,754,l),
(115,15,l)
);
},
{
closed = 1;
nodes = (
(993,23,l),
(993,36,l),
(1414,714,l),
(1414,732,l),
(1222,726,l),
(1222,720,l),
(808,39,l),
(808,7,l)
);
},
{
closed = 1;
nodes = (
(1404,0,l),
(1404,245,l),
(1364,245,l),
(1362,133,o),
(1289,32,o),
(1166,32,cs),
(808,32,l),
(808,0,l)
);
},
{
closed = 1;
nodes = (
(898,549,l),
(900,643,o),
(969,724,o),
(1086,724,cs),
(1414,724,l),
(1414,754,l),
(858,754,l),
(858,549,l)
);
},
{
closed = 1;
nodes = (
(1138,790,l),
(1309,926,l),
(1256,926,l),
(1107,884,l),
(958,926,l),
(905,926,l),
(1076,790,l)
);
}
);
};
layerId = "3AE1663F-34E8-4710-91A2-69F84C961E5F";
shapes = (
{
ref = DZ;
},
{
pos = (897,0);
ref = caroncomb.case;
}
);
width = 1419;
}
);
unicode = 452;
},
{
glyphname = Eth;
kernRight = D;
lastChange = "2023-02-02 17:07:23 +0000";
layers = (
{
background = {
anchors = (
{
name = bottom;
pos = (389,0);
},
{
name = center;
pos = (389,377);
},
{
name = top;
pos = (389,754);
}
);
shapes = (
{
closed = 1;
nodes = (
(376,0,ls),
(576,0,o),
(733,179,o),
(733,377,cs),
(733,575,o),
(577,754,o),
(377,754,cs),
(11,754,l),
(11,729,l),
(345,729,ls),
(509,729,o),
(573,663,o),
(573,377,cs),
(573,91,o),
(510,25,o),
(346,25,cs),
(11,25,l),
(11,0,l)
);
},
{
closed = 1;
nodes = (
(255,15,l),
(255,754,l),
(121,754,l),
(121,15,l)
);
},
{
closed = 1;
nodes = (
(366,371,l),
(366,406,l),
(1,406,l),
(1,371,l)
);
}
);
};
layerId = UUID0;
shapes = (
{
ref = D;
},
{
pos = (390,377);
ref = strokeshortcomb;
}
);
width = 777;
},
{
background = {
anchors = (
{
name = bottom;
pos = (399,0);
},
{
name = center;
pos = (399,377);
},
{
name = top;
pos = (399,754);
}
);
shapes = (
{
closed = 1;
nodes = (
(411,0,ls),
(611,0,o),
(768,180,o),
(768,380,cs),
(768,578,o),
(615,754,o),
(421,754,cs),
(20,754,l),
(20,724,l),
(390,724,ls),
(527,724,o),
(578,657,o),
(578,379,cs),
(578,95,o),
(525,30,o),
(381,30,cs),
(20,30,l),
(20,0,l)
);
},
{
closed = 1;
nodes = (
(273,15,l),
(273,754,l),
(115,754,l),
(115,15,l)
);
},
{
closed = 1;
nodes = (
(380,374,l),
(380,421,l),
(-15,421,l),
(-15,374,l)
);
}
);
};
layerId = "3AE1663F-34E8-4710-91A2-69F84C961E5F";
shapes = (
{
ref = D;
},
{
pos = (-65,376);
ref = strokeshortcomb;
}
);
width = 798;
}
);
unicode = 208;
},
{
glyphname = Dcaron;
kernLeft = D;
kernRight = D;
lastChange = "2023-02-02 17:07:23 +0000";
layers = (
{
background = {
anchors = (
{
name = bottom;
pos = (389,0);
},
{
name = center;
pos = (389,377);
},
{
name = top;
pos = (389,754);
}
);
shapes = (
{
closed = 1;
nodes = (
(376,0,ls),
(576,0,o),
(733,179,o),
(733,377,cs),
(733,575,o),
(577,754,o),
(377,754,cs),
(11,754,l),
(11,729,l),
(345,729,ls),
(509,729,o),
(573,663,o),
(573,377,cs),
(573,91,o),
(510,25,o),
(346,25,cs),
(11,25,l),
(11,0,l)
);
},
{
closed = 1;
nodes = (
(255,15,l),
(255,754,l),
(121,754,l),
(121,15,l)
);
},
{
closed = 1;
nodes = (
(422,793,l),
(553,925,l),
(510,925,l),
(391,864,l),
(272,925,l),
(229,925,l),
(360,793,l)
);
}
);
};
layerId = UUID0;
shapes = (
{
ref = D;
},
{
pos = (217,0);
ref = caroncomb.case;
}
);
width = 777;
},
{
background = {
anchors = (
{
name = bottom;
pos = (399,0);
},
{
name = center;
pos = (399,377);
},
{
name = top;
pos = (399,754);
}
);
shapes = (
{
closed = 1;
nodes = (
(411,0,ls),
(611,0,o),
(768,180,o),
(768,380,cs),
(768,578,o),
(615,754,o),
(421,754,cs),
(20,754,l),
(20,724,l),
(390,724,ls),
(527,724,o),
(578,657,o),
(578,379,cs),
(578,95,o),
(525,30,o),
(381,30,cs),
(20,30,l),
(20,0,l)
);
},
{
closed = 1;
nodes = (
(273,15,l),
(273,754,l),
(115,754,l),
(115,15,l)
);
},
{
closed = 1;
nodes = (
(428,790,l),
(599,926,l),
(546,926,l),
(397,884,l),
(248,926,l),
(195,926,l),
(366,790,l)
);
}
);
};
layerId = "3AE1663F-34E8-4710-91A2-69F84C961E5F";
shapes = (
{
ref = D;
},
{
pos = (187,0);
ref = caroncomb.case;
}
);
width = 798;
}
);
unicode = 270;
},
{
glyphname = Dcroat;
kernRight = D;
lastChange = "2023-02-02 17:07:23 +0000";
layers = (
{
background = {
anchors = (
{
name = bottom;
pos = (389,0);
},
{
name = center;
pos = (389,377);
},
{
name = top;
pos = (389,754);
}
);
shapes = (
{
closed = 1;
nodes = (
(381,367,l),
(381,402,l),
(16,402,l),
(16,367,l)
);
},
{
closed = 1;
nodes = (
(376,0,ls),
(576,0,o),
(733,179,o),
(733,377,cs),
(733,575,o),
(577,754,o),
(377,754,cs),
(11,754,l),
(11,729,l),
(345,729,ls),
(509,729,o),
(573,663,o),
(573,377,cs),
(573,91,o),
(510,25,o),
(346,25,cs),
(11,25,l),
(11,0,l)
);
},
{
closed = 1;
nodes = (
(255,15,l),
(255,754,l),
(121,754,l),
(121,15,l)
);
}
);
};
layerId = UUID0;
shapes = (
{
ref = Eth;
}
);
width = 777;
},
{
background = {
anchors = (
{
name = bottom;
pos = (399,0);
},
{
name = center;
pos = (399,377);
},
{
name = top;
pos = (399,754);
}
);
shapes = (
{
closed = 1;
nodes = (
(411,361,l),
(411,408,l),
(16,408,l),
(16,361,l)
);
},
{
closed = 1;
nodes = (
(411,0,ls),
(611,0,o),
(768,180,o),
(768,380,cs),
(768,578,o),
(615,754,o),
(421,754,cs),
(20,754,l),
(20,724,l),
(390,724,ls),
(527,724,o),
(578,657,o),
(578,379,cs),
(578,95,o),
(525,30,o),
(381,30,cs),
(20,30,l),
(20,0,l)
);
},
{
closed = 1;
nodes = (
(273,15,l),
(273,754,l),
(115,754,l),
(115,15,l)
);
}
);
};
layerId = "3AE1663F-34E8-4710-91A2-69F84C961E5F";
shapes = (
{
ref = Eth;
}
);
width = 798;
}
);
unicode = 272;
},
{
glyphname = Ddotbelow;
kernLeft = D;
kernRight = D;
lastChange = "2023-02-02 17:07:23 +0000";
layers = (
{
background = {
anchors = (
{
name = bottom;
pos = (389,-231);
},
{
name = center;
pos = (389,377);
},
{
name = top;
pos = (389,754);
}
);
shapes = (
{
closed = 1;
nodes = (
(376,0,ls),
(576,0,o),
(733,179,o),
(733,377,cs),
(733,575,o),
(577,754,o),
(377,754,cs),
(11,754,l),
(11,729,l),
(345,729,ls),
(509,729,o),
(573,663,o),
(573,377,cs),
(573,91,o),
(510,25,o),
(346,25,cs),
(11,25,l),
(11,0,l)
);
},
{
closed = 1;
nodes = (
(255,15,l),
(255,754,l),
(121,754,l),
(121,15,l)
);
},
{
closed = 1;
nodes = (
(425,-231,o),
(455,-201,o),
(455,-165,cs),
(455,-129,o),
(425,-99,o),
(389,-99,cs),
(353,-99,o),
(323,-129,o),
(323,-165,cs),
(323,-201,o),
(353,-231,o),
(389,-231,cs)
);
}
);
};
layerId = UUID0;
shapes = (
{
ref = D;
},
{
pos = (105,0);
ref = dotbelowcomb;
}
);
width = 777;
},
{
background = {
anchors = (
{
name = bottom;
pos = (399,-260);
},
{
name = center;
pos = (399,377);
},
{
name = top;
pos = (399,754);
}
);
shapes = (
{
closed = 1;
nodes = (
(411,0,ls),
(611,0,o),
(768,180,o),
(768,380,cs),
(768,578,o),
(615,754,o),
(421,754,cs),
(20,754,l),
(20,724,l),
(390,724,ls),
(527,724,o),
(578,657,o),
(578,379,cs),
(578,95,o),
(525,30,o),
(381,30,cs),
(20,30,l),
(20,0,l)
);
},
{
closed = 1;
nodes = (
(273,15,l),
(273,754,l),
(115,754,l),
(115,15,l)
);
},
{
closed = 1;
nodes = (
(442,-260,o),
(479,-223,o),
(479,-180,cs),
(479,-136,o),
(442,-99,o),
(398,-99,cs),
(355,-99,o),
(318,-136,o),
(318,-180,cs),
(318,-223,o),
(355,-260,o),
(398,-260,cs)
);
}
);
};
layerId = "3AE1663F-34E8-4710-91A2-69F84C961E5F";
shapes = (
{
ref = D;
},
{
pos = (106,0);
ref = dotbelowcomb;
}
);
width = 798;
}
);
unicode = 7692;
},
{
glyphname = Dz;
kernLeft = D;
kernRight = z;
lastChange = "2023-02-02 17:07:23 +0000";
layers = (
{
background = {
anchors = (
{
name = bottom;
pos = (1017,0);
},
{
name = center;
pos = (389,377);
},
{
name = top;
pos = (1017,450);
}
);
shapes = (
{
closed = 1;
nodes = (
(376,0,ls),
(576,0,o),
(733,179,o),
(733,377,cs),
(733,575,o),
(577,754,o),
(377,754,cs),
(11,754,l),
(11,729,l),
(345,729,ls),
(509,729,o),
(573,663,o),
(573,377,cs),
(573,91,o),
(510,25,o),
(346,25,cs),
(11,25,l),
(11,0,l)
);
},
{
closed = 1;
nodes = (
(255,15,l),
(255,754,l),
(121,754,l),
(121,15,l)
);
},
{
closed = 1;
nodes = (
(938,15,l),
(1199,415,l),
(1185,440,l),
(1091,440,l),
(823,35,l),
(826,15,l)
);
},
{
closed = 1;
nodes = (
(1208,0,l),
(1208,185,l),
(1183,185,l),
(1182,169,ls),
(1178,73,o),
(1119,25,o),
(1045,25,cs),
(831,25,l),
(823,35,l),
(823,0,l)
);
},
{
closed = 1;
nodes = (
(870,275,l),
(872,357,o),
(921,425,o),
(1008,425,cs),
(1191,425,l),
(1199,415,l),
(1199,450,l),
(845,450,l),
(845,275,l)
);
}
);
};
layerId = UUID0;
shapes = (
{
ref = D;
},
{
pos = (777,0);
ref = z;
}
);
width = 1257;
},
{
background = {
anchors = (
{
name = bottom;
pos = (1036,0);
},
{
name = center;
pos = (399,377);
},
{
name = top;
pos = (1036,450);
}
);
shapes = (
{
closed = 1;
nodes = (
(411,0,ls),
(611,0,o),
(768,180,o),
(768,380,cs),
(768,578,o),
(615,754,o),
(421,754,cs),
(20,754,l),
(20,724,l),
(390,724,ls),
(527,724,o),
(578,657,o),
(578,379,cs),
(578,95,o),
(525,30,o),
(381,30,cs),
(20,30,l),
(20,0,l)
);
},
{
closed = 1;
nodes = (
(273,15,l),
(273,754,l),
(115,754,l),
(115,15,l)
);
},
{
closed = 1;
nodes = (
(973,15,l),
(1244,416,l),
(1230,441,l),
(1101,441,l),
(823,35,l),
(826,15,l)
);
},
{
closed = 1;
nodes = (
(1238,0,l),
(1238,185,l),
(1208,185,l),
(1207,169,ls),
(1203,76,o),
(1144,30,o),
(1070,30,cs),
(831,30,l),
(823,35,l),
(823,0,l)
);
},
{
closed = 1;
nodes = (
(885,275,l),
(887,354,o),
(936,420,o),
(1023,420,cs),
(1236,420,l),
(1244,416,l),
(1244,450,l),
(855,450,l),
(855,275,l)
);
}
);
};
layerId = "3AE1663F-34E8-4710-91A2-69F84C961E5F";
shapes = (
{
ref = D;
},
{
pos = (798,0);
ref = z;
}
);
width = 1274;
}
);
unicode = 498;
},
{
glyphname = Dzcaron;
kernLeft = D;
kernRight = z;
lastChange = "2023-02-02 17:07:23 +0000";
layers = (
{
background = {
anchors = (
{
name = bottom;
pos = (1017,0);
},
{
name = center;
pos = (389,377);
},
{
name = top;
pos = (1017,450);
}
);
shapes = (
{
closed = 1;
nodes = (
(376,0,ls),
(576,0,o),
(733,179,o),
(733,377,cs),
(733,575,o),
(577,754,o),
(377,754,cs),
(11,754,l),
(11,729,l),
(345,729,ls),
(509,729,o),
(573,663,o),
(573,377,cs),
(573,91,o),
(510,25,o),
(346,25,cs),
(11,25,l),
(11,0,l)
);
},
{
closed = 1;
nodes = (
(255,15,l),
(255,754,l),
(121,754,l),
(121,15,l)
);
},
{
closed = 1;
nodes = (
(938,15,l),
(1199,415,l),
(1185,440,l),
(1091,440,l),
(823,35,l),
(826,15,l)
);
},
{
closed = 1;
nodes = (
(1208,0,l),
(1208,185,l),
(1183,185,l),
(1182,169,ls),
(1178,73,o),
(1119,25,o),
(1045,25,cs),
(831,25,l),
(823,35,l),
(823,0,l)
);
},
{
closed = 1;
nodes = (
(870,275,l),
(872,357,o),
(921,425,o),
(1008,425,cs),
(1191,425,l),
(1199,415,l),
(1199,450,l),
(845,450,l),
(845,275,l)
);
},
{
closed = 1;
nodes = (
(1050,489,l),
(1181,621,l),
(1138,621,l),
(1019,560,l),
(900,621,l),
(857,621,l),
(988,489,l)
);
}
);
};
layerId = UUID0;
shapes = (
{
ref = D;
},
{
pos = (777,0);
ref = zcaron;
}
);
width = 1257;
},
{
background = {
anchors = (
{
name = bottom;
pos = (1036,0);
},
{
name = center;
pos = (399,377);
},
{
name = top;
pos = (1036,450);
}
);
shapes = (
{
closed = 1;
nodes = (
(411,0,ls),
(611,0,o),
(768,180,o),
(768,380,cs),
(768,578,o),
(615,754,o),
(421,754,cs),
(20,754,l),
(20,724,l),
(390,724,ls),
(527,724,o),
(578,657,o),
(578,379,cs),
(578,95,o),
(525,30,o),
(381,30,cs),
(20,30,l),
(20,0,l)
);
},
{
closed = 1;
nodes = (
(273,15,l),
(273,754,l),
(115,754,l),
(115,15,l)
);
},
{
closed = 1;
nodes = (
(973,15,l),
(1244,416,l),
(1230,441,l),
(1101,441,l),
(823,35,l),
(826,15,l)
);
},
{
closed = 1;
nodes = (
(1238,0,l),
(1238,185,l),
(1208,185,l),
(1207,169,ls),
(1203,76,o),
(1144,30,o),
(1070,30,cs),
(831,30,l),
(823,35,l),
(823,0,l)
);
},
{
closed = 1;
nodes = (
(885,275,l),
(887,354,o),
(936,420,o),
(1023,420,cs),
(1236,420,l),
(1244,416,l),
(1244,450,l),
(855,450,l),
(855,275,l)
);
},
{
closed = 1;
nodes = (
(1065,486,l),
(1236,622,l),
(1183,622,l),
(1034,580,l),
(885,622,l),
(832,622,l),
(1003,486,l)
);
}
);
};
layerId = "3AE1663F-34E8-4710-91A2-69F84C961E5F";
shapes = (
{
ref = D;
},
{
pos = (798,0);
ref = zcaron;
}
);
width = 1274;
}
);
unicode = 453;
},
{
glyphname = E;
kernLeft = E;
kernRight = E;
lastChange = "2023-02-02 17:07:23 +0000";
layers = (
{
anchors = (
{
name = bottom;
pos = (346,0);
},
{
name = ogonek;
pos = (622,10);
},
{
name = top;
pos = (346,754);
},
{
name = topleft;
pos = (20,754);
}
);
background = {
anchors = (
{
name = bottom;
pos = (346,0);
},
{
name = ogonek;
pos = (622,10);
},
{
name = top;
pos = (346,754);
},
{
name = topleft;
pos = (20,754);
}
);
shapes = (
{
closed = 1;
nodes = (
(639,0,l),
(639,235,l),
(604,235,l),
(602,123,o),
(545,25,o),
(446,25,cs),
(8,25,l),
(8,0,l)
);
},
{
closed = 1;
nodes = (
(260,15,l),
(260,744,l),
(126,744,l),
(126,15,l)
);
},
{
closed = 1;
nodes = (
(450,216,l),
(450,526,l),
(415,526,l),
(415,418,o),
(381,388,o),
(257,388,c),
(257,363,l),
(381,363,o),
(412,328,o),
(415,216,c)
);
},
{
closed = 1;
nodes = (
(609,549,l),
(609,754,l),
(8,754,l),
(8,729,l),
(416,729,ls),
(515,729,o),
(572,646,o),
(574,549,c)
);
}
);
};
layerId = UUID0;
shapes = (
{
closed = 1;
nodes = (
(639,0,l),
(639,235,l),
(604,235,l),
(602,123,o),
(545,25,o),
(446,25,cs),
(8,25,l),
(8,0,l)
);
},
{
closed = 1;
nodes = (
(260,15,l),
(260,744,l),
(126,744,l),
(126,15,l)
);
},
{
closed = 1;
nodes = (
(450,216,l),
(450,526,l),
(415,526,l),
(415,418,o),
(381,388,o),
(257,388,c),
(257,363,l),
(381,363,o),
(412,328,o),
(415,216,c)
);
},
{
closed = 1;
nodes = (
(609,549,l),
(609,754,l),
(8,754,l),
(8,729,l),
(416,729,ls),
(515,729,o),
(572,646,o),
(574,549,c)
);
}
);
width = 691;
},
{
anchors = (
{
name = bottom;
pos = (348,0);
},
{
name = ogonek;
pos = (626,10);
},
{
name = top;
pos = (348,754);
},
{
name = topleft;
pos = (20,754);
}
);
background = {
anchors = (
{
name = bottom;
pos = (348,0);
},
{
name = ogonek;
pos = (626,10);
},
{
name = top;
pos = (348,754);
},
{
name = topleft;
pos = (20,754);
}
);
shapes = (
{
closed = 1;
nodes = (
(661,0,l),
(661,245,l),
(621,245,l),
(619,131,o),
(554,30,o),
(443,30,cs),
(20,30,l),
(20,0,l)
);
},
{
closed = 1;
nodes = (
(273,15,l),
(273,754,l),
(115,754,l),
(115,15,l)
);
},
{
closed = 1;
nodes = (
(492,216,l),
(492,516,l),
(452,516,l),
(450,427,o),
(401,386,o),
(269,386,c),
(269,356,l),
(401,356,o),
(450,312,o),
(452,216,c)
);
},
{
closed = 1;
nodes = (
(646,554,l),
(646,754,l),
(20,754,l),
(20,724,l),
(443,724,ls),
(545,724,o),
(604,646,o),
(606,554,c)
);
}
);
};
layerId = "3AE1663F-34E8-4710-91A2-69F84C961E5F";
shapes = (
{
closed = 1;
nodes = (
(661,0,l),
(661,245,l),
(621,245,l),
(619,131,o),
(554,30,o),
(443,30,cs),
(20,30,l),
(20,0,l)
);
},
{
closed = 1;
nodes = (
(273,15,l),
(273,754,l),
(115,754,l),
(115,15,l)
);
},
{
closed = 1;
nodes = (
(492,216,l),
(492,516,l),
(452,516,l),
(450,427,o),
(401,386,o),
(269,386,c),
(269,356,l),
(401,356,o),
(450,312,o),
(452,216,c)
);
},
{
closed = 1;
nodes = (
(646,554,l),
(646,754,l),
(20,754,l),
(20,724,l),
(443,724,ls),
(545,724,o),
(604,646,o),
(606,554,c)
);
}
);
width = 696;
}
);
unicode = 69;
},
{
glyphname = Eacute;
kernLeft = E;
kernRight = E;
lastChange = "2023-02-02 17:07:23 +0000";
layers = (
{
background = {
anchors = (
{
name = bottom;
pos = (346,0);
},
{
name = ogonek;
pos = (622,10);
},
{
name = top;
pos = (346,959);
},
{
name = topleft;
pos = (20,754);
}
);
shapes = (
{
closed = 1;
nodes = (
(639,0,l),
(639,235,l),
(604,235,l),
(602,123,o),
(545,25,o),
(446,25,cs),
(8,25,l),
(8,0,l)
);
},
{
closed = 1;
nodes = (
(260,15,l),
(260,744,l),
(126,744,l),
(126,15,l)
);
},
{
closed = 1;
nodes = (
(450,216,l),
(450,526,l),
(415,526,l),
(415,418,o),
(381,388,o),
(257,388,c),
(257,363,l),
(381,363,o),
(412,328,o),
(415,216,c)
);
},
{
closed = 1;
nodes = (
(609,549,l),
(609,754,l),
(8,754,l),
(8,729,l),
(416,729,ls),
(515,729,o),
(572,646,o),
(574,549,c)
);
},
{
closed = 1;
nodes = (
(255,827,l),
(430,863,ls),
(463,870,o),
(480,890,o),
(480,916,cs),
(480,942,o),
(464,959,o),
(436,959,cs),
(422,959,o),
(410,953,o),
(363,923,cs),
(212,827,l)
);
}
);
};
layerId = UUID0;
shapes = (
{
ref = E;
},
{
pos = (202,35);
ref = acutecomb.case;
}
);
width = 691;
},
{
background = {
anchors = (
{
name = bottom;
pos = (348,0);
},
{
name = ogonek;
pos = (626,10);
},
{
name = top;
pos = (348,960);
},
{
name = topleft;
pos = (20,754);
}
);
shapes = (
{
closed = 1;
nodes = (
(661,0,l),
(661,245,l),
(621,245,l),
(619,131,o),
(554,30,o),
(443,30,cs),
(20,30,l),
(20,0,l)
);
},
{
closed = 1;
nodes = (
(273,15,l),
(273,754,l),
(115,754,l),
(115,15,l)
);
},
{
closed = 1;
nodes = (
(492,216,l),
(492,516,l),
(452,516,l),
(450,427,o),
(401,386,o),
(269,386,c),
(269,356,l),
(401,356,o),
(450,312,o),
(452,216,c)
);
},
{
closed = 1;
nodes = (
(646,554,l),
(646,754,l),
(20,754,l),
(20,724,l),
(443,724,ls),
(545,724,o),
(604,646,o),
(606,554,c)
);
},
{
closed = 1;
nodes = (
(264,823,l),
(441,858,ls),
(485,867,o),
(494,891,o),
(494,914,cs),
(494,938,o),
(477,960,o),
(444,960,cs),
(415,960,o),
(397,950,o),
(362,927,cs),
(201,823,l)
);
}
);
};
layerId = "3AE1663F-34E8-4710-91A2-69F84C961E5F";
shapes = (
{
ref = E;
},
{
pos = (191,37);
ref = acutecomb.case;
}
);
width = 696;
}
);
unicode = 201;
},
{
glyphname = Ebreve;
kernLeft = E;
kernRight = E;
lastChange = "2023-02-02 17:07:23 +0000";
layers = (
{
background = {
anchors = (
{
name = bottom;
pos = (346,0);
},
{
name = ogonek;
pos = (622,10);
},
{
name = top;
pos = (346,952);
},
{
name = topleft;
pos = (20,754);
}
);
shapes = (
{
closed = 1;
nodes = (
(639,0,l),
(639,235,l),
(604,235,l),
(602,123,o),
(545,25,o),
(446,25,cs),
(8,25,l),
(8,0,l)
);
},
{
closed = 1;
nodes = (
(260,15,l),
(260,744,l),
(126,744,l),
(126,15,l)
);
},
{
closed = 1;
nodes = (
(450,216,l),
(450,526,l),
(415,526,l),
(415,418,o),
(381,388,o),
(257,388,c),
(257,363,l),
(381,363,o),
(412,328,o),
(415,216,c)
);
},
{
closed = 1;
nodes = (
(609,549,l),
(609,754,l),
(8,754,l),
(8,729,l),
(416,729,ls),
(515,729,o),
(572,646,o),
(574,549,c)
);
},
{
closed = 1;
nodes = (
(452,820,o),
(482,875,o),
(482,952,c),
(448,952,l),
(445,908,o),
(415,888,o),
(344,888,cs),
(274,888,o),
(246,906,o),
(243,952,c),
(209,952,l),
(209,871,o),
(243,820,o),
(346,820,cs)
);
}
);
};
layerId = UUID0;
shapes = (
{
ref = E;
},
{
pos = (179,61);
ref = brevecomb.case;
}
);
width = 691;
},
{
background = {
anchors = (
{
name = bottom;
pos = (348,0);
},
{
name = ogonek;
pos = (626,10);
},
{
name = top;
pos = (348,962);
},
{
name = topleft;
pos = (20,754);
}
);
shapes = (
{
closed = 1;
nodes = (
(661,0,l),
(661,245,l),
(621,245,l),
(619,131,o),
(554,30,o),
(443,30,cs),
(20,30,l),
(20,0,l)
);
},
{
closed = 1;
nodes = (
(273,15,l),
(273,754,l),
(115,754,l),
(115,15,l)
);
},
{
closed = 1;
nodes = (
(492,216,l),
(492,516,l),
(452,516,l),
(450,427,o),
(401,386,o),
(269,386,c),
(269,356,l),
(401,356,o),
(450,312,o),
(452,216,c)
);
},
{
closed = 1;
nodes = (
(646,554,l),
(646,754,l),
(20,754,l),
(20,724,l),
(443,724,ls),
(545,724,o),
(604,646,o),
(606,554,c)
);
},
{
closed = 1;
nodes = (
(441,825,o),
(494,885,o),
(494,962,c),
(450,962,l),
(447,932,o),
(397,918,o),
(346,918,cs),
(296,918,o),
(248,930,o),
(245,962,c),
(201,962,l),
(201,881,o),
(258,825,o),
(348,825,cs)
);
}
);
};
layerId = "3AE1663F-34E8-4710-91A2-69F84C961E5F";
shapes = (
{
ref = E;
},
{
pos = (171,41);
ref = brevecomb.case;
}
);
width = 696;
}
);
unicode = 276;
},
{
glyphname = Ecaron;
kernLeft = E;
kernRight = E;
lastChange = "2023-02-02 17:07:23 +0000";
layers = (
{
background = {
anchors = (
{
name = bottom;
pos = (346,0);
},
{
name = ogonek;
pos = (622,10);
},
{
name = top;
pos = (346,754);
},
{
name = topleft;
pos = (20,754);
}
);
shapes = (
{
closed = 1;
nodes = (
(639,0,l),
(639,235,l),
(604,235,l),
(602,123,o),
(545,25,o),
(446,25,cs),
(8,25,l),
(8,0,l)
);
},
{
closed = 1;
nodes = (
(260,15,l),
(260,744,l),
(126,744,l),
(126,15,l)
);
},
{
closed = 1;
nodes = (
(450,216,l),
(450,526,l),
(415,526,l),
(415,418,o),
(381,388,o),
(257,388,c),
(257,363,l),
(381,363,o),
(412,328,o),
(415,216,c)
);
},
{
closed = 1;
nodes = (
(609,549,l),
(609,754,l),
(8,754,l),
(8,729,l),
(416,729,ls),
(515,729,o),
(572,646,o),
(574,549,c)
);
},
{
closed = 1;
nodes = (
(379,793,l),
(510,925,l),
(467,925,l),
(348,864,l),
(229,925,l),
(186,925,l),
(317,793,l)
);
}
);
};
layerId = UUID0;
shapes = (
{
ref = E;
},
{
pos = (174,0);
ref = caroncomb.case;
}
);
width = 691;
},
{
background = {
anchors = (
{
name = bottom;
pos = (348,0);
},
{
name = ogonek;
pos = (626,10);
},
{
name = top;
pos = (348,754);
},
{
name = topleft;
pos = (20,754);
}
);
shapes = (
{
closed = 1;
nodes = (
(661,0,l),
(661,245,l),
(621,245,l),
(619,131,o),
(554,30,o),
(443,30,cs),
(20,30,l),
(20,0,l)
);
},
{
closed = 1;
nodes = (
(273,15,l),
(273,754,l),
(115,754,l),
(115,15,l)
);
},
{
closed = 1;
nodes = (
(492,216,l),
(492,516,l),
(452,516,l),
(450,427,o),
(401,386,o),
(269,386,c),
(269,356,l),
(401,356,o),
(450,312,o),
(452,216,c)
);
},
{
closed = 1;
nodes = (
(646,554,l),
(646,754,l),
(20,754,l),
(20,724,l),
(443,724,ls),
(545,724,o),
(604,646,o),
(606,554,c)
);
},
{
closed = 1;
nodes = (
(377,790,l),
(548,926,l),
(495,926,l),
(346,884,l),
(197,926,l),
(144,926,l),
(315,790,l)
);
}
);
};
layerId = "3AE1663F-34E8-4710-91A2-69F84C961E5F";
shapes = (
{
ref = E;
},
{
pos = (136,0);
ref = caroncomb.case;
}
);
width = 696;
}
);
unicode = 282;
},
{
glyphname = Ecircumflex;
kernLeft = E;
kernRight = E;
lastChange = "2023-02-02 17:07:23 +0000";
layers = (
{
background = {
anchors = (
{
name = bottom;
pos = (346,0);
},
{
name = ogonek;
pos = (622,10);
},
{
name = top;
pos = (346,881);
},
{
name = topleft;
pos = (20,754);
}
);
shapes = (
{
closed = 1;
nodes = (
(639,0,l),
(639,235,l),
(604,235,l),
(602,123,o),
(545,25,o),
(446,25,cs),
(8,25,l),
(8,0,l)
);
},
{
closed = 1;
nodes = (
(260,15,l),
(260,744,l),
(126,744,l),
(126,15,l)
);
},
{
closed = 1;
nodes = (
(450,216,l),
(450,526,l),
(415,526,l),
(415,418,o),
(381,388,o),
(257,388,c),
(257,363,l),
(381,363,o),
(412,328,o),
(415,216,c)
);
},
{
closed = 1;
nodes = (
(609,549,l),
(609,754,l),
(8,754,l),
(8,729,l),
(416,729,ls),
(515,729,o),
(572,646,o),
(574,549,c)
);
},
{
closed = 1;
nodes = (
(237,824,l),
(346,875,l),
(455,824,l),
(498,824,l),
(377,936,l),
(315,936,l),
(194,824,l)
);
}
);
};
layerId = UUID0;
shapes = (
{
ref = E;
},
{
pos = (174,11);
ref = circumflexcomb.case;
}
);
width = 691;
},
{
background = {
anchors = (
{
name = bottom;
pos = (348,0);
},
{
name = ogonek;
pos = (626,10);
},
{
name = top;
pos = (348,893);
},
{
name = topleft;
pos = (20,754);
}
);
shapes = (
{
closed = 1;
nodes = (
(661,0,l),
(661,245,l),
(621,245,l),
(619,131,o),
(554,30,o),
(443,30,cs),
(20,30,l),
(20,0,l)
);
},
{
closed = 1;
nodes = (
(273,15,l),
(273,754,l),
(115,754,l),
(115,15,l)
);
},
{
closed = 1;
nodes = (
(492,216,l),
(492,516,l),
(452,516,l),
(450,427,o),
(401,386,o),
(269,386,c),
(269,356,l),
(401,356,o),
(450,312,o),
(452,216,c)
);
},
{
closed = 1;
nodes = (
(646,554,l),
(646,754,l),
(20,754,l),
(20,724,l),
(443,724,ls),
(545,724,o),
(604,646,o),
(606,554,c)
);
},
{
closed = 1;
nodes = (
(229,827,l),
(348,869,l),
(467,827,l),
(520,827,l),
(379,943,l),
(317,943,l),
(176,827,l)
);
}
);
};
layerId = "3AE1663F-34E8-4710-91A2-69F84C961E5F";
shapes = (
{
ref = E;
},
{
pos = (136,20);
ref = circumflexcomb.case;
}
);
width = 696;
}
);
unicode = 202;
},
{
glyphname = Ecircumflexacute;
kernLeft = E;
kernRight = E;
lastChange = "2023-02-02 17:07:23 +0000";
layers = (
{
background = {
anchors = (
{
name = bottom;
pos = (346,0);
},
{
name = ogonek;
pos = (622,10);
},
{
name = top;
pos = (346,1161);
},
{
name = topleft;
pos = (20,754);
}
);
shapes = (
{
closed = 1;
nodes = (
(639,0,l),
(639,235,l),
(604,235,l),
(602,123,o),
(545,25,o),
(446,25,cs),
(8,25,l),
(8,0,l)
);
},
{
closed = 1;
nodes = (
(260,15,l),
(260,744,l),
(126,744,l),
(126,15,l)
);
},
{
closed = 1;
nodes = (
(450,216,l),
(450,526,l),
(415,526,l),
(415,418,o),
(381,388,o),
(257,388,c),
(257,363,l),
(381,363,o),
(412,328,o),
(415,216,c)
);
},
{
closed = 1;
nodes = (
(609,549,l),
(609,754,l),
(8,754,l),
(8,729,l),
(416,729,ls),
(515,729,o),
(572,646,o),
(574,549,c)
);
},
{
closed = 1;
nodes = (
(237,824,l),
(346,875,l),
(455,824,l),
(498,824,l),
(377,936,l),
(315,936,l),
(194,824,l)
);
},
{
closed = 1;
nodes = (
(255,954,l),
(430,990,ls),
(463,997,o),
(480,1017,o),
(480,1043,cs),
(480,1069,o),
(464,1086,o),
(436,1086,cs),
(422,1086,o),
(410,1080,o),
(363,1050,cs),
(212,954,l)
);
}
);
};
layerId = UUID0;
shapes = (
{
ref = E;
},
{
pos = (56,304);
ref = circumflexcomb_acutecomb;
}
);
width = 691;
},
{
background = {
anchors = (
{
name = bottom;
pos = (348,0);
},
{
name = ogonek;
pos = (626,10);
},
{
name = top;
pos = (348,1169);
},
{
name = topleft;
pos = (20,754);
}
);
shapes = (
{
closed = 1;
nodes = (
(661,0,l),
(661,245,l),
(621,245,l),
(619,131,o),
(554,30,o),
(443,30,cs),
(20,30,l),
(20,0,l)
);
},
{
closed = 1;
nodes = (
(273,15,l),
(273,754,l),
(115,754,l),
(115,15,l)
);
},
{
closed = 1;
nodes = (
(492,216,l),
(492,516,l),
(452,516,l),
(450,427,o),
(401,386,o),
(269,386,c),
(269,356,l),
(401,356,o),
(450,312,o),
(452,216,c)
);
},
{
closed = 1;
nodes = (
(646,554,l),
(646,754,l),
(20,754,l),
(20,724,l),
(443,724,ls),
(545,724,o),
(604,646,o),
(606,554,c)
);
},
{
closed = 1;
nodes = (
(229,827,l),
(348,869,l),
(467,827,l),
(520,827,l),
(379,943,l),
(317,943,l),
(176,827,l)
);
},
{
closed = 1;
nodes = (
(264,979,l),
(441,1014,ls),
(485,1023,o),
(494,1047,o),
(494,1070,cs),
(494,1094,o),
(477,1116,o),
(444,1116,cs),
(415,1116,o),
(397,1106,o),
(362,1083,cs),
(201,979,l)
);
}
);
};
layerId = "3AE1663F-34E8-4710-91A2-69F84C961E5F";
shapes = (
{
ref = E;
},
{
pos = (52,304);
ref = circumflexcomb_acutecomb;
}
);
width = 696;
}
);
unicode = 7870;
},
{
glyphname = Ecircumflexdotbelow;
kernLeft = E;
kernRight = E;
lastChange = "2023-02-02 17:07:23 +0000";
layers = (
{
background = {
anchors = (
{
name = bottom;
pos = (346,-231);
},
{
name = ogonek;
pos = (622,10);
},
{
name = top;
pos = (346,881);
},
{
name = topleft;
pos = (20,754);
}
);
shapes = (
{
closed = 1;
nodes = (
(639,0,l),
(639,235,l),
(604,235,l),
(602,123,o),
(545,25,o),
(446,25,cs),
(8,25,l),
(8,0,l)
);
},
{
closed = 1;
nodes = (
(260,15,l),
(260,744,l),
(126,744,l),
(126,15,l)
);
},
{
closed = 1;
nodes = (
(450,216,l),
(450,526,l),
(415,526,l),
(415,418,o),
(381,388,o),
(257,388,c),
(257,363,l),
(381,363,o),
(412,328,o),
(415,216,c)
);
},
{
closed = 1;
nodes = (
(609,549,l),
(609,754,l),
(8,754,l),
(8,729,l),
(416,729,ls),
(515,729,o),
(572,646,o),
(574,549,c)
);
},
{
closed = 1;
nodes = (
(382,-231,o),
(412,-201,o),
(412,-165,cs),
(412,-129,o),
(382,-99,o),
(346,-99,cs),
(310,-99,o),
(280,-129,o),
(280,-165,cs),
(280,-201,o),
(310,-231,o),
(346,-231,cs)
);
},
{
closed = 1;
nodes = (
(237,824,l),
(346,875,l),
(455,824,l),
(498,824,l),
(377,936,l),
(315,936,l),
(194,824,l)
);
}
);
};
layerId = UUID0;
shapes = (
{
ref = E;
},
{
pos = (62,0);
ref = dotbelowcomb;
},
{
pos = (174,11);
ref = circumflexcomb.case;
}
);
width = 691;
},
{
background = {
anchors = (
{
name = bottom;
pos = (348,-260);
},
{
name = ogonek;
pos = (626,10);
},
{
name = top;
pos = (348,893);
},
{
name = topleft;
pos = (20,754);
}
);
shapes = (
{
closed = 1;
nodes = (
(661,0,l),
(661,245,l),
(621,245,l),
(619,131,o),
(554,30,o),
(443,30,cs),
(20,30,l),
(20,0,l)
);
},
{
closed = 1;
nodes = (
(273,15,l),
(273,754,l),
(115,754,l),
(115,15,l)
);
},
{
closed = 1;
nodes = (
(492,216,l),
(492,516,l),
(452,516,l),
(450,427,o),
(401,386,o),
(269,386,c),
(269,356,l),
(401,356,o),
(450,312,o),
(452,216,c)
);
},
{
closed = 1;
nodes = (
(646,554,l),
(646,754,l),
(20,754,l),
(20,724,l),
(443,724,ls),
(545,724,o),
(604,646,o),
(606,554,c)
);
},
{
closed = 1;
nodes = (
(391,-260,o),
(428,-223,o),
(428,-180,cs),
(428,-136,o),
(391,-99,o),
(347,-99,cs),
(304,-99,o),
(267,-136,o),
(267,-180,cs),
(267,-223,o),
(304,-260,o),
(347,-260,cs)
);
},
{
closed = 1;
nodes = (
(229,827,l),
(348,869,l),
(467,827,l),
(520,827,l),
(379,943,l),
(317,943,l),
(176,827,l)
);
}
);
};
layerId = "3AE1663F-34E8-4710-91A2-69F84C961E5F";
shapes = (
{
ref = E;
},
{
pos = (55,0);
ref = dotbelowcomb;
},
{
pos = (136,20);
ref = circumflexcomb.case;
}
);
width = 696;
}
);
unicode = 7878;
},
{
glyphname = Ecircumflexgrave;
kernLeft = E;
kernRight = E;
lastChange = "2023-02-02 17:07:23 +0000";
layers = (
{
background = {
anchors = (
{
name = bottom;
pos = (346,0);
},
{
name = ogonek;
pos = (622,10);
},
{
name = top;
pos = (346,1156);
},
{
name = topleft;
pos = (20,754);
}
);
shapes = (
{
closed = 1;
nodes = (
(639,0,l),
(639,235,l),
(604,235,l),
(602,123,o),
(545,25,o),
(446,25,cs),
(8,25,l),
(8,0,l)
);
},
{
closed = 1;
nodes = (
(260,15,l),
(260,744,l),
(126,744,l),
(126,15,l)
);
},
{
closed = 1;
nodes = (
(450,216,l),
(450,526,l),
(415,526,l),
(415,418,o),
(381,388,o),
(257,388,c),
(257,363,l),
(381,363,o),
(412,328,o),
(415,216,c)
);
},
{
closed = 1;
nodes = (
(609,549,l),
(609,754,l),
(8,754,l),
(8,729,l),
(416,729,ls),
(515,729,o),
(572,646,o),
(574,549,c)
);
},
{
closed = 1;
nodes = (
(237,824,l),
(346,875,l),
(455,824,l),
(498,824,l),
(377,936,l),
(315,936,l),
(194,824,l)
);
},
{
closed = 1;
nodes = (
(480,949,l),
(329,1045,ls),
(282,1075,o),
(270,1081,o),
(256,1081,cs),
(228,1081,o),
(212,1064,o),
(212,1038,cs),
(212,1012,o),
(229,992,o),
(262,985,cs),
(437,949,l)
);
}
);
};
layerId = UUID0;
shapes = (
{
ref = E;
},
{
pos = (56,304);
ref = circumflexcomb_gravecomb;
}
);
width = 691;
},
{
background = {
anchors = (
{
name = bottom;
pos = (348,0);
},
{
name = ogonek;
pos = (626,10);
},
{
name = top;
pos = (348,1193);
},
{
name = topleft;
pos = (20,754);
}
);
shapes = (
{
closed = 1;
nodes = (
(661,0,l),
(661,245,l),
(621,245,l),
(619,131,o),
(554,30,o),
(443,30,cs),
(20,30,l),
(20,0,l)
);
},
{
closed = 1;
nodes = (
(273,15,l),
(273,754,l),
(115,754,l),
(115,15,l)
);
},
{
closed = 1;
nodes = (
(492,216,l),
(492,516,l),
(452,516,l),
(450,427,o),
(401,386,o),
(269,386,c),
(269,356,l),
(401,356,o),
(450,312,o),
(452,216,c)
);
},
{
closed = 1;
nodes = (
(646,554,l),
(646,754,l),
(20,754,l),
(20,724,l),
(443,724,ls),
(545,724,o),
(604,646,o),
(606,554,c)
);
},
{
closed = 1;
nodes = (
(229,827,l),
(348,869,l),
(467,827,l),
(520,827,l),
(379,943,l),
(317,943,l),
(176,827,l)
);
},
{
closed = 1;
nodes = (
(494,986,l),
(333,1090,ls),
(298,1113,o),
(280,1123,o),
(251,1123,cs),
(218,1123,o),
(201,1101,o),
(201,1077,cs),
(201,1054,o),
(210,1030,o),
(254,1021,cs),
(431,986,l)
);
}
);
};
layerId = "3AE1663F-34E8-4710-91A2-69F84C961E5F";
shapes = (
{
ref = E;
},
{
pos = (52,304);
ref = circumflexcomb_gravecomb;
}
);
width = 696;
}
);
unicode = 7872;
},
{
glyphname = Ecircumflexhookabove;
kernLeft = E;
kernRight = E;
lastChange = "2023-02-02 17:07:23 +0000";
layers = (
{
background = {
anchors = (
{
name = bottom;
pos = (346,0);
},
{
name = ogonek;
pos = (622,10);
},
{
name = top;
pos = (346,1176);
},
{
name = topleft;
pos = (20,754);
}
);
shapes = (
{
closed = 1;
nodes = (
(639,0,l),
(639,235,l),
(604,235,l),
(602,123,o),
(545,25,o),
(446,25,cs),
(8,25,l),
(8,0,l)
);
},
{
closed = 1;
nodes = (
(260,15,l),
(260,744,l),
(126,744,l),
(126,15,l)
);
},
{
closed = 1;
nodes = (
(450,216,l),
(450,526,l),
(415,526,l),
(415,418,o),
(381,388,o),
(257,388,c),
(257,363,l),
(381,363,o),
(412,328,o),
(415,216,c)
);
},
{
closed = 1;
nodes = (
(609,549,l),
(609,754,l),
(8,754,l),
(8,729,l),
(416,729,ls),
(515,729,o),
(572,646,o),
(574,549,c)
);
},
{
closed = 1;
nodes = (
(237,824,l),
(346,875,l),
(455,824,l),
(498,824,l),
(377,936,l),
(315,936,l),
(194,824,l)
);
},
{
closed = 1;
nodes = (
(491,933,l),
(503,959,o),
(560,969,o),
(560,1009,cs),
(560,1066,o),
(520,1092,o),
(460,1092,cs),
(416,1092,o),
(367,1071,o),
(367,1012,cs),
(367,992,o),
(383,977,o),
(406,977,cs),
(427,977,o),
(438,985,o),
(438,999,cs),
(438,1017,o),
(425,1015,o),
(425,1027,cs),
(425,1042,o),
(441,1052,o),
(462,1052,cs),
(482,1052,o),
(501,1045,o),
(501,1007,cs),
(501,983,o),
(464,969,o),
(464,933,c)
);
}
);
};
layerId = UUID0;
shapes = (
{
ref = E;
},
{
pos = (56,304);
ref = circumflexcomb_hookabovecomb;
}
);
width = 691;
},
{
background = {
anchors = (
{
name = bottom;
pos = (348,0);
},
{
name = ogonek;
pos = (626,10);
},
{
name = top;
pos = (348,1203);
},
{
name = topleft;
pos = (20,754);
}
);
shapes = (
{
closed = 1;
nodes = (
(661,0,l),
(661,245,l),
(621,245,l),
(619,131,o),
(554,30,o),
(443,30,cs),
(20,30,l),
(20,0,l)
);
},
{
closed = 1;
nodes = (
(273,15,l),
(273,754,l),
(115,754,l),
(115,15,l)
);
},
{
closed = 1;
nodes = (
(492,216,l),
(492,516,l),
(452,516,l),
(450,427,o),
(401,386,o),
(269,386,c),
(269,356,l),
(401,356,o),
(450,312,o),
(452,216,c)
);
},
{
closed = 1;
nodes = (
(646,554,l),
(646,754,l),
(20,754,l),
(20,724,l),
(443,724,ls),
(545,724,o),
(604,646,o),
(606,554,c)
);
},
{
closed = 1;
nodes = (
(229,827,l),
(348,869,l),
(467,827,l),
(520,827,l),
(379,943,l),
(317,943,l),
(176,827,l)
);
},
{
closed = 1;
nodes = (
(518,945,l),
(518,995,o),
(592,976,o),
(592,1038,cs),
(592,1109,o),
(557,1138,o),
(484,1138,cs),
(424,1138,o),
(377,1111,o),
(377,1046,cs),
(377,1016,o),
(397,997,o),
(421,997,cs),
(438,997,o),
(460,1004,o),
(460,1023,cs),
(460,1051,o),
(439,1039,o),
(439,1063,cs),
(439,1077,o),
(456,1095,o),
(484,1095,cs),
(513,1095,o),
(530,1079,o),
(530,1047,cs),
(530,1023,o),
(479,1015,o),
(479,945,c)
);
}
);
};
layerId = "3AE1663F-34E8-4710-91A2-69F84C961E5F";
shapes = (
{
ref = E;
},
{
pos = (52,304);
ref = circumflexcomb_hookabovecomb;
}
);
width = 696;
}
);
unicode = 7874;
},
{
glyphname = Ecircumflextilde;
kernLeft = E;
kernRight = E;
lastChange = "2023-02-02 17:07:23 +0000";
layers = (
{
background = {
anchors = (
{
name = bottom;
pos = (346,0);
},
{
name = ogonek;
pos = (622,10);
},
{
name = top;
pos = (346,1159);
},
{
name = topleft;
pos = (20,754);
}
);
shapes = (
{
closed = 1;
nodes = (
(639,0,l),
(639,235,l),
(604,235,l),
(602,123,o),
(545,25,o),
(446,25,cs),
(8,25,l),
(8,0,l)
);
},
{
closed = 1;
nodes = (
(260,15,l),
(260,744,l),
(126,744,l),
(126,15,l)
);
},
{
closed = 1;
nodes = (
(450,216,l),
(450,526,l),
(415,526,l),
(415,418,o),
(381,388,o),
(257,388,c),
(257,363,l),
(381,363,o),
(412,328,o),
(415,216,c)
);
},
{
closed = 1;
nodes = (
(609,549,l),
(609,754,l),
(8,754,l),
(8,729,l),
(416,729,ls),
(515,729,o),
(572,646,o),
(574,549,c)
);
},
{
closed = 1;
nodes = (
(237,824,l),
(346,875,l),
(455,824,l),
(498,824,l),
(377,936,l),
(315,936,l),
(194,824,l)
);
},
{
closed = 1;
nodes = (
(203,989,l),
(210,1017,o),
(233,1038,o),
(266,1038,cs),
(313,1038,o),
(347,990,o),
(403,990,cs),
(472,990,o),
(508,1054,o),
(522,1117,c),
(488,1117,l),
(481,1096,o),
(463,1066,o),
(425,1066,cs),
(379,1066,o),
(342,1114,o),
(288,1114,cs),
(222,1114,o),
(180,1051,o),
(170,989,c)
);
}
);
};
layerId = UUID0;
shapes = (
{
ref = E;
},
{
pos = (56,304);
ref = circumflexcomb_tildecomb;
}
);
width = 691;
},
{
background = {
anchors = (
{
name = bottom;
pos = (348,0);
},
{
name = ogonek;
pos = (626,10);
},
{
name = top;
pos = (348,1166);
},
{
name = topleft;
pos = (20,754);
}
);
shapes = (
{
closed = 1;
nodes = (
(661,0,l),
(661,245,l),
(621,245,l),
(619,131,o),
(554,30,o),
(443,30,cs),
(20,30,l),
(20,0,l)
);
},
{
closed = 1;
nodes = (
(273,15,l),
(273,754,l),
(115,754,l),
(115,15,l)
);
},
{
closed = 1;
nodes = (
(492,216,l),
(492,516,l),
(452,516,l),
(450,427,o),
(401,386,o),
(269,386,c),
(269,356,l),
(401,356,o),
(450,312,o),
(452,216,c)
);
},
{
closed = 1;
nodes = (
(646,554,l),
(646,754,l),
(20,754,l),
(20,724,l),
(443,724,ls),
(545,724,o),
(604,646,o),
(606,554,c)
);
},
{
closed = 1;
nodes = (
(229,827,l),
(348,869,l),
(467,827,l),
(520,827,l),
(379,943,l),
(317,943,l),
(176,827,l)
);
},
{
closed = 1;
nodes = (
(185,1003,l),
(194,1027,o),
(225,1044,o),
(268,1044,cs),
(315,1044,o),
(349,1004,o),
(405,1004,cs),
(486,1004,o),
(528,1072,o),
(544,1140,c),
(510,1140,l),
(501,1123,o),
(477,1100,o),
(427,1100,cs),
(381,1100,o),
(344,1140,o),
(290,1140,cs),
(212,1140,o),
(164,1070,o),
(152,1003,c)
);
}
);
};
layerId = "3AE1663F-34E8-4710-91A2-69F84C961E5F";
shapes = (
{
ref = E;
},
{
pos = (52,304);
ref = circumflexcomb_tildecomb;
}
);
width = 696;
}
);
unicode = 7876;
},
{
glyphname = Edblgrave;
kernLeft = E;
kernRight = E;
lastChange = "2023-02-02 17:07:23 +0000";
layers = (
{
background = {
anchors = (
{
name = bottom;
pos = (346,0);
},
{
name = ogonek;
pos = (622,10);
},
{
name = top;
pos = (346,924);
},
{
name = topleft;
pos = (20,754);
}
);
shapes = (
{
closed = 1;
nodes = (
(639,0,l),
(639,235,l),
(604,235,l),
(602,123,o),
(545,25,o),
(446,25,cs),
(8,25,l),
(8,0,l)
);
},
{
closed = 1;
nodes = (
(260,15,l),
(260,744,l),
(126,744,l),
(126,15,l)
);
},
{
closed = 1;
nodes = (
(450,216,l),
(450,526,l),
(415,526,l),
(415,418,o),
(381,388,o),
(257,388,c),
(257,363,l),
(381,363,o),
(412,328,o),
(415,216,c)
);
},
{
closed = 1;
nodes = (
(609,549,l),
(609,754,l),
(8,754,l),
(8,729,l),
(416,729,ls),
(515,729,o),
(572,646,o),
(574,549,c)
);
},
{
closed = 1;
nodes = (
(549,792,l),
(431,884,ls),
(387,918,o),
(379,924,o),
(365,924,cs),
(337,924,o),
(321,907,o),
(321,881,cs),
(321,855,o),
(338,837,o),
(371,828,cs),
(506,792,l)
);
},
{
closed = 1;
nodes = (
(371,792,l),
(253,884,ls),
(209,918,o),
(201,924,o),
(187,924,cs),
(159,924,o),
(143,907,o),
(143,881,cs),
(143,855,o),
(160,837,o),
(193,828,cs),
(328,792,l)
);
}
);
};
layerId = UUID0;
shapes = (
{
ref = E;
},
{
pos = (133,0);
ref = dblgravecomb.case;
}
);
width = 691;
},
{
background = {
anchors = (
{
name = bottom;
pos = (348,0);
},
{
name = ogonek;
pos = (626,10);
},
{
name = top;
pos = (348,924);
},
{
name = topleft;
pos = (20,754);
}
);
shapes = (
{
closed = 1;
nodes = (
(661,0,l),
(661,245,l),
(621,245,l),
(619,131,o),
(554,30,o),
(443,30,cs),
(20,30,l),
(20,0,l)
);
},
{
closed = 1;
nodes = (
(273,15,l),
(273,754,l),
(115,754,l),
(115,15,l)
);
},
{
closed = 1;
nodes = (
(492,216,l),
(492,516,l),
(452,516,l),
(450,427,o),
(401,386,o),
(269,386,c),
(269,356,l),
(401,356,o),
(450,312,o),
(452,216,c)
);
},
{
closed = 1;
nodes = (
(646,554,l),
(646,754,l),
(20,754,l),
(20,724,l),
(443,724,ls),
(545,724,o),
(604,646,o),
(606,554,c)
);
},
{
closed = 1;
nodes = (
(605,787,l),
(444,891,ls),
(409,914,o),
(391,924,o),
(362,924,cs),
(329,924,o),
(312,902,o),
(312,878,cs),
(312,855,o),
(321,831,o),
(365,822,cs),
(542,787,l)
);
},
{
closed = 1;
nodes = (
(383,787,l),
(222,891,ls),
(187,914,o),
(169,924,o),
(140,924,cs),
(107,924,o),
(90,902,o),
(90,878,cs),
(90,855,o),
(99,831,o),
(143,822,cs),
(320,787,l)
);
}
);
};
layerId = "3AE1663F-34E8-4710-91A2-69F84C961E5F";
shapes = (
{
ref = E;
},
{
pos = (80,0);
ref = dblgravecomb.case;
}
);
width = 696;
}
);
unicode = 516;
},
{
glyphname = Edieresis;
kernLeft = E;
kernRight = E;
lastChange = "2023-02-02 17:07:23 +0000";
layers = (
{
background = {
anchors = (
{
name = bottom;
pos = (346,0);
},
{
name = ogonek;
pos = (622,10);
},
{
name = top;
pos = (346,754);
},
{
name = topleft;
pos = (20,754);
}
);
shapes = (
{
closed = 1;
nodes = (
(639,0,l),
(639,235,l),
(604,235,l),
(602,123,o),
(545,25,o),
(446,25,cs),
(8,25,l),
(8,0,l)
);
},
{
closed = 1;
nodes = (
(260,15,l),
(260,744,l),
(126,744,l),
(126,15,l)
);
},
{
closed = 1;
nodes = (
(450,216,l),
(450,526,l),
(415,526,l),
(415,418,o),
(381,388,o),
(257,388,c),
(257,363,l),
(381,363,o),
(412,328,o),
(415,216,c)
);
},
{
closed = 1;
nodes = (
(609,549,l),
(609,754,l),
(8,754,l),
(8,729,l),
(416,729,ls),
(515,729,o),
(572,646,o),
(574,549,c)
);
},
{
closed = 1;
nodes = (
(467,800,o),
(492,825,o),
(492,855,cs),
(492,885,o),
(467,910,o),
(437,910,cs),
(407,910,o),
(382,885,o),
(382,855,cs),
(382,825,o),
(407,800,o),
(437,800,cs)
);
},
{
closed = 1;
nodes = (
(277,800,o),
(302,825,o),
(302,855,cs),
(302,885,o),
(277,910,o),
(247,910,cs),
(217,910,o),
(192,885,o),
(192,855,cs),
(192,825,o),
(217,800,o),
(247,800,cs)
);
}
);
};
layerId = UUID0;
shapes = (
{
ref = E;
},
{
pos = (186,0);
ref = dieresiscomb.case;
}
);
width = 691;
},
{
background = {
anchors = (
{
name = bottom;
pos = (348,0);
},
{
name = ogonek;
pos = (626,10);
},
{
name = top;
pos = (348,754);
},
{
name = topleft;
pos = (20,754);
}
);
shapes = (
{
closed = 1;
nodes = (
(661,0,l),
(661,245,l),
(621,245,l),
(619,131,o),
(554,30,o),
(443,30,cs),
(20,30,l),
(20,0,l)
);
},
{
closed = 1;
nodes = (
(273,15,l),
(273,754,l),
(115,754,l),
(115,15,l)
);
},
{
closed = 1;
nodes = (
(492,216,l),
(492,516,l),
(452,516,l),
(450,427,o),
(401,386,o),
(269,386,c),
(269,356,l),
(401,356,o),
(450,312,o),
(452,216,c)
);
},
{
closed = 1;
nodes = (
(646,554,l),
(646,754,l),
(20,754,l),
(20,724,l),
(443,724,ls),
(545,724,o),
(604,646,o),
(606,554,c)
);
},
{
closed = 1;
nodes = (
(480,792,o),
(510,822,o),
(510,858,cs),
(510,894,o),
(480,924,o),
(444,924,cs),
(408,924,o),
(378,894,o),
(378,858,cs),
(378,822,o),
(408,792,o),
(444,792,cs)
);
},
{
closed = 1;
nodes = (
(290,792,o),
(320,822,o),
(320,858,cs),
(320,894,o),
(290,924,o),
(254,924,cs),
(218,924,o),
(188,894,o),
(188,858,cs),
(188,822,o),
(218,792,o),
(254,792,cs)
);
}
);
};
layerId = "3AE1663F-34E8-4710-91A2-69F84C961E5F";
shapes = (
{
ref = E;
},
{
pos = (177,0);
ref = dieresiscomb.case;
}
);
width = 696;
}
);
unicode = 203;
},
{
glyphname = Edotaccent;
kernLeft = E;
kernRight = E;
lastChange = "2023-02-02 17:07:23 +0000";
layers = (
{
background = {
anchors = (
{
name = bottom;
pos = (346,0);
},
{
name = ogonek;
pos = (622,10);
},
{
name = top;
pos = (346,754);
},
{
name = topleft;
pos = (20,754);
}
);
shapes = (
{
closed = 1;
nodes = (
(639,0,l),
(639,235,l),
(604,235,l),
(602,123,o),
(545,25,o),
(446,25,cs),
(8,25,l),
(8,0,l)
);
},
{
closed = 1;
nodes = (
(260,15,l),
(260,744,l),
(126,744,l),
(126,15,l)
);
},
{
closed = 1;
nodes = (
(450,216,l),
(450,526,l),
(415,526,l),
(415,418,o),
(381,388,o),
(257,388,c),
(257,363,l),
(381,363,o),
(412,328,o),
(415,216,c)
);
},
{
closed = 1;
nodes = (
(609,549,l),
(609,754,l),
(8,754,l),
(8,729,l),
(416,729,ls),
(515,729,o),
(572,646,o),
(574,549,c)
);
},
{
closed = 1;
nodes = (
(383,797,o),
(413,827,o),
(413,863,cs),
(413,899,o),
(383,929,o),
(347,929,cs),
(311,929,o),
(281,899,o),
(281,863,cs),
(281,827,o),
(311,797,o),
(347,797,cs)
);
}
);
};
layerId = UUID0;
shapes = (
{
ref = E;
},
{
pos = (270,0);
ref = dotaccentcomb.case;
}
);
width = 691;
},
{
background = {
anchors = (
{
name = bottom;
pos = (348,0);
},
{
name = ogonek;
pos = (626,10);
},
{
name = top;
pos = (348,754);
},
{
name = topleft;
pos = (20,754);
}
);
shapes = (
{
closed = 1;
nodes = (
(661,0,l),
(661,245,l),
(621,245,l),
(619,131,o),
(554,30,o),
(443,30,cs),
(20,30,l),
(20,0,l)
);
},
{
closed = 1;
nodes = (
(273,15,l),
(273,754,l),
(115,754,l),
(115,15,l)
);
},
{
closed = 1;
nodes = (
(492,216,l),
(492,516,l),
(452,516,l),
(450,427,o),
(401,386,o),
(269,386,c),
(269,356,l),
(401,356,o),
(450,312,o),
(452,216,c)
);
},
{
closed = 1;
nodes = (
(646,554,l),
(646,754,l),
(20,754,l),
(20,724,l),
(443,724,ls),
(545,724,o),
(604,646,o),
(606,554,c)
);
},
{
closed = 1;
nodes = (
(385,789,o),
(416,820,o),
(416,857,cs),
(416,895,o),
(385,926,o),
(347,926,cs),
(310,926,o),
(279,895,o),
(279,857,cs),
(279,820,o),
(310,789,o),
(347,789,cs)
);
}
);
};
layerId = "3AE1663F-34E8-4710-91A2-69F84C961E5F";
shapes = (
{
ref = E;
},
{
pos = (269,0);
ref = dotaccentcomb.case;
}
);
width = 696;
}
);
unicode = 278;
},
{
glyphname = Edotbelow;
kernLeft = E;
kernRight = E;
lastChange = "2023-02-02 17:07:23 +0000";
layers = (
{
background = {
anchors = (
{
name = bottom;
pos = (346,-231);
},
{
name = ogonek;
pos = (622,10);
},
{
name = top;
pos = (346,754);
},
{
name = topleft;
pos = (20,754);
}
);
shapes = (
{
closed = 1;
nodes = (
(639,0,l),
(639,235,l),
(604,235,l),
(602,123,o),
(545,25,o),
(446,25,cs),
(8,25,l),
(8,0,l)
);
},
{
closed = 1;
nodes = (
(260,15,l),
(260,744,l),
(126,744,l),
(126,15,l)
);
},
{
closed = 1;
nodes = (
(450,216,l),
(450,526,l),
(415,526,l),
(415,418,o),
(381,388,o),
(257,388,c),
(257,363,l),
(381,363,o),
(412,328,o),
(415,216,c)
);
},
{
closed = 1;
nodes = (
(609,549,l),
(609,754,l),
(8,754,l),
(8,729,l),
(416,729,ls),
(515,729,o),
(572,646,o),
(574,549,c)
);
},
{
closed = 1;
nodes = (
(382,-231,o),
(412,-201,o),
(412,-165,cs),
(412,-129,o),
(382,-99,o),
(346,-99,cs),
(310,-99,o),
(280,-129,o),
(280,-165,cs),
(280,-201,o),
(310,-231,o),
(346,-231,cs)
);
}
);
};
layerId = UUID0;
shapes = (
{
ref = E;
},
{
pos = (62,0);
ref = dotbelowcomb;
}
);
width = 691;
},
{
background = {
anchors = (
{
name = bottom;
pos = (348,-260);
},
{
name = ogonek;
pos = (626,10);
},
{
name = top;
pos = (348,754);
},
{
name = topleft;
pos = (20,754);
}
);
shapes = (
{
closed = 1;
nodes = (
(661,0,l),
(661,245,l),
(621,245,l),
(619,131,o),
(554,30,o),
(443,30,cs),
(20,30,l),
(20,0,l)
);
},
{
closed = 1;
nodes = (
(273,15,l),
(273,754,l),
(115,754,l),
(115,15,l)
);
},
{
closed = 1;
nodes = (
(492,216,l),
(492,516,l),
(452,516,l),
(450,427,o),
(401,386,o),
(269,386,c),
(269,356,l),
(401,356,o),
(450,312,o),
(452,216,c)
);
},
{
closed = 1;
nodes = (
(646,554,l),
(646,754,l),
(20,754,l),
(20,724,l),
(443,724,ls),
(545,724,o),
(604,646,o),
(606,554,c)
);
},
{
closed = 1;
nodes = (
(391,-260,o),
(428,-223,o),
(428,-180,cs),
(428,-136,o),
(391,-99,o),
(347,-99,cs),
(304,-99,o),
(267,-136,o),
(267,-180,cs),
(267,-223,o),
(304,-260,o),
(347,-260,cs)
);
}
);
};
layerId = "3AE1663F-34E8-4710-91A2-69F84C961E5F";
shapes = (
{
ref = E;
},
{
pos = (55,0);
ref = dotbelowcomb;
}
);
width = 696;
}
);
unicode = 7864;
},
{
glyphname = Egrave;
kernLeft = E;
kernRight = E;
lastChange = "2023-02-02 17:07:23 +0000";
layers = (
{
background = {
anchors = (
{
name = bottom;
pos = (346,0);
},
{
name = ogonek;
pos = (622,10);
},
{
name = top;
pos = (346,954);
},
{
name = topleft;
pos = (20,754);
}
);
shapes = (
{
closed = 1;
nodes = (
(639,0,l),
(639,235,l),
(604,235,l),
(602,123,o),
(545,25,o),
(446,25,cs),
(8,25,l),
(8,0,l)
);
},
{
closed = 1;
nodes = (
(260,15,l),
(260,744,l),
(126,744,l),
(126,15,l)
);
},
{
closed = 1;
nodes = (
(450,216,l),
(450,526,l),
(415,526,l),
(415,418,o),
(381,388,o),
(257,388,c),
(257,363,l),
(381,363,o),
(412,328,o),
(415,216,c)
);
},
{
closed = 1;
nodes = (
(609,549,l),
(609,754,l),
(8,754,l),
(8,729,l),
(416,729,ls),
(515,729,o),
(572,646,o),
(574,549,c)
);
},
{
closed = 1;
nodes = (
(480,822,l),
(329,918,ls),
(282,948,o),
(270,954,o),
(256,954,cs),
(228,954,o),
(212,937,o),
(212,911,cs),
(212,885,o),
(229,865,o),
(262,858,cs),
(437,822,l)
);
}
);
};
layerId = UUID0;
shapes = (
{
ref = E;
},
{
pos = (202,30);
ref = gravecomb.case;
}
);
width = 691;
},
{
background = {
anchors = (
{
name = bottom;
pos = (348,0);
},
{
name = ogonek;
pos = (626,10);
},
{
name = top;
pos = (348,984);
},
{
name = topleft;
pos = (20,754);
}
);
shapes = (
{
closed = 1;
nodes = (
(661,0,l),
(661,245,l),
(621,245,l),
(619,131,o),
(554,30,o),
(443,30,cs),
(20,30,l),
(20,0,l)
);
},
{
closed = 1;
nodes = (
(273,15,l),
(273,754,l),
(115,754,l),
(115,15,l)
);
},
{
closed = 1;
nodes = (
(492,216,l),
(492,516,l),
(452,516,l),
(450,427,o),
(401,386,o),
(269,386,c),
(269,356,l),
(401,356,o),
(450,312,o),
(452,216,c)
);
},
{
closed = 1;
nodes = (
(646,554,l),
(646,754,l),
(20,754,l),
(20,724,l),
(443,724,ls),
(545,724,o),
(604,646,o),
(606,554,c)
);
},
{
closed = 1;
nodes = (
(494,847,l),
(333,951,ls),
(298,974,o),
(280,984,o),
(251,984,cs),
(218,984,o),
(201,962,o),
(201,938,cs),
(201,915,o),
(210,891,o),
(254,882,cs),
(431,847,l)
);
}
);
};
layerId = "3AE1663F-34E8-4710-91A2-69F84C961E5F";
shapes = (
{
ref = E;
},
{
pos = (191,60);
ref = gravecomb.case;
}
);
width = 696;
}
);
unicode = 200;
},
{
glyphname = Ehookabove;
kernLeft = E;
kernRight = E;
lastChange = "2023-02-02 17:07:23 +0000";
layers = (
{
background = {
anchors = (
{
name = bottom;
pos = (346,0);
},
{
name = ogonek;
pos = (622,10);
},
{
name = top;
pos = (346,963);
},
{
name = topleft;
pos = (20,754);
}
);
shapes = (
{
closed = 1;
nodes = (
(639,0,l),
(639,235,l),
(604,235,l),
(602,123,o),
(545,25,o),
(446,25,cs),
(8,25,l),
(8,0,l)
);
},
{
closed = 1;
nodes = (
(260,15,l),
(260,744,l),
(126,744,l),
(126,15,l)
);
},
{
closed = 1;
nodes = (
(450,216,l),
(450,526,l),
(415,526,l),
(415,418,o),
(381,388,o),
(257,388,c),
(257,363,l),
(381,363,o),
(412,328,o),
(415,216,c)
);
},
{
closed = 1;
nodes = (
(609,549,l),
(609,754,l),
(8,754,l),
(8,729,l),
(416,729,ls),
(515,729,o),
(572,646,o),
(574,549,c)
);
},
{
closed = 1;
nodes = (
(373,828,l),
(385,854,o),
(442,864,o),
(442,904,cs),
(442,961,o),
(402,987,o),
(342,987,cs),
(298,987,o),
(249,966,o),
(249,907,cs),
(249,887,o),
(265,872,o),
(288,872,cs),
(309,872,o),
(320,880,o),
(320,894,cs),
(320,912,o),
(307,910,o),
(307,922,cs),
(307,937,o),
(323,947,o),
(344,947,cs),
(364,947,o),
(383,940,o),
(383,902,cs),
(383,878,o),
(346,864,o),
(346,828,c)
);
}
);
};
layerId = UUID0;
shapes = (
{
ref = E;
},
{
pos = (61,284);
ref = hookabovecomb;
}
);
width = 691;
},
{
background = {
anchors = (
{
name = bottom;
pos = (348,0);
},
{
name = ogonek;
pos = (626,10);
},
{
name = top;
pos = (345,992);
},
{
name = topleft;
pos = (20,754);
}
);
shapes = (
{
closed = 1;
nodes = (
(661,0,l),
(661,245,l),
(621,245,l),
(619,131,o),
(554,30,o),
(443,30,cs),
(20,30,l),
(20,0,l)
);
},
{
closed = 1;
nodes = (
(273,15,l),
(273,754,l),
(115,754,l),
(115,15,l)
);
},
{
closed = 1;
nodes = (
(492,216,l),
(492,516,l),
(452,516,l),
(450,427,o),
(401,386,o),
(269,386,c),
(269,356,l),
(401,356,o),
(450,312,o),
(452,216,c)
);
},
{
closed = 1;
nodes = (
(646,554,l),
(646,754,l),
(20,754,l),
(20,724,l),
(443,724,ls),
(545,724,o),
(604,646,o),
(606,554,c)
);
},
{
closed = 1;
nodes = (
(379,811,l),
(379,861,o),
(453,842,o),
(453,904,cs),
(453,975,o),
(418,1004,o),
(345,1004,cs),
(285,1004,o),
(238,977,o),
(238,912,cs),
(238,882,o),
(258,863,o),
(282,863,cs),
(299,863,o),
(321,870,o),
(321,889,cs),
(321,917,o),
(300,905,o),
(300,929,cs),
(300,943,o),
(317,961,o),
(345,961,cs),
(374,961,o),
(391,945,o),
(391,913,cs),
(391,889,o),
(340,881,o),
(340,811,c)
);
}
);
};
layerId = "3AE1663F-34E8-4710-91A2-69F84C961E5F";
shapes = (
{
ref = E;
},
{
pos = (66,304);
ref = hookabovecomb;
}
);
width = 696;
}
);
unicode = 7866;
},
{
glyphname = Einvertedbreve;
kernLeft = E;
kernRight = E;
lastChange = "2023-02-02 17:07:23 +0000";
layers = (
{
background = {
anchors = (
{
name = bottom;
pos = (346,0);
},
{
name = ogonek;
pos = (622,10);
},
{
name = top;
pos = (346,924);
},
{
name = topleft;
pos = (20,754);
}
);
shapes = (
{
closed = 1;
nodes = (
(639,0,l),
(639,235,l),
(604,235,l),
(602,123,o),
(545,25,o),
(446,25,cs),
(8,25,l),
(8,0,l)
);
},
{
closed = 1;
nodes = (
(260,15,l),
(260,744,l),
(126,744,l),
(126,15,l)
);
},
{
closed = 1;
nodes = (
(450,216,l),
(450,526,l),
(415,526,l),
(415,418,o),
(381,388,o),
(257,388,c),
(257,363,l),
(381,363,o),
(412,328,o),
(415,216,c)
);
},
{
closed = 1;
nodes = (
(609,549,l),
(609,754,l),
(8,754,l),
(8,729,l),
(416,729,ls),
(515,729,o),
(572,646,o),
(574,549,c)
);
},
{
closed = 1;
nodes = (
(223,792,l),
(226,838,o),
(274,856,o),
(344,856,cs),
(415,856,o),
(465,836,o),
(468,792,c),
(502,792,l),
(502,869,o),
(452,924,o),
(346,924,cs),
(243,924,o),
(189,873,o),
(189,792,c)
);
}
);
};
layerId = UUID0;
shapes = (
{
ref = E;
},
{
pos = (179,0);
ref = breveinvertedcomb.case;
}
);
width = 691;
},
{
background = {
anchors = (
{
name = bottom;
pos = (348,0);
},
{
name = ogonek;
pos = (626,10);
},
{
name = top;
pos = (348,924);
},
{
name = topleft;
pos = (20,754);
}
);
shapes = (
{
closed = 1;
nodes = (
(661,0,l),
(661,245,l),
(621,245,l),
(619,131,o),
(554,30,o),
(443,30,cs),
(20,30,l),
(20,0,l)
);
},
{
closed = 1;
nodes = (
(273,15,l),
(273,754,l),
(115,754,l),
(115,15,l)
);
},
{
closed = 1;
nodes = (
(492,216,l),
(492,516,l),
(452,516,l),
(450,427,o),
(401,386,o),
(269,386,c),
(269,356,l),
(401,356,o),
(450,312,o),
(452,216,c)
);
},
{
closed = 1;
nodes = (
(646,554,l),
(646,754,l),
(20,754,l),
(20,724,l),
(443,724,ls),
(545,724,o),
(604,646,o),
(606,554,c)
);
},
{
closed = 1;
nodes = (
(225,787,l),
(228,819,o),
(276,831,o),
(346,831,cs),
(417,831,o),
(467,817,o),
(470,787,c),
(514,787,l),
(514,864,o),
(461,924,o),
(348,924,cs),
(238,924,o),
(181,868,o),
(181,787,c)
);
}
);
};
layerId = "3AE1663F-34E8-4710-91A2-69F84C961E5F";
shapes = (
{
ref = E;
},
{
pos = (171,0);
ref = breveinvertedcomb.case;
}
);
width = 696;
}
);
unicode = 518;
},
{
glyphname = Emacron;
kernLeft = E;
kernRight = E;
lastChange = "2023-02-02 17:07:23 +0000";
layers = (
{
background = {
anchors = (
{
name = bottom;
pos = (346,0);
},
{
name = ogonek;
pos = (622,10);
},
{
name = top;
pos = (346,754);
},
{
name = topleft;
pos = (20,754);
}
);
shapes = (
{
closed = 1;
nodes = (
(639,0,l),
(639,235,l),
(604,235,l),
(602,123,o),
(545,25,o),
(446,25,cs),
(8,25,l),
(8,0,l)
);
},
{
closed = 1;
nodes = (
(260,15,l),
(260,744,l),
(126,744,l),
(126,15,l)
);
},
{
closed = 1;
nodes = (
(450,216,l),
(450,526,l),
(415,526,l),
(415,418,o),
(381,388,o),
(257,388,c),
(257,363,l),
(381,363,o),
(412,328,o),
(415,216,c)
);
},
{
closed = 1;
nodes = (
(609,549,l),
(609,754,l),
(8,754,l),
(8,729,l),
(416,729,ls),
(515,729,o),
(572,646,o),
(574,549,c)
);
},
{
closed = 1;
nodes = (
(508,851,l),
(508,917,l),
(188,917,l),
(188,851,l)
);
}
);
};
layerId = UUID0;
shapes = (
{
ref = E;
},
{
pos = (176,0);
ref = macroncomb.case;
}
);
width = 691;
},
{
background = {
anchors = (
{
name = bottom;
pos = (348,0);
},
{
name = ogonek;
pos = (626,10);
},
{
name = top;
pos = (348,754);
},
{
name = topleft;
pos = (20,754);
}
);
shapes = (
{
closed = 1;
nodes = (
(661,0,l),
(661,245,l),
(621,245,l),
(619,131,o),
(554,30,o),
(443,30,cs),
(20,30,l),
(20,0,l)
);
},
{
closed = 1;
nodes = (
(273,15,l),
(273,754,l),
(115,754,l),
(115,15,l)
);
},
{
closed = 1;
nodes = (
(492,216,l),
(492,516,l),
(452,516,l),
(450,427,o),
(401,386,o),
(269,386,c),
(269,356,l),
(401,356,o),
(450,312,o),
(452,216,c)
);
},
{
closed = 1;
nodes = (
(646,554,l),
(646,754,l),
(20,754,l),
(20,724,l),
(443,724,ls),
(545,724,o),
(604,646,o),
(606,554,c)
);
},
{
closed = 1;
nodes = (
(526,812,l),
(526,898,l),
(186,898,l),
(186,812,l)
);
}
);
};
layerId = "3AE1663F-34E8-4710-91A2-69F84C961E5F";
shapes = (
{
ref = E;
},
{
pos = (175,23);
ref = macroncomb.case;
}
);
width = 696;
}
);
unicode = 274;
},
{
glyphname = Eogonek;
kernLeft = E;
kernRight = E;
lastChange = "2023-02-02 17:07:23 +0000";
layers = (
{
background = {
anchors = (
{
name = bottom;
pos = (346,0);
},
{
name = ogonek;
pos = (622,10);
},
{
name = top;
pos = (346,754);
},
{
name = topleft;
pos = (20,754);
}
);
shapes = (
{
closed = 1;
nodes = (
(639,0,l),
(639,235,l),
(604,235,l),
(602,123,o),
(545,25,o),
(446,25,cs),
(8,25,l),
(8,0,l)
);
},
{
closed = 1;
nodes = (
(260,15,l),
(260,744,l),
(126,744,l),
(126,15,l)
);
},
{
closed = 1;
nodes = (
(450,216,l),
(450,526,l),
(415,526,l),
(415,418,o),
(381,388,o),
(257,388,c),
(257,363,l),
(381,363,o),
(412,328,o),
(415,216,c)
);
},
{
closed = 1;
nodes = (
(609,549,l),
(609,754,l),
(8,754,l),
(8,729,l),
(416,729,ls),
(515,729,o),
(572,646,o),
(574,549,c)
);
},
{
closed = 1;
nodes = (
(829,-231,o),
(867,-214,o),
(888,-188,c),
(888,-161,l),
(884,-161,l),
(855,-182,o),
(835,-190,o),
(817,-190,cs),
(788,-190,o),
(771,-171,o),
(771,-137,cs),
(771,-87,o),
(809,-34,o),
(885,22,c),
(849,22,l),
(738,-51,o),
(701,-94,o),
(701,-147,cs),
(701,-198,o),
(737,-231,o),
(791,-231,c)
);
}
);
};
layerId = UUID0;
shapes = (
{
ref = E;
},
{
pos = (425,-12);
ref = ogonekcomb;
}
);
width = 691;
},
{
background = {
anchors = (
{
name = bottom;
pos = (348,0);
},
{
name = ogonek;
pos = (626,10);
},
{
name = top;
pos = (348,754);
},
{
name = topleft;
pos = (20,754);
}
);
shapes = (
{
closed = 1;
nodes = (
(661,0,l),
(661,245,l),
(621,245,l),
(619,131,o),
(554,30,o),
(443,30,cs),
(20,30,l),
(20,0,l)
);
},
{
closed = 1;
nodes = (
(273,15,l),
(273,754,l),
(115,754,l),
(115,15,l)
);
},
{
closed = 1;
nodes = (
(492,216,l),
(492,516,l),
(452,516,l),
(450,427,o),
(401,386,o),
(269,386,c),
(269,356,l),
(401,356,o),
(450,312,o),
(452,216,c)
);
},
{
closed = 1;
nodes = (
(646,554,l),
(646,754,l),
(20,754,l),
(20,724,l),
(443,724,ls),
(545,724,o),
(604,646,o),
(606,554,c)
);
},
{
closed = 1;
nodes = (
(834,-231,o),
(870,-215,o),
(893,-188,c),
(893,-153,l),
(889,-153,l),
(868,-171,o),
(851,-178,o),
(832,-178,cs),
(808,-178,o),
(796,-166,o),
(796,-140,cs),
(796,-94,o),
(833,-33,o),
(893,22,c),
(847,22,l),
(743,-53,o),
(706,-97,o),
(706,-149,cs),
(706,-199,o),
(741,-231,o),
(795,-231,cs)
);
}
);
};
layerId = "3AE1663F-34E8-4710-91A2-69F84C961E5F";
shapes = (
{
ref = E;
},
{
pos = (429,-12);
ref = ogonekcomb;
}
);
width = 696;
}
);
unicode = 280;
},
{
glyphname = Etilde;
kernLeft = E;
kernRight = E;
lastChange = "2023-02-02 17:07:23 +0000";
layers = (
{
background = {
anchors = (
{
name = bottom;
pos = (346,0);
},
{
name = ogonek;
pos = (622,10);
},
{
name = top;
pos = (346,1004);
},
{
name = topleft;
pos = (20,754);
}
);
shapes = (
{
closed = 1;
nodes = (
(639,0,l),
(639,235,l),
(604,235,l),
(602,123,o),
(545,25,o),
(446,25,cs),
(8,25,l),
(8,0,l)
);
},
{
closed = 1;
nodes = (
(260,15,l),
(260,744,l),
(126,744,l),
(126,15,l)
);
},
{
closed = 1;
nodes = (
(450,216,l),
(450,526,l),
(415,526,l),
(415,418,o),
(381,388,o),
(257,388,c),
(257,363,l),
(381,363,o),
(412,328,o),
(415,216,c)
);
},
{
closed = 1;
nodes = (
(609,549,l),
(609,754,l),
(8,754,l),
(8,729,l),
(416,729,ls),
(515,729,o),
(572,646,o),
(574,549,c)
);
},
{
closed = 1;
nodes = (
(203,862,l),
(210,890,o),
(233,911,o),
(266,911,cs),
(313,911,o),
(347,863,o),
(403,863,cs),
(472,863,o),
(508,927,o),
(522,990,c),
(488,990,l),
(481,969,o),
(463,939,o),
(425,939,cs),
(379,939,o),
(342,987,o),
(288,987,cs),
(222,987,o),
(180,924,o),
(170,862,c)
);
}
);
};
layerId = UUID0;
shapes = (
{
ref = E;
},
{
pos = (160,70);
ref = tildecomb.case;
}
);
width = 691;
},
{
background = {
anchors = (
{
name = bottom;
pos = (348,0);
},
{
name = ogonek;
pos = (626,10);
},
{
name = top;
pos = (348,1001);
},
{
name = topleft;
pos = (20,754);
}
);
shapes = (
{
closed = 1;
nodes = (
(661,0,l),
(661,245,l),
(621,245,l),
(619,131,o),
(554,30,o),
(443,30,cs),
(20,30,l),
(20,0,l)
);
},
{
closed = 1;
nodes = (
(273,15,l),
(273,754,l),
(115,754,l),
(115,15,l)
);
},
{
closed = 1;
nodes = (
(492,216,l),
(492,516,l),
(452,516,l),
(450,427,o),
(401,386,o),
(269,386,c),
(269,356,l),
(401,356,o),
(450,312,o),
(452,216,c)
);
},
{
closed = 1;
nodes = (
(646,554,l),
(646,754,l),
(20,754,l),
(20,724,l),
(443,724,ls),
(545,724,o),
(604,646,o),
(606,554,c)
);
},
{
closed = 1;
nodes = (
(185,864,l),
(194,888,o),
(225,905,o),
(268,905,cs),
(315,905,o),
(349,865,o),
(405,865,cs),
(486,865,o),
(528,933,o),
(544,1001,c),
(510,1001,l),
(501,984,o),
(477,961,o),
(427,961,cs),
(381,961,o),
(344,1001,o),
(290,1001,cs),
(212,1001,o),
(164,931,o),
(152,864,c)
);
}
);
};
layerId = "3AE1663F-34E8-4710-91A2-69F84C961E5F";
shapes = (
{
ref = E;
},
{
pos = (142,77);
ref = tildecomb.case;
}
);
width = 696;
}
);
unicode = 7868;
},
{
glyphname = Schwa;
lastChange = "2023-02-02 17:07:23 +0000";
layers = (
{
background = {
shapes = (
{
closed = 1;
nodes = (
(587,-13,o),
(723,187,o),
(723,378,cs),
(723,581,o),
(570,764,o),
(377,764,cs),
(235,764,o),
(101,664,o),
(57,513,c),
(91,513,l),
(136,645,o),
(251,733,o),
(382,733,cs),
(516,733,o),
(563,642,o),
(563,374,cs),
(563,85,o),
(508,17,o),
(380,17,cs),
(269,17,o),
(215,69,o),
(215,183,cs),
(215,309,l),
(596,309,l),
(596,343,l),
(52,343,l),
(52,333,ls),
(52,120,o),
(206,-13,o),
(377,-13,cs)
);
}
);
};
layerId = UUID0;
shapes = (
{
closed = 1;
nodes = (
(587,-13,o),
(723,187,o),
(723,378,cs),
(723,581,o),
(570,764,o),
(377,764,cs),
(235,764,o),
(101,664,o),
(57,513,c),
(91,513,l),
(136,645,o),
(251,733,o),
(382,733,cs),
(516,733,o),
(563,642,o),
(563,374,cs),
(563,85,o),
(508,17,o),
(380,17,cs),
(269,17,o),
(215,69,o),
(215,183,cs),
(215,309,l),
(596,309,l),
(596,343,l),
(52,343,l),
(52,333,ls),
(52,120,o),
(206,-13,o),
(377,-13,cs)
);
}
);
width = 753;
},
{
background = {
shapes = (
{
closed = 1;
nodes = (
(611,-13,o),
(755,187,o),
(755,378,cs),
(755,581,o),
(594,764,o),
(385,764,cs),
(243,764,o),
(109,664,o),
(65,513,c),
(104,513,l),
(147,642,o),
(258,728,o),
(385,728,cs),
(518,728,o),
(566,638,o),
(566,374,cs),
(566,89,o),
(511,21,o),
(388,21,cs),
(277,21,o),
(223,73,o),
(223,183,cs),
(223,309,l),
(604,309,l),
(604,348,l),
(40,348,l),
(40,333,ls),
(40,120,o),
(204,-13,o),
(385,-13,cs)
);
}
);
};
layerId = "3AE1663F-34E8-4710-91A2-69F84C961E5F";
shapes = (
{
closed = 1;
nodes = (
(611,-13,o),
(755,187,o),
(755,378,cs),
(755,581,o),
(594,764,o),
(385,764,cs),
(243,764,o),
(109,664,o),
(65,513,c),
(104,513,l),
(147,642,o),
(258,728,o),
(385,728,cs),
(518,728,o),
(566,638,o),
(566,374,cs),
(566,89,o),
(511,21,o),
(388,21,cs),
(277,21,o),
(223,73,o),
(223,183,cs),
(223,309,l),
(604,309,l),
(604,348,l),
(40,348,l),
(40,333,ls),
(40,120,o),
(204,-13,o),
(385,-13,cs)
);
}
);
width = 795;
}
);
unicode = 399;
},
{
glyphname = F;
lastChange = "2023-02-02 17:07:23 +0000";
layers = (
{
anchors = (
{
name = bottom;
pos = (329,0);
},
{
name = top;
pos = (329,754);
}
);
background = {
anchors = (
{
name = bottom;
pos = (329,0);
},
{
name = top;
pos = (329,754);
}
);
shapes = (
{
closed = 1;
nodes = (
(622,509,l),
(622,754,l),
(11,754,l),
(11,729,l),
(429,729,ls),
(528,729,o),
(585,626,o),
(587,509,c)
);
},
{
closed = 1;
nodes = (
(373,0,l),
(373,25,l),
(11,25,l),
(11,0,l)
);
},
{
closed = 1;
nodes = (
(263,15,l),
(263,754,l),
(129,754,l),
(129,15,l)
);
},
{
closed = 1;
nodes = (
(453,216,l),
(453,526,l),
(418,526,l),
(418,418,o),
(384,388,o),
(260,388,c),
(260,363,l),
(384,363,o),
(415,328,o),
(418,216,c)
);
}
);
};
layerId = UUID0;
shapes = (
{
closed = 1;
nodes = (
(622,509,l),
(622,754,l),
(11,754,l),
(11,729,l),
(429,729,ls),
(528,729,o),
(585,626,o),
(587,509,c)
);
},
{
closed = 1;
nodes = (
(373,0,l),
(373,25,l),
(11,25,l),
(11,0,l)
);
},
{
closed = 1;
nodes = (
(263,15,l),
(263,754,l),
(129,754,l),
(129,15,l)
);
},
{
closed = 1;
nodes = (
(453,216,l),
(453,526,l),
(418,526,l),
(418,418,o),
(384,388,o),
(260,388,c),
(260,363,l),
(384,363,o),
(415,328,o),
(418,216,c)
);
}
);
width = 658;
},
{
anchors = (
{
name = bottom;
pos = (351,0);
},
{
name = top;
pos = (351,754);
}
);
background = {
anchors = (
{
name = bottom;
pos = (351,0);
},
{
name = top;
pos = (351,754);
}
);
shapes = (
{
closed = 1;
nodes = (
(646,539,l),
(646,754,l),
(20,754,l),
(20,724,l),
(443,724,ls),
(545,724,o),
(604,639,o),
(606,539,c)
);
},
{
closed = 1;
nodes = (
(401,0,l),
(401,30,l),
(20,30,l),
(20,0,l)
);
},
{
closed = 1;
nodes = (
(273,14,l),
(273,754,l),
(115,754,l),
(115,14,l)
);
},
{
closed = 1;
nodes = (
(492,215,l),
(492,515,l),
(452,515,l),
(450,426,o),
(401,385,o),
(269,385,cs),
(269,355,l),
(401,355,o),
(450,311,o),
(452,215,c)
);
}
);
};
layerId = "3AE1663F-34E8-4710-91A2-69F84C961E5F";
shapes = (
{
closed = 1;
nodes = (
(646,539,l),
(646,754,l),
(20,754,l),
(20,724,l),
(443,724,ls),
(545,724,o),
(604,639,o),
(606,539,c)
);
},
{
closed = 1;
nodes = (
(401,0,l),
(401,30,l),
(20,30,l),
(20,0,l)
);
},
{
closed = 1;
nodes = (
(273,14,l),
(273,754,l),
(115,754,l),
(115,14,l)
);
},
{
closed = 1;
nodes = (
(492,215,l),
(492,515,l),
(452,515,l),
(450,426,o),
(401,385,o),
(269,385,cs),
(269,355,l),
(401,355,o),
(450,311,o),
(452,215,c)
);
}
);
width = 702;
}
);
unicode = 70;
},
{
glyphname = G;
kernLeft = G;
kernRight = G;
lastChange = "2023-02-02 17:07:23 +0000";
layers = (
{
anchors = (
{
name = bottom;
pos = (369,0);
},
{
name = top;
pos = (369,754);
}
);
background = {
anchors = (
{
name = bottom;
pos = (369,0);
},
{
name = top;
pos = (369,754);
}
);
shapes = (
{
closed = 1;
nodes = (
(532,-12,o),
(665,89,o),
(665,259,cs),
(665,283,l),
(516,283,l),
(516,140,ls),
(516,64,o),
(465,20,o),
(378,20,cs),
(270,20,o),
(205,87,o),
(205,365,cs),
(205,667,o),
(282,736,o),
(394,736,cs),
(525,736,o),
(580,640,o),
(602,528,c),
(627,528,l),
(627,754,l),
(602,754,l),
(558,704,l),
(508,747,o),
(457,766,o),
(394,766,cs),
(195,766,o),
(45,579,o),
(45,370,cs),
(45,177,o),
(174,-12,o),
(381,-12,cs)
);
},
{
closed = 1;
nodes = (
(723,268,l),
(723,293,l),
(393,293,l),
(393,268,l)
);
}
);
};
layerId = UUID0;
shapes = (
{
closed = 1;
nodes = (
(532,-12,o),
(665,89,o),
(665,259,cs),
(665,283,l),
(516,283,l),
(516,140,ls),
(516,64,o),
(465,20,o),
(378,20,cs),
(270,20,o),
(205,87,o),
(205,365,cs),
(205,667,o),
(282,736,o),
(394,736,cs),
(525,736,o),
(580,640,o),
(602,528,c),
(627,528,l),
(627,754,l),
(602,754,l),
(558,704,l),
(508,747,o),
(457,766,o),
(394,766,cs),
(195,766,o),
(45,579,o),
(45,370,cs),
(45,177,o),
(174,-12,o),
(381,-12,cs)
);
},
{
closed = 1;
nodes = (
(723,268,l),
(723,293,l),
(393,293,l),
(393,268,l)
);
}
);
width = 737;
},
{
anchors = (
{
name = bottom;
pos = (395,0);
},
{
name = top;
pos = (395,754);
}
);
background = {
anchors = (
{
name = bottom;
pos = (395,0);
},
{
name = top;
pos = (395,754);
}
);
shapes = (
{
closed = 1;
nodes = (
(532,-13,o),
(669,68,o),
(701,170,c),
(701,282,l),
(519,282,l),
(519,145,ls),
(519,69,o),
(477,24,o),
(395,24,cs),
(296,24,o),
(240,91,o),
(240,358,cs),
(240,672,o),
(317,728,o),
(420,728,cs),
(557,728,o),
(616,622,o),
(632,518,c),
(662,518,l),
(662,754,l),
(632,754,l),
(593,704,l),
(536,747,o),
(492,763,o),
(427,763,cs),
(215,763,o),
(50,589,o),
(50,367,cs),
(50,155,o),
(202,-13,o),
(397,-13,cs)
);
},
{
closed = 1;
nodes = (
(778,270,l),
(778,300,l),
(423,300,l),
(423,270,l)
);
}
);
};
layerId = "3AE1663F-34E8-4710-91A2-69F84C961E5F";
shapes = (
{
closed = 1;
nodes = (
(532,-13,o),
(669,68,o),
(701,170,c),
(701,282,l),
(519,282,l),
(519,145,ls),
(519,69,o),
(477,24,o),
(395,24,cs),
(296,24,o),
(240,91,o),
(240,358,cs),
(240,672,o),
(317,728,o),
(420,728,cs),
(557,728,o),
(616,622,o),
(632,518,c),
(662,518,l),
(662,754,l),
(632,754,l),
(593,704,l),
(536,747,o),
(492,763,o),
(427,763,cs),
(215,763,o),
(50,589,o),
(50,367,cs),
(50,155,o),
(202,-13,o),
(397,-13,cs)
);
},
{
closed = 1;
nodes = (
(778,270,l),
(778,300,l),
(423,300,l),
(423,270,l)
);
}
);
width = 790;
}
);
unicode = 71;
},
{
glyphname = Gacute;
kernLeft = G;
kernRight = G;
lastChange = "2023-02-02 17:07:23 +0000";
layers = (
{
background = {
anchors = (
{
name = bottom;
pos = (369,0);
},
{
name = top;
pos = (369,959);
}
);
shapes = (
{
closed = 1;
nodes = (
(532,-12,o),
(665,89,o),
(665,259,cs),
(665,283,l),
(516,283,l),
(516,140,ls),
(516,64,o),
(465,20,o),
(378,20,cs),
(270,20,o),
(205,87,o),
(205,365,cs),
(205,667,o),
(282,736,o),
(394,736,cs),
(525,736,o),
(580,640,o),
(602,528,c),
(627,528,l),
(627,754,l),
(602,754,l),
(558,704,l),
(508,747,o),
(457,766,o),
(394,766,cs),
(195,766,o),
(45,579,o),
(45,370,cs),
(45,177,o),
(174,-12,o),
(381,-12,cs)
);
},
{
closed = 1;
nodes = (
(723,268,l),
(723,293,l),
(393,293,l),
(393,268,l)
);
},
{
closed = 1;
nodes = (
(278,827,l),
(453,863,ls),
(486,870,o),
(503,890,o),
(503,916,cs),
(503,942,o),
(487,959,o),
(459,959,cs),
(445,959,o),
(433,953,o),
(386,923,cs),
(235,827,l)
);
}
);
};
layerId = UUID0;
shapes = (
{
ref = G;
},
{
pos = (225,35);
ref = acutecomb.case;
}
);
width = 737;
},
{
background = {
anchors = (
{
name = bottom;
pos = (395,0);
},
{
name = top;
pos = (395,960);
}
);
shapes = (
{
closed = 1;
nodes = (
(532,-13,o),
(669,68,o),
(701,170,c),
(701,282,l),
(519,282,l),
(519,145,ls),
(519,69,o),
(477,24,o),
(395,24,cs),
(296,24,o),
(240,91,o),
(240,358,cs),
(240,672,o),
(317,728,o),
(420,728,cs),
(557,728,o),
(616,622,o),
(632,518,c),
(662,518,l),
(662,754,l),
(632,754,l),
(593,704,l),
(536,747,o),
(492,763,o),
(427,763,cs),
(215,763,o),
(50,589,o),
(50,367,cs),
(50,155,o),
(202,-13,o),
(397,-13,cs)
);
},
{
closed = 1;
nodes = (
(778,270,l),
(778,300,l),
(423,300,l),
(423,270,l)
);
},
{
closed = 1;
nodes = (
(311,823,l),
(488,858,ls),
(532,867,o),
(541,891,o),
(541,914,cs),
(541,938,o),
(524,960,o),
(491,960,cs),
(462,960,o),
(444,950,o),
(409,927,cs),
(248,823,l)
);
}
);
};
layerId = "3AE1663F-34E8-4710-91A2-69F84C961E5F";
shapes = (
{
ref = G;
},
{
pos = (238,37);
ref = acutecomb.case;
}
);
width = 790;
}
);
unicode = 500;
},
{
glyphname = Gbreve;
kernLeft = G;
kernRight = G;
lastChange = "2023-02-02 17:07:23 +0000";
layers = (
{
background = {
anchors = (
{
name = bottom;
pos = (369,0);
},
{
name = top;
pos = (369,952);
}
);
shapes = (
{
closed = 1;
nodes = (
(532,-12,o),
(665,89,o),
(665,259,cs),
(665,283,l),
(516,283,l),
(516,140,ls),
(516,64,o),
(465,20,o),
(378,20,cs),
(270,20,o),
(205,87,o),
(205,365,cs),
(205,667,o),
(282,736,o),
(394,736,cs),
(525,736,o),
(580,640,o),
(602,528,c),
(627,528,l),
(627,754,l),
(602,754,l),
(558,704,l),
(508,747,o),
(457,766,o),
(394,766,cs),
(195,766,o),
(45,579,o),
(45,370,cs),
(45,177,o),
(174,-12,o),
(381,-12,cs)
);
},
{
closed = 1;
nodes = (
(723,268,l),
(723,293,l),
(393,293,l),
(393,268,l)
);
},
{
closed = 1;
nodes = (
(475,820,o),
(505,875,o),
(505,952,c),
(471,952,l),
(468,908,o),
(438,888,o),
(367,888,cs),
(297,888,o),
(269,906,o),
(266,952,c),
(232,952,l),
(232,871,o),
(266,820,o),
(369,820,cs)
);
}
);
};
layerId = UUID0;
shapes = (
{
ref = G;
},
{
pos = (202,61);
ref = brevecomb.case;
}
);
width = 737;
},
{
background = {
anchors = (
{
name = bottom;
pos = (395,0);
},
{
name = top;
pos = (395,962);
}
);
shapes = (
{
closed = 1;
nodes = (
(532,-13,o),
(669,68,o),
(701,170,c),
(701,282,l),
(519,282,l),
(519,145,ls),
(519,69,o),
(477,24,o),
(395,24,cs),
(296,24,o),
(240,91,o),
(240,358,cs),
(240,672,o),
(317,728,o),
(420,728,cs),
(557,728,o),
(616,622,o),
(632,518,c),
(662,518,l),
(662,754,l),
(632,754,l),
(593,704,l),
(536,747,o),
(492,763,o),
(427,763,cs),
(215,763,o),
(50,589,o),
(50,367,cs),
(50,155,o),
(202,-13,o),
(397,-13,cs)
);
},
{
closed = 1;
nodes = (
(778,270,l),
(778,300,l),
(423,300,l),
(423,270,l)
);
},
{
closed = 1;
nodes = (
(488,825,o),
(541,885,o),
(541,962,c),
(497,962,l),
(494,932,o),
(444,918,o),
(393,918,cs),
(343,918,o),
(295,930,o),
(292,962,c),
(248,962,l),
(248,881,o),
(305,825,o),
(395,825,cs)
);
}
);
};
layerId = "3AE1663F-34E8-4710-91A2-69F84C961E5F";
shapes = (
{
ref = G;
},
{
pos = (218,41);
ref = brevecomb.case;
}
);
width = 790;
}
);
unicode = 286;
},
{
glyphname = Gcircumflex;
kernLeft = G;
kernRight = G;
lastChange = "2023-02-02 17:07:23 +0000";
layers = (
{
background = {
anchors = (
{
name = bottom;
pos = (369,0);
},
{
name = top;
pos = (369,881);
}
);
shapes = (
{
closed = 1;
nodes = (
(532,-12,o),
(665,89,o),
(665,259,cs),
(665,283,l),
(516,283,l),
(516,140,ls),
(516,64,o),
(465,20,o),
(378,20,cs),
(270,20,o),
(205,87,o),
(205,365,cs),
(205,667,o),
(282,736,o),
(394,736,cs),
(525,736,o),
(580,640,o),
(602,528,c),
(627,528,l),
(627,754,l),
(602,754,l),
(558,704,l),
(508,747,o),
(457,766,o),
(394,766,cs),
(195,766,o),
(45,579,o),
(45,370,cs),
(45,177,o),
(174,-12,o),
(381,-12,cs)
);
},
{
closed = 1;
nodes = (
(723,268,l),
(723,293,l),
(393,293,l),
(393,268,l)
);
},
{
closed = 1;
nodes = (
(260,824,l),
(369,875,l),
(478,824,l),
(521,824,l),
(400,936,l),
(338,936,l),
(217,824,l)
);
}
);
};
layerId = UUID0;
shapes = (
{
ref = G;
},
{
pos = (197,11);
ref = circumflexcomb.case;
}
);
width = 737;
},
{
background = {
anchors = (
{
name = bottom;
pos = (395,0);
},
{
name = top;
pos = (395,893);
}
);
shapes = (
{
closed = 1;
nodes = (
(532,-13,o),
(669,68,o),
(701,170,c),
(701,282,l),
(519,282,l),
(519,145,ls),
(519,69,o),
(477,24,o),
(395,24,cs),
(296,24,o),
(240,91,o),
(240,358,cs),
(240,672,o),
(317,728,o),
(420,728,cs),
(557,728,o),
(616,622,o),
(632,518,c),
(662,518,l),
(662,754,l),
(632,754,l),
(593,704,l),
(536,747,o),
(492,763,o),
(427,763,cs),
(215,763,o),
(50,589,o),
(50,367,cs),
(50,155,o),
(202,-13,o),
(397,-13,cs)
);
},
{
closed = 1;
nodes = (
(778,270,l),
(778,300,l),
(423,300,l),
(423,270,l)
);
},
{
closed = 1;
nodes = (
(276,827,l),
(395,869,l),
(514,827,l),
(567,827,l),
(426,943,l),
(364,943,l),
(223,827,l)
);
}
);
};
layerId = "3AE1663F-34E8-4710-91A2-69F84C961E5F";
shapes = (
{
ref = G;
},
{
pos = (183,20);
ref = circumflexcomb.case;
}
);
width = 790;
}
);
unicode = 284;
},
{
glyphname = Gcommaaccent;
kernLeft = G;
kernRight = G;
lastChange = "2023-02-02 17:07:23 +0000";
layers = (
{
background = {
anchors = (
{
name = bottom;
pos = (369,-309);
},
{
name = top;
pos = (369,754);
}
);
shapes = (
{
closed = 1;
nodes = (
(532,-12,o),
(665,89,o),
(665,259,cs),
(665,283,l),
(516,283,l),
(516,140,ls),
(516,64,o),
(465,20,o),
(378,20,cs),
(270,20,o),
(205,87,o),
(205,365,cs),
(205,667,o),
(282,736,o),
(394,736,cs),
(525,736,o),
(580,640,o),
(602,528,c),
(627,528,l),
(627,754,l),
(602,754,l),
(558,704,l),
(508,747,o),
(457,766,o),
(394,766,cs),
(195,766,o),
(45,579,o),
(45,370,cs),
(45,177,o),
(174,-12,o),
(381,-12,cs)
);
},
{
closed = 1;
nodes = (
(723,268,l),
(723,293,l),
(393,293,l),
(393,268,l)
);
},
{
closed = 1;
nodes = (
(406,-272,o),
(445,-232,o),
(445,-172,cs),
(445,-115,o),
(409,-79,o),
(361,-79,cs),
(321,-79,o),
(293,-103,o),
(293,-143,cs),
(293,-178,o),
(315,-196,o),
(341,-196,cs),
(374,-196,o),
(395,-168,o),
(404,-168,cs),
(406,-168,o),
(408,-171,o),
(408,-180,cs),
(408,-218,o),
(381,-252,o),
(316,-286,c),
(336,-309,l)
);
}
);
};
layerId = UUID0;
shapes = (
{
ref = G;
},
{
pos = (283,0);
ref = commaaccentcomb;
}
);
width = 737;
},
{
background = {
anchors = (
{
name = bottom;
pos = (395,-314);
},
{
name = top;
pos = (395,754);
}
);
shapes = (
{
closed = 1;
nodes = (
(532,-13,o),
(669,68,o),
(701,170,c),
(701,282,l),
(519,282,l),
(519,145,ls),
(519,69,o),
(477,24,o),
(395,24,cs),
(296,24,o),
(240,91,o),
(240,358,cs),
(240,672,o),
(317,728,o),
(420,728,cs),
(557,728,o),
(616,622,o),
(632,518,c),
(662,518,l),
(662,754,l),
(632,754,l),
(593,704,l),
(536,747,o),
(492,763,o),
(427,763,cs),
(215,763,o),
(50,589,o),
(50,367,cs),
(50,155,o),
(202,-13,o),
(397,-13,cs)
);
},
{
closed = 1;
nodes = (
(778,270,l),
(778,300,l),
(423,300,l),
(423,270,l)
);
},
{
closed = 1;
nodes = (
(437,-276,o),
(478,-236,o),
(478,-174,cs),
(478,-121,o),
(449,-69,o),
(388,-69,cs),
(341,-69,o),
(312,-99,o),
(312,-136,cs),
(312,-167,o),
(332,-198,o),
(370,-198,cs),
(408,-198,o),
(413,-166,o),
(425,-166,cs),
(432,-166,o),
(440,-171,o),
(440,-188,cs),
(440,-226,o),
(412,-253,o),
(338,-292,c),
(358,-314,l)
);
}
);
};
layerId = "3AE1663F-34E8-4710-91A2-69F84C961E5F";
shapes = (
{
ref = G;
},
{
pos = (302,0);
ref = commaaccentcomb;
}
);
width = 790;
}
);
unicode = 290;
},
{
glyphname = Gdotaccent;
kernLeft = G;
kernRight = G;
lastChange = "2023-02-02 17:07:23 +0000";
layers = (
{
background = {
anchors = (
{
name = bottom;
pos = (369,0);
},
{
name = top;
pos = (369,754);
}
);
shapes = (
{
closed = 1;
nodes = (
(532,-12,o),
(665,89,o),
(665,259,cs),
(665,283,l),
(516,283,l),
(516,140,ls),
(516,64,o),
(465,20,o),
(378,20,cs),
(270,20,o),
(205,87,o),
(205,365,cs),
(205,667,o),
(282,736,o),
(394,736,cs),
(525,736,o),
(580,640,o),
(602,528,c),
(627,528,l),
(627,754,l),
(602,754,l),
(558,704,l),
(508,747,o),
(457,766,o),
(394,766,cs),
(195,766,o),
(45,579,o),
(45,370,cs),
(45,177,o),
(174,-12,o),
(381,-12,cs)
);
},
{
closed = 1;
nodes = (
(723,268,l),
(723,293,l),
(393,293,l),
(393,268,l)
);
},
{
closed = 1;
nodes = (
(406,797,o),
(436,827,o),
(436,863,cs),
(436,899,o),
(406,929,o),
(370,929,cs),
(334,929,o),
(304,899,o),
(304,863,cs),
(304,827,o),
(334,797,o),
(370,797,cs)
);
}
);
};
layerId = UUID0;
shapes = (
{
ref = G;
},
{
pos = (293,0);
ref = dotaccentcomb.case;
}
);
width = 737;
},
{
background = {
anchors = (
{
name = bottom;
pos = (395,0);
},
{
name = top;
pos = (395,754);
}
);
shapes = (
{
closed = 1;
nodes = (
(532,-13,o),
(669,68,o),
(701,170,c),
(701,282,l),
(519,282,l),
(519,145,ls),
(519,69,o),
(477,24,o),
(395,24,cs),
(296,24,o),
(240,91,o),
(240,358,cs),
(240,672,o),
(317,728,o),
(420,728,cs),
(557,728,o),
(616,622,o),
(632,518,c),
(662,518,l),
(662,754,l),
(632,754,l),
(593,704,l),
(536,747,o),
(492,763,o),
(427,763,cs),
(215,763,o),
(50,589,o),
(50,367,cs),
(50,155,o),
(202,-13,o),
(397,-13,cs)
);
},
{
closed = 1;
nodes = (
(778,270,l),
(778,300,l),
(423,300,l),
(423,270,l)
);
},
{
closed = 1;
nodes = (
(432,789,o),
(463,820,o),
(463,857,cs),
(463,895,o),
(432,926,o),
(394,926,cs),
(357,926,o),
(326,895,o),
(326,857,cs),
(326,820,o),
(357,789,o),
(394,789,cs)
);
}
);
};
layerId = "3AE1663F-34E8-4710-91A2-69F84C961E5F";
shapes = (
{
ref = G;
},
{
pos = (316,0);
ref = dotaccentcomb.case;
}
);
width = 790;
}
);
unicode = 288;
},
{
glyphname = H;
kernLeft = H;
kernRight = H;
lastChange = "2023-02-02 17:07:23 +0000";
layers = (
{
anchors = (
{
name = bottom;
pos = (401,0);
},
{
name = center;
pos = (401,377);
},
{
name = top;
pos = (401,754);
},
{
name = topleft;
pos = (20,754);
}
);
background = {
anchors = (
{
name = bottom;
pos = (401,0);
},
{
name = center;
pos = (401,377);
},
{
name = top;
pos = (401,754);
},
{
name = topleft;
pos = (20,754);
}
);
shapes = (
{
closed = 1;
nodes = (
(367,0,l),
(367,25,l),
(257,25,l),
(257,375,l),
(545,375,l),
(545,25,l),
(435,25,l),
(435,0,l),
(789,0,l),
(789,25,l),
(679,25,l),
(679,729,l),
(789,729,l),
(789,754,l),
(435,754,l),
(435,729,l),
(545,729,l),
(545,400,l),
(257,400,l),
(257,729,l),
(367,729,l),
(367,754,l),
(13,754,l),
(13,729,l),
(123,729,l),
(123,25,l),
(13,25,l),
(13,0,l)
);
}
);
};
layerId = UUID0;
shapes = (
{
closed = 1;
nodes = (
(367,0,l),
(367,25,l),
(257,25,l),
(257,375,l),
(545,375,l),
(545,25,l),
(435,25,l),
(435,0,l),
(789,0,l),
(789,25,l),
(679,25,l),
(679,729,l),
(789,729,l),
(789,754,l),
(435,754,l),
(435,729,l),
(545,729,l),
(545,400,l),
(257,400,l),
(257,729,l),
(367,729,l),
(367,754,l),
(13,754,l),
(13,729,l),
(123,729,l),
(123,25,l),
(13,25,l),
(13,0,l)
);
}
);
width = 801;
},
{
anchors = (
{
name = bottom;
pos = (413,0);
},
{
name = center;
pos = (413,377);
},
{
name = top;
pos = (413,754);
},
{
name = topleft;
pos = (20,754);
}
);
background = {
anchors = (
{
name = bottom;
pos = (413,0);
},
{
name = center;
pos = (413,377);
},
{
name = top;
pos = (413,754);
},
{
name = topleft;
pos = (20,754);
}
);
shapes = (
{
closed = 1;
nodes = (
(371,0,l),
(371,30,l),
(273,30,l),
(273,374,l),
(556,374,l),
(556,30,l),
(458,30,l),
(458,0,l),
(811,0,l),
(811,30,l),
(714,30,l),
(714,724,l),
(811,724,l),
(811,754,l),
(458,754,l),
(458,724,l),
(556,724,l),
(556,404,l),
(273,404,l),
(273,724,l),
(371,724,l),
(371,754,l),
(20,754,l),
(20,724,l),
(115,724,l),
(115,30,l),
(20,30,l),
(20,0,l)
);
}
);
};
layerId = "3AE1663F-34E8-4710-91A2-69F84C961E5F";
shapes = (
{
closed = 1;
nodes = (
(371,0,l),
(371,30,l),
(273,30,l),
(273,374,l),
(556,374,l),
(556,30,l),
(458,30,l),
(458,0,l),
(811,0,l),
(811,30,l),
(714,30,l),
(714,724,l),
(811,724,l),
(811,754,l),
(458,754,l),
(458,724,l),
(556,724,l),
(556,404,l),
(273,404,l),
(273,724,l),
(371,724,l),
(371,754,l),
(20,754,l),
(20,724,l),
(115,724,l),
(115,30,l),
(20,30,l),
(20,0,l)
);
}
);
width = 826;
}
);
unicode = 72;
},
{
glyphname = Hbar;
lastChange = "2023-02-02 17:07:23 +0000";
layers = (
{
background = {
anchors = (
{
name = bottom;
pos = (401,0);
},
{
name = center;
pos = (401,377);
},
{
name = top;
pos = (401,754);
},
{
name = topleft;
pos = (20,754);
}
);
shapes = (
{
closed = 1;
nodes = (
(789,548,l),
(789,578,l),
(20,578,l),
(20,548,l)
);
},
{
closed = 1;
nodes = (
(367,0,l),
(367,25,l),
(257,25,l),
(257,375,l),
(545,375,l),
(545,25,l),
(435,25,l),
(435,0,l),
(789,0,l),
(789,25,l),
(679,25,l),
(679,729,l),
(789,729,l),
(789,754,l),
(435,754,l),
(435,729,l),
(545,729,l),
(545,400,l),
(257,400,l),
(257,729,l),
(367,729,l),
(367,754,l),
(13,754,l),
(13,729,l),
(123,729,l),
(123,25,l),
(13,25,l),
(13,0,l)
);
}
);
};
layerId = UUID0;
shapes = (
{
closed = 1;
nodes = (
(789,548,l),
(789,578,l),
(20,578,l),
(20,548,l)
);
},
{
ref = H;
}
);
width = 801;
},
{
background = {
anchors = (
{
name = bottom;
pos = (413,0);
},
{
name = center;
pos = (413,377);
},
{
name = top;
pos = (413,754);
},
{
name = topleft;
pos = (20,754);
}
);
shapes = (
{
closed = 1;
nodes = (
(789,541,l),
(789,578,l),
(20,578,l),
(20,541,l)
);
},
{
closed = 1;
nodes = (
(371,0,l),
(371,30,l),
(273,30,l),
(273,374,l),
(556,374,l),
(556,30,l),
(458,30,l),
(458,0,l),
(811,0,l),
(811,30,l),
(714,30,l),
(714,724,l),
(811,724,l),
(811,754,l),
(458,754,l),
(458,724,l),
(556,724,l),
(556,404,l),
(273,404,l),
(273,724,l),
(371,724,l),
(371,754,l),
(20,754,l),
(20,724,l),
(115,724,l),
(115,30,l),
(20,30,l),
(20,0,l)
);
}
);
};
layerId = "3AE1663F-34E8-4710-91A2-69F84C961E5F";
shapes = (
{
closed = 1;
nodes = (
(789,541,l),
(789,578,l),
(20,578,l),
(20,541,l)
);
},
{
ref = H;
}
);
width = 826;
}
);
unicode = 294;
},
{
glyphname = Hcircumflex;
kernLeft = H;
kernRight = H;
lastChange = "2023-02-02 17:07:23 +0000";
layers = (
{
background = {
anchors = (
{
name = bottom;
pos = (401,0);
},
{
name = center;
pos = (401,377);
},
{
name = top;
pos = (401,881);
},
{
name = topleft;
pos = (20,754);
}
);
shapes = (
{
closed = 1;
nodes = (
(367,0,l),
(367,25,l),
(257,25,l),
(257,375,l),
(545,375,l),
(545,25,l),
(435,25,l),
(435,0,l),
(789,0,l),
(789,25,l),
(679,25,l),
(679,729,l),
(789,729,l),
(789,754,l),
(435,754,l),
(435,729,l),
(545,729,l),
(545,400,l),
(257,400,l),
(257,729,l),
(367,729,l),
(367,754,l),
(13,754,l),
(13,729,l),
(123,729,l),
(123,25,l),
(13,25,l),
(13,0,l)
);
},
{
closed = 1;
nodes = (
(292,824,l),
(401,875,l),
(510,824,l),
(553,824,l),
(432,936,l),
(370,936,l),
(249,824,l)
);
}
);
};
layerId = UUID0;
shapes = (
{
ref = H;
},
{
pos = (229,11);
ref = circumflexcomb.case;
}
);
width = 801;
},
{
background = {
anchors = (
{
name = bottom;
pos = (413,0);
},
{
name = center;
pos = (413,377);
},
{
name = top;
pos = (413,893);
},
{
name = topleft;
pos = (20,754);
}
);
shapes = (
{
closed = 1;
nodes = (
(371,0,l),
(371,30,l),
(273,30,l),
(273,374,l),
(556,374,l),
(556,30,l),
(458,30,l),
(458,0,l),
(811,0,l),
(811,30,l),
(714,30,l),
(714,724,l),
(811,724,l),
(811,754,l),
(458,754,l),
(458,724,l),
(556,724,l),
(556,404,l),
(273,404,l),
(273,724,l),
(371,724,l),
(371,754,l),
(20,754,l),
(20,724,l),
(115,724,l),
(115,30,l),
(20,30,l),
(20,0,l)
);
},
{
closed = 1;
nodes = (
(294,827,l),
(413,869,l),
(532,827,l),
(585,827,l),
(444,943,l),
(382,943,l),
(241,827,l)
);
}
);
};
layerId = "3AE1663F-34E8-4710-91A2-69F84C961E5F";
shapes = (
{
ref = H;
},
{
pos = (201,20);
ref = circumflexcomb.case;
}
);
width = 826;
}
);
unicode = 292;
},
{
glyphname = Hdotbelow;
kernLeft = H;
kernRight = H;
lastChange = "2023-02-02 17:07:23 +0000";
layers = (
{
background = {
anchors = (
{
name = bottom;
pos = (401,-231);
},
{
name = center;
pos = (401,377);
},
{
name = top;
pos = (401,754);
},
{
name = topleft;
pos = (20,754);
}
);
shapes = (
{
closed = 1;
nodes = (
(367,0,l),
(367,25,l),
(257,25,l),
(257,375,l),
(545,375,l),
(545,25,l),
(435,25,l),
(435,0,l),
(789,0,l),
(789,25,l),
(679,25,l),
(679,729,l),
(789,729,l),
(789,754,l),
(435,754,l),
(435,729,l),
(545,729,l),
(545,400,l),
(257,400,l),
(257,729,l),
(367,729,l),
(367,754,l),
(13,754,l),
(13,729,l),
(123,729,l),
(123,25,l),
(13,25,l),
(13,0,l)
);
},
{
closed = 1;
nodes = (
(437,-231,o),
(467,-201,o),
(467,-165,cs),
(467,-129,o),
(437,-99,o),
(401,-99,cs),
(365,-99,o),
(335,-129,o),
(335,-165,cs),
(335,-201,o),
(365,-231,o),
(401,-231,cs)
);
}
);
};
layerId = UUID0;
shapes = (
{
ref = H;
},
{
pos = (117,0);
ref = dotbelowcomb;
}
);
width = 801;
},
{
background = {
anchors = (
{
name = bottom;
pos = (413,-260);
},
{
name = center;
pos = (413,377);
},
{
name = top;
pos = (413,754);
},
{
name = topleft;
pos = (20,754);
}
);
shapes = (
{
closed = 1;
nodes = (
(371,0,l),
(371,30,l),
(273,30,l),
(273,374,l),
(556,374,l),
(556,30,l),
(458,30,l),
(458,0,l),
(811,0,l),
(811,30,l),
(714,30,l),
(714,724,l),
(811,724,l),
(811,754,l),
(458,754,l),
(458,724,l),
(556,724,l),
(556,404,l),
(273,404,l),
(273,724,l),
(371,724,l),
(371,754,l),
(20,754,l),
(20,724,l),
(115,724,l),
(115,30,l),
(20,30,l),
(20,0,l)
);
},
{
closed = 1;
nodes = (
(456,-260,o),
(493,-223,o),
(493,-180,cs),
(493,-136,o),
(456,-99,o),
(412,-99,cs),
(369,-99,o),
(332,-136,o),
(332,-180,cs),
(332,-223,o),
(369,-260,o),
(412,-260,cs)
);
}
);
};
layerId = "3AE1663F-34E8-4710-91A2-69F84C961E5F";
shapes = (
{
ref = H;
},
{
pos = (120,0);
ref = dotbelowcomb;
}
);
width = 826;
}
);
unicode = 7716;
},
{
glyphname = I;
kernLeft = I;
kernRight = I;
lastChange = "2023-02-02 17:07:23 +0000";
layers = (
{
anchors = (
{
name = bottom;
pos = (190,0);
},
{
name = ogonek;
pos = (341,10);
},
{
name = top;
pos = (190,754);
},
{
name = topleft;
pos = (20,754);
}
);
background = {
anchors = (
{
name = bottom;
pos = (190,0);
},
{
name = ogonek;
pos = (341,10);
},
{
name = top;
pos = (190,754);
},
{
name = topleft;
pos = (20,754);
}
);
shapes = (
{
closed = 1;
nodes = (
(257,15,l),
(257,754,l),
(123,754,l),
(123,15,l)
);
},
{
closed = 1;
nodes = (
(367,0,l),
(367,25,l),
(13,25,l),
(13,0,l)
);
},
{
closed = 1;
nodes = (
(367,729,l),
(367,754,l),
(13,754,l),
(13,729,l)
);
}
);
};
layerId = UUID0;
shapes = (
{
closed = 1;
nodes = (
(257,15,l),
(257,754,l),
(123,754,l),
(123,15,l)
);
},
{
closed = 1;
nodes = (
(367,0,l),
(367,25,l),
(13,25,l),
(13,0,l)
);
},
{
closed = 1;
nodes = (
(367,729,l),
(367,754,l),
(13,754,l),
(13,729,l)
);
}
);
width = 379;
},
{
anchors = (
{
name = bottom;
pos = (193,0);
},
{
name = ogonek;
pos = (347,10);
},
{
name = top;
pos = (193,754);
},
{
name = topleft;
pos = (20,754);
}
);
background = {
anchors = (
{
name = bottom;
pos = (193,0);
},
{
name = ogonek;
pos = (347,10);
},
{
name = top;
pos = (193,754);
},
{
name = topleft;
pos = (20,754);
}
);
shapes = (
{
closed = 1;
nodes = (
(273,15,l),
(273,754,l),
(115,754,l),
(115,15,l)
);
},
{
closed = 1;
nodes = (
(371,0,l),
(371,30,l),
(20,30,l),
(20,0,l)
);
},
{
closed = 1;
nodes = (
(371,724,l),
(371,754,l),
(20,754,l),
(20,724,l)
);
}
);
};
layerId = "3AE1663F-34E8-4710-91A2-69F84C961E5F";
shapes = (
{
closed = 1;
nodes = (
(273,15,l),
(273,754,l),
(115,754,l),
(115,15,l)
);
},
{
closed = 1;
nodes = (
(371,0,l),
(371,30,l),
(20,30,l),
(20,0,l)
);
},
{
closed = 1;
nodes = (
(371,724,l),
(371,754,l),
(20,754,l),
(20,724,l)
);
}
);
width = 386;
}
);
unicode = 73;
},
{
glyphname = IJ;
kernLeft = I;
kernRight = J;
lastChange = "2023-02-02 17:07:23 +0000";
layers = (
{
background = {
anchors = (
{
name = bottom;
pos = (609,0);
},
{
name = ogonek;
pos = (341,10);
},
{
name = top;
pos = (609,754);
},
{
name = topleft;
pos = (20,754);
}
);
shapes = (
{
closed = 1;
nodes = (
(257,15,l),
(257,754,l),
(123,754,l),
(123,15,l)
);
},
{
closed = 1;
nodes = (
(367,0,l),
(367,25,l),
(13,25,l),
(13,0,l)
);
},
{
closed = 1;
nodes = (
(367,729,l),
(367,754,l),
(13,754,l),
(13,729,l)
);
},
{
closed = 1;
nodes = (
(583,-108,o),
(689,-1,o),
(689,125,cs),
(689,754,l),
(555,754,l),
(555,125,ls),
(555,-33,o),
(523,-75,o),
(487,-75,cs),
(474,-75,o),
(463,-69,o),
(463,-55,cs),
(463,-37,o),
(481,-21,o),
(481,7,cs),
(481,42,o),
(454,70,o),
(418,70,cs),
(383,70,o),
(350,44,o),
(350,-5,cs),
(350,-63,o),
(396,-108,o),
(470,-108,cs)
);
},
{
closed = 1;
nodes = (
(779,729,l),
(779,754,l),
(425,754,l),
(425,729,l)
);
}
);
};
layerId = UUID0;
shapes = (
{
ref = I;
},
{
pos = (379,0);
ref = J;
}
);
width = 839;
},
{
background = {
anchors = (
{
name = bottom;
pos = (579,0);
},
{
name = ogonek;
pos = (347,10);
},
{
name = top;
pos = (579,754);
},
{
name = topleft;
pos = (20,754);
}
);
shapes = (
{
closed = 1;
nodes = (
(273,15,l),
(273,754,l),
(115,754,l),
(115,15,l)
);
},
{
closed = 1;
nodes = (
(371,0,l),
(371,30,l),
(20,30,l),
(20,0,l)
);
},
{
closed = 1;
nodes = (
(371,724,l),
(371,754,l),
(20,754,l),
(20,724,l)
);
},
{
closed = 1;
nodes = (
(554,-102,o),
(659,-24,o),
(659,137,cs),
(659,754,l),
(501,754,l),
(501,27,ls),
(501,-45,o),
(461,-64,o),
(437,-64,cs),
(424,-64,o),
(409,-59,o),
(409,-45,cs),
(409,-31,o),
(427,-11,o),
(427,20,cs),
(427,65,o),
(388,91,o),
(351,91,cs),
(305,91,o),
(271,51,o),
(271,1,cs),
(271,-60,o),
(323,-102,o),
(421,-102,cs)
);
},
{
closed = 1;
nodes = (
(757,724,l),
(757,754,l),
(406,754,l),
(406,724,l)
);
}
);
};
layerId = "3AE1663F-34E8-4710-91A2-69F84C961E5F";
shapes = (
{
ref = I;
},
{
pos = (386,0);
ref = J;
}
);
width = 772;
}
);
unicode = 306;
},
{
glyphname = Iacute;
kernLeft = I;
kernRight = I;
lastChange = "2023-02-02 17:07:23 +0000";
layers = (
{
background = {
anchors = (
{
name = bottom;
pos = (190,0);
},
{
name = ogonek;
pos = (341,10);
},
{
name = top;
pos = (190,959);
},
{
name = topleft;
pos = (20,754);
}
);
shapes = (
{
closed = 1;
nodes = (
(257,15,l),
(257,754,l),
(123,754,l),
(123,15,l)
);
},
{
closed = 1;
nodes = (
(367,0,l),
(367,25,l),
(13,25,l),
(13,0,l)
);
},
{
closed = 1;
nodes = (
(367,729,l),
(367,754,l),
(13,754,l),
(13,729,l)
);
},
{
closed = 1;
nodes = (
(99,827,l),
(274,863,ls),
(307,870,o),
(324,890,o),
(324,916,cs),
(324,942,o),
(308,959,o),
(280,959,cs),
(266,959,o),
(254,953,o),
(207,923,cs),
(56,827,l)
);
}
);
};
layerId = UUID0;
shapes = (
{
ref = I;
},
{
pos = (46,35);
ref = acutecomb.case;
}
);
width = 379;
},
{
background = {
anchors = (
{
name = bottom;
pos = (193,0);
},
{
name = ogonek;
pos = (347,10);
},
{
name = top;
pos = (193,960);
},
{
name = topleft;
pos = (20,754);
}
);
shapes = (
{
closed = 1;
nodes = (
(273,15,l),
(273,754,l),
(115,754,l),
(115,15,l)
);
},
{
closed = 1;
nodes = (
(371,0,l),
(371,30,l),
(20,30,l),
(20,0,l)
);
},
{
closed = 1;
nodes = (
(371,724,l),
(371,754,l),
(20,754,l),
(20,724,l)
);
},
{
closed = 1;
nodes = (
(109,823,l),
(286,858,ls),
(330,867,o),
(339,891,o),
(339,914,cs),
(339,938,o),
(322,960,o),
(289,960,cs),
(260,960,o),
(242,950,o),
(207,927,cs),
(46,823,l)
);
}
);
};
layerId = "3AE1663F-34E8-4710-91A2-69F84C961E5F";
shapes = (
{
ref = I;
},
{
pos = (36,37);
ref = acutecomb.case;
}
);
width = 386;
}
);
unicode = 205;
},
{
glyphname = Ibreve;
kernLeft = I;
kernRight = I;
lastChange = "2023-02-02 17:07:23 +0000";
layers = (
{
background = {
anchors = (
{
name = bottom;
pos = (190,0);
},
{
name = ogonek;
pos = (341,10);
},
{
name = top;
pos = (190,952);
},
{
name = topleft;
pos = (20,754);
}
);
shapes = (
{
closed = 1;
nodes = (
(257,15,l),
(257,754,l),
(123,754,l),
(123,15,l)
);
},
{
closed = 1;
nodes = (
(367,0,l),
(367,25,l),
(13,25,l),
(13,0,l)
);
},
{
closed = 1;
nodes = (
(367,729,l),
(367,754,l),
(13,754,l),
(13,729,l)
);
},
{
closed = 1;
nodes = (
(296,820,o),
(326,875,o),
(326,952,c),
(292,952,l),
(289,908,o),
(259,888,o),
(188,888,cs),
(118,888,o),
(90,906,o),
(87,952,c),
(53,952,l),
(53,871,o),
(87,820,o),
(190,820,cs)
);
}
);
};
layerId = UUID0;
shapes = (
{
ref = I;
},
{
pos = (23,61);
ref = brevecomb.case;
}
);
width = 379;
},
{
background = {
anchors = (
{
name = bottom;
pos = (193,0);
},
{
name = ogonek;
pos = (347,10);
},
{
name = top;
pos = (193,962);
},
{
name = topleft;
pos = (20,754);
}
);
shapes = (
{
closed = 1;
nodes = (
(273,15,l),
(273,754,l),
(115,754,l),
(115,15,l)
);
},
{
closed = 1;
nodes = (
(371,0,l),
(371,30,l),
(20,30,l),
(20,0,l)
);
},
{
closed = 1;
nodes = (
(371,724,l),
(371,754,l),
(20,754,l),
(20,724,l)
);
},
{
closed = 1;
nodes = (
(286,825,o),
(339,885,o),
(339,962,c),
(295,962,l),
(292,932,o),
(242,918,o),
(191,918,cs),
(141,918,o),
(93,930,o),
(90,962,c),
(46,962,l),
(46,881,o),
(103,825,o),
(193,825,cs)
);
}
);
};
layerId = "3AE1663F-34E8-4710-91A2-69F84C961E5F";
shapes = (
{
ref = I;
},
{
pos = (16,41);
ref = brevecomb.case;
}
);
width = 386;
}
);
unicode = 300;
},
{
glyphname = Icircumflex;
kernLeft = I;
kernRight = I;
lastChange = "2023-02-02 17:07:23 +0000";
layers = (
{
background = {
anchors = (
{
name = bottom;
pos = (190,0);
},
{
name = ogonek;
pos = (341,10);
},
{
name = top;
pos = (190,881);
},
{
name = topleft;
pos = (20,754);
}
);
shapes = (
{
closed = 1;
nodes = (
(257,15,l),
(257,754,l),
(123,754,l),
(123,15,l)
);
},
{
closed = 1;
nodes = (
(367,0,l),
(367,25,l),
(13,25,l),
(13,0,l)
);
},
{
closed = 1;
nodes = (
(367,729,l),
(367,754,l),
(13,754,l),
(13,729,l)
);
},
{
closed = 1;
nodes = (
(81,824,l),
(190,875,l),
(299,824,l),
(342,824,l),
(221,936,l),
(159,936,l),
(38,824,l)
);
}
);
};
layerId = UUID0;
shapes = (
{
ref = I;
},
{
pos = (18,11);
ref = circumflexcomb.case;
}
);
width = 379;
},
{
background = {
anchors = (
{
name = bottom;
pos = (193,0);
},
{
name = ogonek;
pos = (347,10);
},
{
name = top;
pos = (193,893);
},
{
name = topleft;
pos = (20,754);
}
);
shapes = (
{
closed = 1;
nodes = (
(273,15,l),
(273,754,l),
(115,754,l),
(115,15,l)
);
},
{
closed = 1;
nodes = (
(371,0,l),
(371,30,l),
(20,30,l),
(20,0,l)
);
},
{
closed = 1;
nodes = (
(371,724,l),
(371,754,l),
(20,754,l),
(20,724,l)
);
},
{
closed = 1;
nodes = (
(74,827,l),
(193,869,l),
(312,827,l),
(365,827,l),
(224,943,l),
(162,943,l),
(21,827,l)
);
}
);
};
layerId = "3AE1663F-34E8-4710-91A2-69F84C961E5F";
shapes = (
{
ref = I;
},
{
pos = (-19,20);
ref = circumflexcomb.case;
}
);
width = 386;
}
);
unicode = 206;
},
{
glyphname = Idblgrave;
kernLeft = I;
kernRight = I;
lastChange = "2023-02-02 17:07:23 +0000";
layers = (
{
background = {
anchors = (
{
name = bottom;
pos = (190,0);
},
{
name = ogonek;
pos = (341,10);
},
{
name = top;
pos = (190,924);
},
{
name = topleft;
pos = (20,754);
}
);
shapes = (
{
closed = 1;
nodes = (
(257,15,l),
(257,754,l),
(123,754,l),
(123,15,l)
);
},
{
closed = 1;
nodes = (
(367,0,l),
(367,25,l),
(13,25,l),
(13,0,l)
);
},
{
closed = 1;
nodes = (
(367,729,l),
(367,754,l),
(13,754,l),
(13,729,l)
);
},
{
closed = 1;
nodes = (
(393,792,l),
(275,884,ls),
(231,918,o),
(223,924,o),
(209,924,cs),
(181,924,o),
(165,907,o),
(165,881,cs),
(165,855,o),
(182,837,o),
(215,828,cs),
(350,792,l)
);
},
{
closed = 1;
nodes = (
(215,792,l),
(97,884,ls),
(53,918,o),
(45,924,o),
(31,924,cs),
(3,924,o),
(-13,907,o),
(-13,881,cs),
(-13,855,o),
(4,837,o),
(37,828,cs),
(172,792,l)
);
}
);
};
layerId = UUID0;
shapes = (
{
ref = I;
},
{
pos = (-23,0);
ref = dblgravecomb.case;
}
);
width = 379;
},
{
background = {
anchors = (
{
name = bottom;
pos = (193,0);
},
{
name = ogonek;
pos = (347,10);
},
{
name = top;
pos = (193,924);
},
{
name = topleft;
pos = (20,754);
}
);
shapes = (
{
closed = 1;
nodes = (
(273,15,l),
(273,754,l),
(115,754,l),
(115,15,l)
);
},
{
closed = 1;
nodes = (
(371,0,l),
(371,30,l),
(20,30,l),
(20,0,l)
);
},
{
closed = 1;
nodes = (
(371,724,l),
(371,754,l),
(20,754,l),
(20,724,l)
);
},
{
closed = 1;
nodes = (
(450,787,l),
(289,891,ls),
(254,914,o),
(236,924,o),
(207,924,cs),
(174,924,o),
(157,902,o),
(157,878,cs),
(157,855,o),
(166,831,o),
(210,822,cs),
(387,787,l)
);
},
{
closed = 1;
nodes = (
(228,787,l),
(67,891,ls),
(32,914,o),
(14,924,o),
(-15,924,cs),
(-48,924,o),
(-65,902,o),
(-65,878,cs),
(-65,855,o),
(-56,831,o),
(-12,822,cs),
(165,787,l)
);
}
);
};
layerId = "3AE1663F-34E8-4710-91A2-69F84C961E5F";
shapes = (
{
ref = I;
},
{
pos = (-75,0);
ref = dblgravecomb.case;
}
);
width = 386;
}
);
unicode = 520;
},
{
glyphname = Idieresis;
kernLeft = I;
kernRight = I;
lastChange = "2023-02-02 17:07:23 +0000";
layers = (
{
background = {
anchors = (
{
name = bottom;
pos = (190,0);
},
{
name = ogonek;
pos = (341,10);
},
{
name = top;
pos = (190,754);
},
{
name = topleft;
pos = (20,754);
}
);
shapes = (
{
closed = 1;
nodes = (
(257,15,l),
(257,754,l),
(123,754,l),
(123,15,l)
);
},
{
closed = 1;
nodes = (
(367,0,l),
(367,25,l),
(13,25,l),
(13,0,l)
);
},
{
closed = 1;
nodes = (
(367,729,l),
(367,754,l),
(13,754,l),
(13,729,l)
);
},
{
closed = 1;
nodes = (
(311,800,o),
(336,825,o),
(336,855,cs),
(336,885,o),
(311,910,o),
(281,910,cs),
(251,910,o),
(226,885,o),
(226,855,cs),
(226,825,o),
(251,800,o),
(281,800,cs)
);
},
{
closed = 1;
nodes = (
(121,800,o),
(146,825,o),
(146,855,cs),
(146,885,o),
(121,910,o),
(91,910,cs),
(61,910,o),
(36,885,o),
(36,855,cs),
(36,825,o),
(61,800,o),
(91,800,cs)
);
}
);
};
layerId = UUID0;
shapes = (
{
ref = I;
},
{
pos = (30,0);
ref = dieresiscomb.case;
}
);
width = 379;
},
{
background = {
anchors = (
{
name = bottom;
pos = (193,0);
},
{
name = ogonek;
pos = (347,10);
},
{
name = top;
pos = (193,754);
},
{
name = topleft;
pos = (20,754);
}
);
shapes = (
{
closed = 1;
nodes = (
(273,15,l),
(273,754,l),
(115,754,l),
(115,15,l)
);
},
{
closed = 1;
nodes = (
(371,0,l),
(371,30,l),
(20,30,l),
(20,0,l)
);
},
{
closed = 1;
nodes = (
(371,724,l),
(371,754,l),
(20,754,l),
(20,724,l)
);
},
{
closed = 1;
nodes = (
(325,792,o),
(355,822,o),
(355,858,cs),
(355,894,o),
(325,924,o),
(289,924,cs),
(253,924,o),
(223,894,o),
(223,858,cs),
(223,822,o),
(253,792,o),
(289,792,cs)
);
},
{
closed = 1;
nodes = (
(135,792,o),
(165,822,o),
(165,858,cs),
(165,894,o),
(135,924,o),
(99,924,cs),
(63,924,o),
(33,894,o),
(33,858,cs),
(33,822,o),
(63,792,o),
(99,792,cs)
);
}
);
};
layerId = "3AE1663F-34E8-4710-91A2-69F84C961E5F";
shapes = (
{
ref = I;
},
{
pos = (22,0);
ref = dieresiscomb.case;
}
);
width = 386;
}
);
unicode = 207;
},
{
glyphname = Idotaccent;
kernLeft = I;
kernRight = I;
lastChange = "2023-02-02 17:07:23 +0000";
layers = (
{
background = {
anchors = (
{
name = bottom;
pos = (190,0);
},
{
name = ogonek;
pos = (341,10);
},
{
name = top;
pos = (190,754);
},
{
name = topleft;
pos = (20,754);
}
);
shapes = (
{
closed = 1;
nodes = (
(257,15,l),
(257,754,l),
(123,754,l),
(123,15,l)
);
},
{
closed = 1;
nodes = (
(367,0,l),
(367,25,l),
(13,25,l),
(13,0,l)
);
},
{
closed = 1;
nodes = (
(367,729,l),
(367,754,l),
(13,754,l),
(13,729,l)
);
},
{
closed = 1;
nodes = (
(227,797,o),
(257,827,o),
(257,863,cs),
(257,899,o),
(227,929,o),
(191,929,cs),
(155,929,o),
(125,899,o),
(125,863,cs),
(125,827,o),
(155,797,o),
(191,797,cs)
);
}
);
};
layerId = UUID0;
shapes = (
{
ref = I;
},
{
pos = (114,0);
ref = dotaccentcomb.case;
}
);
width = 379;
},
{
background = {
anchors = (
{
name = bottom;
pos = (193,0);
},
{
name = ogonek;
pos = (347,10);
},
{
name = top;
pos = (193,754);
},
{
name = topleft;
pos = (20,754);
}
);
shapes = (
{
closed = 1;
nodes = (
(273,15,l),
(273,754,l),
(115,754,l),
(115,15,l)
);
},
{
closed = 1;
nodes = (
(371,0,l),
(371,30,l),
(20,30,l),
(20,0,l)
);
},
{
closed = 1;
nodes = (
(371,724,l),
(371,754,l),
(20,754,l),
(20,724,l)
);
},
{
closed = 1;
nodes = (
(230,789,o),
(261,820,o),
(261,857,cs),
(261,895,o),
(230,926,o),
(192,926,cs),
(155,926,o),
(124,895,o),
(124,857,cs),
(124,820,o),
(155,789,o),
(192,789,cs)
);
}
);
};
layerId = "3AE1663F-34E8-4710-91A2-69F84C961E5F";
shapes = (
{
ref = I;
},
{
pos = (114,0);
ref = dotaccentcomb.case;
}
);
width = 386;
}
);
unicode = 304;
},
{
glyphname = Idotbelow;
kernLeft = I;
kernRight = I;
lastChange = "2023-02-02 17:07:23 +0000";
layers = (
{
background = {
anchors = (
{
name = bottom;
pos = (190,-231);
},
{
name = ogonek;
pos = (341,10);
},
{
name = top;
pos = (190,754);
},
{
name = topleft;
pos = (20,754);
}
);
shapes = (
{
closed = 1;
nodes = (
(257,15,l),
(257,754,l),
(123,754,l),
(123,15,l)
);
},
{
closed = 1;
nodes = (
(367,0,l),
(367,25,l),
(13,25,l),
(13,0,l)
);
},
{
closed = 1;
nodes = (
(367,729,l),
(367,754,l),
(13,754,l),
(13,729,l)
);
},
{
closed = 1;
nodes = (
(226,-231,o),
(256,-201,o),
(256,-165,cs),
(256,-129,o),
(226,-99,o),
(190,-99,cs),
(154,-99,o),
(124,-129,o),
(124,-165,cs),
(124,-201,o),
(154,-231,o),
(190,-231,cs)
);
}
);
};
layerId = UUID0;
shapes = (
{
ref = I;
},
{
pos = (-94,0);
ref = dotbelowcomb;
}
);
width = 379;
},
{
background = {
anchors = (
{
name = bottom;
pos = (193,-260);
},
{
name = ogonek;
pos = (347,10);
},
{
name = top;
pos = (193,754);
},
{
name = topleft;
pos = (20,754);
}
);
shapes = (
{
closed = 1;
nodes = (
(273,15,l),
(273,754,l),
(115,754,l),
(115,15,l)
);
},
{
closed = 1;
nodes = (
(371,0,l),
(371,30,l),
(20,30,l),
(20,0,l)
);
},
{
closed = 1;
nodes = (
(371,724,l),
(371,754,l),
(20,754,l),
(20,724,l)
);
},
{
closed = 1;
nodes = (
(236,-260,o),
(273,-223,o),
(273,-180,cs),
(273,-136,o),
(236,-99,o),
(192,-99,cs),
(149,-99,o),
(112,-136,o),
(112,-180,cs),
(112,-223,o),
(149,-260,o),
(192,-260,cs)
);
}
);
};
layerId = "3AE1663F-34E8-4710-91A2-69F84C961E5F";
shapes = (
{
ref = I;
},
{
pos = (-100,0);
ref = dotbelowcomb;
}
);
width = 386;
}
);
unicode = 7882;
},
{
glyphname = Igrave;
kernLeft = I;
kernRight = I;
lastChange = "2023-02-02 17:07:23 +0000";
layers = (
{
background = {
anchors = (
{
name = bottom;
pos = (190,0);
},
{
name = ogonek;
pos = (341,10);
},
{
name = top;
pos = (190,954);
},
{
name = topleft;
pos = (20,754);
}
);
shapes = (
{
closed = 1;
nodes = (
(257,15,l),
(257,754,l),
(123,754,l),
(123,15,l)
);
},
{
closed = 1;
nodes = (
(367,0,l),
(367,25,l),
(13,25,l),
(13,0,l)
);
},
{
closed = 1;
nodes = (
(367,729,l),
(367,754,l),
(13,754,l),
(13,729,l)
);
},
{
closed = 1;
nodes = (
(324,822,l),
(173,918,ls),
(126,948,o),
(114,954,o),
(100,954,cs),
(72,954,o),
(56,937,o),
(56,911,cs),
(56,885,o),
(73,865,o),
(106,858,cs),
(281,822,l)
);
}
);
};
layerId = UUID0;
shapes = (
{
ref = I;
},
{
pos = (46,30);
ref = gravecomb.case;
}
);
width = 379;
},
{
background = {
anchors = (
{
name = bottom;
pos = (193,0);
},
{
name = ogonek;
pos = (347,10);
},
{
name = top;
pos = (193,984);
},
{
name = topleft;
pos = (20,754);
}
);
shapes = (
{
closed = 1;
nodes = (
(273,15,l),
(273,754,l),
(115,754,l),
(115,15,l)
);
},
{
closed = 1;
nodes = (
(371,0,l),
(371,30,l),
(20,30,l),
(20,0,l)
);
},
{
closed = 1;
nodes = (
(371,724,l),
(371,754,l),
(20,754,l),
(20,724,l)
);
},
{
closed = 1;
nodes = (
(339,847,l),
(178,951,ls),
(143,974,o),
(125,984,o),
(96,984,cs),
(63,984,o),
(46,962,o),
(46,938,cs),
(46,915,o),
(55,891,o),
(99,882,cs),
(276,847,l)
);
}
);
};
layerId = "3AE1663F-34E8-4710-91A2-69F84C961E5F";
shapes = (
{
ref = I;
},
{
pos = (36,60);
ref = gravecomb.case;
}
);
width = 386;
}
);
unicode = 204;
},
{
glyphname = Ihookabove;
lastChange = "2023-02-02 17:07:23 +0000";
layers = (
{
background = {
anchors = (
{
name = bottom;
pos = (190,0);
},
{
name = ogonek;
pos = (341,10);
},
{
name = top;
pos = (190,963);
},
{
name = topleft;
pos = (20,754);
}
);
shapes = (
{
closed = 1;
nodes = (
(257,15,l),
(257,754,l),
(123,754,l),
(123,15,l)
);
},
{
closed = 1;
nodes = (
(367,0,l),
(367,25,l),
(13,25,l),
(13,0,l)
);
},
{
closed = 1;
nodes = (
(367,729,l),
(367,754,l),
(13,754,l),
(13,729,l)
);
},
{
closed = 1;
nodes = (
(217,828,l),
(229,854,o),
(286,864,o),
(286,904,cs),
(286,961,o),
(246,987,o),
(186,987,cs),
(142,987,o),
(93,966,o),
(93,907,cs),
(93,887,o),
(109,872,o),
(132,872,cs),
(153,872,o),
(164,880,o),
(164,894,cs),
(164,912,o),
(151,910,o),
(151,922,cs),
(151,937,o),
(167,947,o),
(188,947,cs),
(208,947,o),
(227,940,o),
(227,902,cs),
(227,878,o),
(190,864,o),
(190,828,c)
);
}
);
};
layerId = UUID0;
shapes = (
{
ref = I;
},
{
pos = (-95,284);
ref = hookabovecomb;
}
);
width = 379;
},
{
background = {
anchors = (
{
name = bottom;
pos = (193,0);
},
{
name = ogonek;
pos = (347,10);
},
{
name = top;
pos = (190,992);
},
{
name = topleft;
pos = (20,754);
}
);
shapes = (
{
closed = 1;
nodes = (
(273,15,l),
(273,754,l),
(115,754,l),
(115,15,l)
);
},
{
closed = 1;
nodes = (
(371,0,l),
(371,30,l),
(20,30,l),
(20,0,l)
);
},
{
closed = 1;
nodes = (
(371,724,l),
(371,754,l),
(20,754,l),
(20,724,l)
);
},
{
closed = 1;
nodes = (
(224,811,l),
(224,861,o),
(298,842,o),
(298,904,cs),
(298,975,o),
(263,1004,o),
(190,1004,cs),
(130,1004,o),
(83,977,o),
(83,912,cs),
(83,882,o),
(103,863,o),
(127,863,cs),
(144,863,o),
(166,870,o),
(166,889,cs),
(166,917,o),
(145,905,o),
(145,929,cs),
(145,943,o),
(162,961,o),
(190,961,cs),
(219,961,o),
(236,945,o),
(236,913,cs),
(236,889,o),
(185,881,o),
(185,811,c)
);
}
);
};
layerId = "3AE1663F-34E8-4710-91A2-69F84C961E5F";
shapes = (
{
ref = I;
},
{
pos = (-89,304);
ref = hookabovecomb;
}
);
width = 386;
}
);
unicode = 7880;
},
{
glyphname = Iinvertedbreve;
kernLeft = I;
kernRight = I;
lastChange = "2023-02-02 17:07:23 +0000";
layers = (
{
background = {
anchors = (
{
name = bottom;
pos = (190,0);
},
{
name = ogonek;
pos = (341,10);
},
{
name = top;
pos = (190,924);
},
{
name = topleft;
pos = (20,754);
}
);
shapes = (
{
closed = 1;
nodes = (
(257,15,l),
(257,754,l),
(123,754,l),
(123,15,l)
);
},
{
closed = 1;
nodes = (
(367,0,l),
(367,25,l),
(13,25,l),
(13,0,l)
);
},
{
closed = 1;
nodes = (
(367,729,l),
(367,754,l),
(13,754,l),
(13,729,l)
);
},
{
closed = 1;
nodes = (
(67,792,l),
(70,838,o),
(118,856,o),
(188,856,cs),
(259,856,o),
(309,836,o),
(312,792,c),
(346,792,l),
(346,869,o),
(296,924,o),
(190,924,cs),
(87,924,o),
(33,873,o),
(33,792,c)
);
}
);
};
layerId = UUID0;
shapes = (
{
ref = I;
},
{
pos = (23,0);
ref = breveinvertedcomb.case;
}
);
width = 379;
},
{
background = {
anchors = (
{
name = bottom;
pos = (193,0);
},
{
name = ogonek;
pos = (347,10);
},
{
name = top;
pos = (193,924);
},
{
name = topleft;
pos = (20,754);
}
);
shapes = (
{
closed = 1;
nodes = (
(273,15,l),
(273,754,l),
(115,754,l),
(115,15,l)
);
},
{
closed = 1;
nodes = (
(371,0,l),
(371,30,l),
(20,30,l),
(20,0,l)
);
},
{
closed = 1;
nodes = (
(371,724,l),
(371,754,l),
(20,754,l),
(20,724,l)
);
},
{
closed = 1;
nodes = (
(70,787,l),
(73,819,o),
(121,831,o),
(191,831,cs),
(262,831,o),
(312,817,o),
(315,787,c),
(359,787,l),
(359,864,o),
(306,924,o),
(193,924,cs),
(83,924,o),
(26,868,o),
(26,787,c)
);
}
);
};
layerId = "3AE1663F-34E8-4710-91A2-69F84C961E5F";
shapes = (
{
ref = I;
},
{
pos = (16,0);
ref = breveinvertedcomb.case;
}
);
width = 386;
}
);
unicode = 522;
},
{
glyphname = Imacron;
kernLeft = I;
kernRight = I;
lastChange = "2023-02-02 17:07:23 +0000";
layers = (
{
background = {
anchors = (
{
name = bottom;
pos = (190,0);
},
{
name = ogonek;
pos = (341,10);
},
{
name = top;
pos = (190,754);
},
{
name = topleft;
pos = (20,754);
}
);
shapes = (
{
closed = 1;
nodes = (
(257,15,l),
(257,754,l),
(123,754,l),
(123,15,l)
);
},
{
closed = 1;
nodes = (
(367,0,l),
(367,25,l),
(13,25,l),
(13,0,l)
);
},
{
closed = 1;
nodes = (
(367,729,l),
(367,754,l),
(13,754,l),
(13,729,l)
);
},
{
closed = 1;
nodes = (
(352,851,l),
(352,917,l),
(32,917,l),
(32,851,l)
);
}
);
};
layerId = UUID0;
shapes = (
{
ref = I;
},
{
pos = (20,0);
ref = macroncomb.case;
}
);
width = 379;
},
{
background = {
anchors = (
{
name = bottom;
pos = (193,0);
},
{
name = ogonek;
pos = (347,10);
},
{
name = top;
pos = (193,754);
},
{
name = topleft;
pos = (20,754);
}
);
shapes = (
{
closed = 1;
nodes = (
(273,15,l),
(273,754,l),
(115,754,l),
(115,15,l)
);
},
{
closed = 1;
nodes = (
(371,0,l),
(371,30,l),
(20,30,l),
(20,0,l)
);
},
{
closed = 1;
nodes = (
(371,724,l),
(371,754,l),
(20,754,l),
(20,724,l)
);
},
{
closed = 1;
nodes = (
(371,812,l),
(371,898,l),
(31,898,l),
(31,812,l)
);
}
);
};
layerId = "3AE1663F-34E8-4710-91A2-69F84C961E5F";
shapes = (
{
ref = I;
},
{
pos = (20,23);
ref = macroncomb.case;
}
);
width = 386;
}
);
unicode = 298;
},
{
glyphname = Iogonek;
kernLeft = I;
kernRight = I;
lastChange = "2023-02-02 17:07:23 +0000";
layers = (
{
background = {
anchors = (
{
name = bottom;
pos = (190,0);
},
{
name = ogonek;
pos = (341,10);
},
{
name = top;
pos = (190,754);
},
{
name = topleft;
pos = (20,754);
}
);
shapes = (
{
closed = 1;
nodes = (
(257,15,l),
(257,754,l),
(123,754,l),
(123,15,l)
);
},
{
closed = 1;
nodes = (
(367,0,l),
(367,25,l),
(13,25,l),
(13,0,l)
);
},
{
closed = 1;
nodes = (
(367,729,l),
(367,754,l),
(13,754,l),
(13,729,l)
);
},
{
closed = 1;
nodes = (
(517,-231,o),
(555,-214,o),
(576,-188,c),
(576,-161,l),
(572,-161,l),
(543,-182,o),
(523,-190,o),
(505,-190,cs),
(476,-190,o),
(459,-171,o),
(459,-137,cs),
(459,-87,o),
(497,-34,o),
(573,22,c),
(537,22,l),
(426,-51,o),
(389,-94,o),
(389,-147,cs),
(389,-198,o),
(425,-231,o),
(479,-231,c)
);
}
);
};
layerId = UUID0;
shapes = (
{
ref = I;
},
{
pos = (144,-12);
ref = ogonekcomb;
}
);
width = 379;
},
{
background = {
anchors = (
{
name = bottom;
pos = (193,0);
},
{
name = ogonek;
pos = (347,10);
},
{
name = top;
pos = (193,754);
},
{
name = topleft;
pos = (20,754);
}
);
shapes = (
{
closed = 1;
nodes = (
(273,15,l),
(273,754,l),
(115,754,l),
(115,15,l)
);
},
{
closed = 1;
nodes = (
(371,0,l),
(371,30,l),
(20,30,l),
(20,0,l)
);
},
{
closed = 1;
nodes = (
(371,724,l),
(371,754,l),
(20,754,l),
(20,724,l)
);
},
{
closed = 1;
nodes = (
(524,-231,o),
(560,-215,o),
(583,-188,c),
(583,-153,l),
(579,-153,l),
(558,-171,o),
(541,-178,o),
(522,-178,cs),
(498,-178,o),
(486,-166,o),
(486,-140,cs),
(486,-94,o),
(523,-33,o),
(583,22,c),
(537,22,l),
(433,-53,o),
(396,-97,o),
(396,-149,cs),
(396,-199,o),
(431,-231,o),
(485,-231,cs)
);
}
);
};
layerId = "3AE1663F-34E8-4710-91A2-69F84C961E5F";
shapes = (
{
ref = I;
},
{
pos = (150,-12);
ref = ogonekcomb;
}
);
width = 386;
}
);
unicode = 302;
},
{
glyphname = Itilde;
kernLeft = I;
kernRight = I;
lastChange = "2023-02-02 17:07:23 +0000";
layers = (
{
background = {
anchors = (
{
name = bottom;
pos = (190,0);
},
{
name = ogonek;
pos = (341,10);
},
{
name = top;
pos = (190,1004);
},
{
name = topleft;
pos = (20,754);
}
);
shapes = (
{
closed = 1;
nodes = (
(257,15,l),
(257,754,l),
(123,754,l),
(123,15,l)
);
},
{
closed = 1;
nodes = (
(367,0,l),
(367,25,l),
(13,25,l),
(13,0,l)
);
},
{
closed = 1;
nodes = (
(367,729,l),
(367,754,l),
(13,754,l),
(13,729,l)
);
},
{
closed = 1;
nodes = (
(47,862,l),
(54,890,o),
(77,911,o),
(110,911,cs),
(157,911,o),
(191,863,o),
(247,863,cs),
(316,863,o),
(352,927,o),
(366,990,c),
(332,990,l),
(325,969,o),
(307,939,o),
(269,939,cs),
(223,939,o),
(186,987,o),
(132,987,cs),
(66,987,o),
(24,924,o),
(14,862,c)
);
}
);
};
layerId = UUID0;
shapes = (
{
ref = I;
},
{
pos = (4,70);
ref = tildecomb.case;
}
);
width = 379;
},
{
background = {
anchors = (
{
name = bottom;
pos = (193,0);
},
{
name = ogonek;
pos = (347,10);
},
{
name = top;
pos = (193,1001);
},
{
name = topleft;
pos = (20,754);
}
);
shapes = (
{
closed = 1;
nodes = (
(273,15,l),
(273,754,l),
(115,754,l),
(115,15,l)
);
},
{
closed = 1;
nodes = (
(371,0,l),
(371,30,l),
(20,30,l),
(20,0,l)
);
},
{
closed = 1;
nodes = (
(371,724,l),
(371,754,l),
(20,754,l),
(20,724,l)
);
},
{
closed = 1;
nodes = (
(30,864,l),
(39,888,o),
(70,905,o),
(113,905,cs),
(160,905,o),
(194,865,o),
(250,865,cs),
(331,865,o),
(373,933,o),
(389,1001,c),
(355,1001,l),
(346,984,o),
(322,961,o),
(272,961,cs),
(226,961,o),
(189,1001,o),
(135,1001,cs),
(57,1001,o),
(9,931,o),
(-3,864,c)
);
}
);
};
layerId = "3AE1663F-34E8-4710-91A2-69F84C961E5F";
shapes = (
{
ref = I;
},
{
pos = (-13,77);
ref = tildecomb.case;
}
);
width = 386;
}
);
unicode = 296;
},
{
glyphname = J;
kernLeft = J;
kernRight = J;
lastChange = "2023-02-02 17:07:23 +0000";
layers = (
{
anchors = (
{
name = bottom;
pos = (230,0);
},
{
name = top;
pos = (230,754);
}
);
background = {
anchors = (
{
name = bottom;
pos = (230,0);
},
{
name = top;
pos = (230,754);
}
);
shapes = (
{
closed = 1;
nodes = (
(204,-108,o),
(310,-1,o),
(310,125,cs),
(310,754,l),
(176,754,l),
(176,125,ls),
(176,-33,o),
(144,-75,o),
(108,-75,cs),
(95,-75,o),
(84,-69,o),
(84,-55,cs),
(84,-37,o),
(102,-21,o),
(102,7,cs),
(102,42,o),
(75,70,o),
(39,70,cs),
(4,70,o),
(-29,44,o),
(-29,-5,cs),
(-29,-63,o),
(17,-108,o),
(91,-108,cs)
);
},
{
closed = 1;
nodes = (
(400,729,l),
(400,754,l),
(46,754,l),
(46,729,l)
);
}
);
};
layerId = UUID0;
shapes = (
{
closed = 1;
nodes = (
(204,-108,o),
(310,-1,o),
(310,125,cs),
(310,754,l),
(176,754,l),
(176,125,ls),
(176,-33,o),
(144,-75,o),
(108,-75,cs),
(95,-75,o),
(84,-69,o),
(84,-55,cs),
(84,-37,o),
(102,-21,o),
(102,7,cs),
(102,42,o),
(75,70,o),
(39,70,cs),
(4,70,o),
(-29,44,o),
(-29,-5,cs),
(-29,-63,o),
(17,-108,o),
(91,-108,cs)
);
},
{
closed = 1;
nodes = (
(400,729,l),
(400,754,l),
(46,754,l),
(46,729,l)
);
}
);
width = 460;
},
{
anchors = (
{
name = bottom;
pos = (193,0);
},
{
name = top;
pos = (193,754);
}
);
background = {
anchors = (
{
name = bottom;
pos = (193,0);
},
{
name = top;
pos = (193,754);
}
);
shapes = (
{
closed = 1;
nodes = (
(168,-102,o),
(273,-24,o),
(273,137,cs),
(273,754,l),
(115,754,l),
(115,27,ls),
(115,-45,o),
(75,-64,o),
(51,-64,cs),
(38,-64,o),
(23,-59,o),
(23,-45,cs),
(23,-31,o),
(41,-11,o),
(41,20,cs),
(41,65,o),
(2,91,o),
(-35,91,cs),
(-81,91,o),
(-115,51,o),
(-115,1,cs),
(-115,-60,o),
(-63,-102,o),
(35,-102,cs)
);
},
{
closed = 1;
nodes = (
(371,724,l),
(371,754,l),
(20,754,l),
(20,724,l)
);
}
);
};
layerId = "3AE1663F-34E8-4710-91A2-69F84C961E5F";
shapes = (
{
closed = 1;
nodes = (
(168,-102,o),
(273,-24,o),
(273,137,cs),
(273,754,l),
(115,754,l),
(115,27,ls),
(115,-45,o),
(75,-64,o),
(51,-64,cs),
(38,-64,o),
(23,-59,o),
(23,-45,cs),
(23,-31,o),
(41,-11,o),
(41,20,cs),
(41,65,o),
(2,91,o),
(-35,91,cs),
(-81,91,o),
(-115,51,o),
(-115,1,cs),
(-115,-60,o),
(-63,-102,o),
(35,-102,cs)
);
},
{
closed = 1;
nodes = (
(371,724,l),
(371,754,l),
(20,754,l),
(20,724,l)
);
}
);
width = 386;
}
);
unicode = 74;
},
{
glyphname = Jcircumflex;
kernLeft = J;
kernRight = J;
lastChange = "2023-02-02 17:07:23 +0000";
layers = (
{
background = {
anchors = (
{
name = bottom;
pos = (230,0);
},
{
name = top;
pos = (230,881);
}
);
shapes = (
{
closed = 1;
nodes = (
(204,-108,o),
(310,-1,o),
(310,125,cs),
(310,754,l),
(176,754,l),
(176,125,ls),
(176,-33,o),
(144,-75,o),
(108,-75,cs),
(95,-75,o),
(84,-69,o),
(84,-55,cs),
(84,-37,o),
(102,-21,o),
(102,7,cs),
(102,42,o),
(75,70,o),
(39,70,cs),
(4,70,o),
(-29,44,o),
(-29,-5,cs),
(-29,-63,o),
(17,-108,o),
(91,-108,cs)
);
},
{
closed = 1;
nodes = (
(400,729,l),
(400,754,l),
(46,754,l),
(46,729,l)
);
},
{
closed = 1;
nodes = (
(121,824,l),
(230,875,l),
(339,824,l),
(382,824,l),
(261,936,l),
(199,936,l),
(78,824,l)
);
}
);
};
layerId = UUID0;
shapes = (
{
ref = J;
},
{
pos = (58,11);
ref = circumflexcomb.case;
}
);
width = 460;
},
{
background = {
anchors = (
{
name = bottom;
pos = (193,0);
},
{
name = top;
pos = (193,893);
}
);
shapes = (
{
closed = 1;
nodes = (
(168,-102,o),
(273,-24,o),
(273,137,cs),
(273,754,l),
(115,754,l),
(115,27,ls),
(115,-45,o),
(75,-64,o),
(51,-64,cs),
(38,-64,o),
(23,-59,o),
(23,-45,cs),
(23,-31,o),
(41,-11,o),
(41,20,cs),
(41,65,o),
(2,91,o),
(-35,91,cs),
(-81,91,o),
(-115,51,o),
(-115,1,cs),
(-115,-60,o),
(-63,-102,o),
(35,-102,cs)
);
},
{
closed = 1;
nodes = (
(371,724,l),
(371,754,l),
(20,754,l),
(20,724,l)
);
},
{
closed = 1;
nodes = (
(74,827,l),
(193,869,l),
(312,827,l),
(365,827,l),
(224,943,l),
(162,943,l),
(21,827,l)
);
}
);
};
layerId = "3AE1663F-34E8-4710-91A2-69F84C961E5F";
shapes = (
{
ref = J;
},
{
pos = (-19,20);
ref = circumflexcomb.case;
}
);
width = 386;
}
);
unicode = 308;
},
{
glyphname = K;
kernLeft = K;
kernRight = K;
lastChange = "2023-02-02 17:07:23 +0000";
layers = (
{
anchors = (
{
name = bottom;
pos = (365,0);
},
{
name = top;
pos = (365,754);
}
);
background = {
anchors = (
{
name = bottom;
pos = (365,0);
},
{
name = top;
pos = (365,754);
}
);
shapes = (
{
closed = 1;
nodes = (
(357,0,l),
(357,25,l),
(257,25,l),
(257,729,l),
(357,729,l),
(357,754,l),
(13,754,l),
(13,729,l),
(123,729,l),
(123,25,l),
(13,25,l),
(13,0,l)
);
},
{
closed = 1;
nodes = (
(784,0,l),
(784,25,l),
(436,25,l),
(436,0,l)
);
},
{
closed = 1;
nodes = (
(723,15,l),
(362,469,l),
(267,384,l),
(555,15,l)
);
},
{
closed = 1;
nodes = (
(612,736,l),
(569,736,l),
(235,361,l),
(235,310,l)
);
},
{
closed = 1;
nodes = (
(721,729,l),
(721,754,l),
(438,754,l),
(438,729,l)
);
}
);
};
layerId = UUID0;
shapes = (
{
closed = 1;
nodes = (
(357,0,l),
(357,25,l),
(257,25,l),
(257,729,l),
(357,729,l),
(357,754,l),
(13,754,l),
(13,729,l),
(123,729,l),
(123,25,l),
(13,25,l),
(13,0,l)
);
},
{
closed = 1;
nodes = (
(784,0,l),
(784,25,l),
(436,25,l),
(436,0,l)
);
},
{
closed = 1;
nodes = (
(723,15,l),
(362,469,l),
(267,384,l),
(555,15,l)
);
},
{
closed = 1;
nodes = (
(612,736,l),
(569,736,l),
(235,361,l),
(235,310,l)
);
},
{
closed = 1;
nodes = (
(721,729,l),
(721,754,l),
(438,754,l),
(438,729,l)
);
}
);
width = 729;
},
{
anchors = (
{
name = bottom;
pos = (406,0);
},
{
name = top;
pos = (406,754);
}
);
background = {
anchors = (
{
name = bottom;
pos = (406,0);
},
{
name = top;
pos = (406,754);
}
);
shapes = (
{
closed = 1;
nodes = (
(371,0,l),
(371,30,l),
(273,30,l),
(273,724,l),
(371,724,l),
(371,754,l),
(20,754,l),
(20,724,l),
(115,724,l),
(115,30,l),
(20,30,l),
(20,0,l)
);
},
{
closed = 1;
nodes = (
(826,0,l),
(826,31,l),
(440,31,l),
(440,0,l)
);
},
{
closed = 1;
nodes = (
(757,15,l),
(423,500,l),
(298,385,l),
(559,15,l)
);
},
{
closed = 1;
nodes = (
(659,736,l),
(613,736,l),
(249,364,l),
(249,314,l)
);
},
{
closed = 1;
nodes = (
(765,724,l),
(765,754,l),
(482,754,l),
(482,724,l)
);
}
);
};
layerId = "3AE1663F-34E8-4710-91A2-69F84C961E5F";
shapes = (
{
closed = 1;
nodes = (
(371,0,l),
(371,30,l),
(273,30,l),
(273,724,l),
(371,724,l),
(371,754,l),
(20,754,l),
(20,724,l),
(115,724,l),
(115,30,l),
(20,30,l),
(20,0,l)
);
},
{
closed = 1;
nodes = (
(826,0,l),
(826,31,l),
(440,31,l),
(440,0,l)
);
},
{
closed = 1;
nodes = (
(757,15,l),
(423,500,l),
(298,385,l),
(559,15,l)
);
},
{
closed = 1;
nodes = (
(659,736,l),
(613,736,l),
(249,364,l),
(249,314,l)
);
},
{
closed = 1;
nodes = (
(765,724,l),
(765,754,l),
(482,754,l),
(482,724,l)
);
}
);
width = 811;
}
);
unicode = 75;
},
